<svg width="19" height="20" viewBox="0 0 19 20" fill="none" xmlns="http://www.w3.org/2000/svg">
<path d="M8.99994 0.00291058C7.39342 0.022288 3.93953 0.28607 2.0077 2.05691C0.570721 3.47959 0.0689967 5.58297 0.0101911 8.18392C-0.038605 10.7755 -0.0974106 15.6423 4.59765 16.9675V18.9859C4.59765 18.9859 4.56825 19.7935 5.1025 19.9591C5.76062 20.1673 6.13535 19.5459 6.76094 18.8784L7.92767 17.5601C11.1401 17.827 13.6005 17.2119 13.8839 17.1206C14.5358 16.9125 18.2074 16.4437 18.8073 11.5762C19.4229 6.54934 18.5077 3.38208 16.8555 1.9494H16.8455C16.3469 1.49059 14.3431 0.0316641 9.86638 0.0154121C9.86638 0.0154121 9.53419 -0.00709065 8.99994 0.00228551V0.00291058ZM9.05499 1.41621C9.51104 1.41308 9.78818 1.43246 9.78818 1.43246C13.5774 1.44246 15.386 2.58198 15.8126 2.96578C17.2039 4.15717 17.9209 7.01253 17.396 11.2093C16.8974 15.2785 13.9196 15.5361 13.3684 15.7117C13.1338 15.7867 10.9668 16.3205 8.23671 16.1449C8.23671 16.1449 6.20354 18.5965 5.56794 19.2278C5.46722 19.3384 5.34961 19.3709 5.27454 19.3547C5.16694 19.3284 5.13441 19.1953 5.14066 19.0128L5.16006 15.663C1.17817 14.5628 1.41277 10.4117 1.45531 8.2433C1.5041 6.07491 1.91136 4.30094 3.12376 3.09954C4.75592 1.62499 7.6887 1.42621 9.05374 1.41621H9.05499ZM9.35527 3.58398C9.3225 3.58365 9.28998 3.5898 9.2596 3.60209C9.22922 3.61437 9.20158 3.63254 9.17826 3.65555C9.15494 3.67856 9.13641 3.70595 9.12373 3.73615C9.11106 3.76635 9.10449 3.79876 9.10441 3.83151C9.10441 3.97152 9.21827 4.08216 9.35527 4.08216C9.97555 4.07038 10.592 4.18141 11.1691 4.40884C11.7463 4.63628 12.2726 4.97564 12.7178 5.40733C13.6268 6.28931 14.0697 7.47446 14.0866 9.02402C14.0866 9.16092 14.1973 9.27468 14.3375 9.27468V9.26468C14.4035 9.26485 14.467 9.23892 14.5139 9.19255C14.5609 9.14618 14.5877 9.08313 14.5883 9.01715C14.6187 8.28778 14.5003 7.55985 14.2404 6.87761C13.9805 6.19537 13.5844 5.57307 13.0763 5.04853C12.086 4.08154 10.831 3.58335 9.35527 3.58335V3.58398ZM6.05778 4.15717C5.8807 4.13132 5.70011 4.16684 5.54605 4.25781H5.53291C5.17524 4.4673 4.85303 4.73207 4.57826 5.04228C4.34992 5.30607 4.22605 5.57297 4.19352 5.82988C4.17413 5.98302 4.18726 6.13617 4.23293 6.28243L4.2492 6.29244C4.50631 7.04753 4.84226 7.77387 5.25265 8.4577C5.78128 9.41842 6.43185 10.3069 7.18822 11.1012L7.21074 11.1337L7.2464 11.1599L7.26892 11.1862L7.2952 11.2087C8.09297 11.9666 8.98435 12.6197 9.94771 13.152C11.0487 13.7509 11.7169 14.034 12.1179 14.1515V14.1578C12.2355 14.1934 12.3425 14.2097 12.4501 14.2097C12.7918 14.1846 13.1154 14.046 13.3691 13.8159C13.6781 13.5413 13.9402 13.218 14.1448 12.8589V12.8526C14.3369 12.4913 14.2718 12.1494 13.9947 11.9181C13.4396 11.4334 12.8395 11.0028 12.2023 10.6323C11.7757 10.4011 11.3421 10.5411 11.1664 10.7755L10.7916 11.2474C10.5996 11.4818 10.2505 11.4493 10.2505 11.4493L10.2405 11.4556C7.6374 10.7911 6.94299 8.15767 6.94299 8.15767C6.94299 8.15767 6.91046 7.7995 7.15131 7.61697L7.62051 7.23943C7.84509 7.05691 8.00149 6.62435 7.76064 6.19742C7.39242 5.55994 6.96245 4.96012 6.47693 4.40658C6.37078 4.27608 6.22187 4.18729 6.05653 4.15592L6.05778 4.15717ZM9.78818 4.89976C9.45599 4.89976 9.45599 5.40108 9.79131 5.40108C10.2044 5.40777 10.6121 5.49574 10.9911 5.65994C11.3701 5.82415 11.713 6.06138 12.0003 6.35807C12.2623 6.64686 12.4636 6.98526 12.5924 7.35322C12.7211 7.72118 12.7746 8.11121 12.7497 8.50021C12.7509 8.56604 12.7778 8.62881 12.8247 8.67507C12.8715 8.72134 12.9347 8.74742 13.0006 8.74774L13.0106 8.76087C13.077 8.76038 13.1405 8.73381 13.1874 8.68691C13.2344 8.64001 13.261 8.57654 13.2615 8.51021C13.284 7.51696 12.9749 6.68373 12.3687 6.01615C11.7594 5.34857 10.9092 4.97415 9.82384 4.89976H9.78818ZM10.1992 6.24743C9.85699 6.23743 9.84386 6.74874 10.1829 6.75874C11.0075 6.80125 11.4078 7.21755 11.4604 8.07391C11.4615 8.13891 11.4881 8.20088 11.5344 8.24656C11.5807 8.29224 11.6431 8.31799 11.7081 8.31831H11.7181C11.7516 8.31688 11.7844 8.3088 11.8147 8.29455C11.845 8.2803 11.8721 8.26017 11.8946 8.23532C11.917 8.21047 11.9342 8.18141 11.9453 8.14984C11.9564 8.11826 11.961 8.0848 11.959 8.0514C11.9002 6.93502 11.2908 6.30619 10.2092 6.24806H10.1992V6.24743Z" fill="white"/>
</svg>
