<svg width="27" height="18" viewBox="0 0 27 18" fill="none" xmlns="http://www.w3.org/2000/svg">
<path d="M1 3.20118C1 2.39645 1.4776 1.96252 2.43281 1.89941L6.11364 1.92308C6.36067 1.92308 6.52536 2.04142 6.60771 2.27811C6.9865 3.46154 7.41057 4.48323 7.87994 5.3432C8.34931 6.20316 8.96278 7.19329 9.72036 8.31361C9.78623 8.45562 9.89328 8.52663 10.0415 8.52663C10.1568 8.52663 10.2474 8.4714 10.3132 8.36095L10.3874 8.10059L10.4121 4.00592C10.4121 3.72189 10.3421 3.53254 10.2021 3.43787C10.0621 3.3432 9.8027 3.27219 9.42391 3.22485C9.12747 3.17751 8.97925 3.00394 8.97925 2.70414C8.97925 2.64103 8.98748 2.59369 9.00395 2.56213C9.3498 1.53649 10.3379 1.02367 11.9684 1.02367L13.3518 1C13.9776 1 14.4964 1.1499 14.9081 1.4497C15.3198 1.74951 15.5257 2.22288 15.5257 2.86982V8.2426C15.641 8.3215 15.748 8.36095 15.8468 8.36095C16.0939 8.36095 16.308 8.21894 16.4891 7.93491C18.3007 5.50493 19.2806 3.87968 19.4289 3.05917C19.4289 3.04339 19.4453 3.00394 19.4783 2.94083C19.5935 2.70414 19.7829 2.49901 20.0464 2.32544C20.3099 2.15187 20.5405 2.03353 20.7381 1.97041C20.804 1.93886 20.8781 1.92308 20.9605 1.92308H24.7895L25.0366 1.94675C25.3659 1.94675 25.6212 2.09665 25.8024 2.39645C25.8682 2.49112 25.9135 2.59369 25.9382 2.70414C25.9629 2.8146 25.9794 2.92505 25.9876 3.0355C25.9959 3.14596 26 3.20907 26 3.22485V3.39053C25.8847 4.03748 25.5924 4.72781 25.123 5.46154C24.6537 6.19527 24.0567 6.98817 23.332 7.84024C22.6074 8.69231 22.1545 9.25247 21.9733 9.52071C21.8251 9.71006 21.751 9.88363 21.751 10.0414C21.751 10.1677 21.8169 10.3097 21.9486 10.4675L25.5553 14.8225C25.753 15.075 25.8518 15.3511 25.8518 15.6509C25.8518 16.0138 25.7036 16.3136 25.4071 16.5503C25.1107 16.787 24.7566 16.9211 24.3449 16.9527L23.9249 16.9763H20.17C20.1535 16.9763 20.1206 16.9803 20.0711 16.9882C20.0217 16.9961 19.9888 17 19.9723 17C19.61 17 19.2724 16.8501 18.9595 16.5503C18.8442 16.4241 18.0702 15.4931 16.6374 13.7574C16.555 13.6469 16.4397 13.5444 16.2915 13.4497C16.2256 13.7022 16.1392 14.0651 16.0321 14.5385C15.9251 15.0118 15.8468 15.3511 15.7974 15.5562L15.7233 15.9586C15.5586 16.5108 15.2128 16.8422 14.6858 16.9527L14.3399 16.9763H11.919C10.552 16.9763 9.18923 16.3767 7.83053 15.1775C6.47184 13.9783 5.24901 12.428 4.16206 10.5266C3.0751 8.62525 2.06225 6.41223 1.12352 3.88757C1.04117 3.68245 1 3.45365 1 3.20118ZM15.8468 9.33136C15.501 9.33136 15.1881 9.24063 14.9081 9.05917C14.6281 8.87771 14.4881 8.62919 14.4881 8.31361V2.86982C14.4881 2.55424 14.4058 2.32939 14.2411 2.19527C14.0764 2.06114 13.7882 1.99408 13.3765 1.99408L11.9684 2.04142C11.2602 2.04142 10.725 2.15976 10.3626 2.39645C11.0873 2.72781 11.4496 3.2643 11.4496 4.00592V8.1716C11.4167 8.56608 11.252 8.89349 10.9555 9.15385C10.6591 9.4142 10.3297 9.54438 9.96739 9.54438C9.47332 9.54438 9.09453 9.31558 8.83103 8.85799C7.54644 6.99606 6.59124 5.2288 5.96541 3.55621L5.74308 2.94083L2.45751 2.91716C2.24341 2.91716 2.12401 2.92899 2.09931 2.95266C2.0746 2.97633 2.06225 3.04339 2.06225 3.15385C2.06225 3.29586 2.07872 3.44576 2.11166 3.60355L2.63043 4.92899C4.01383 8.35306 5.51663 11.0513 7.13883 13.0237C8.76103 14.9961 10.3544 15.9822 11.919 15.9822H14.3893C14.4881 15.9822 14.5623 15.9546 14.6117 15.8994C14.6611 15.8442 14.7022 15.7377 14.7352 15.5799L14.7846 15.3432L15.254 13.2604C15.3857 12.9763 15.501 12.787 15.5998 12.6923C15.781 12.5187 15.9951 12.432 16.2421 12.432C16.6374 12.432 17.0408 12.6607 17.4526 13.1183L19.5524 15.6746C19.6841 15.8797 19.8241 15.9822 19.9723 15.9822H24.0484C24.5425 15.9822 24.7895 15.8639 24.7895 15.6272C24.7895 15.5483 24.7648 15.4694 24.7154 15.3905L21.1334 11.1065C20.8534 10.7751 20.7134 10.4201 20.7134 10.0414C20.7134 9.66272 20.8452 9.2998 21.1087 8.95266C21.3228 8.63708 21.7386 8.11243 22.3562 7.3787C22.9738 6.64497 23.5132 5.95858 23.9743 5.31953C24.4354 4.68047 24.7401 4.10059 24.8883 3.57988L24.9624 3.27219C24.946 3.24063 24.9377 3.18935 24.9377 3.11834C24.9377 3.04734 24.9295 2.98817 24.913 2.94083H21.0346C20.7875 3.0355 20.5899 3.17751 20.4417 3.36686L20.2935 3.81657C19.8818 4.90533 18.803 6.5858 17.0573 8.85799C16.7115 9.17357 16.308 9.33136 15.8468 9.33136Z" fill="white" stroke="white"/>
</svg>
