<svg width="19" height="19" viewBox="0 0 19 19" fill="none" xmlns="http://www.w3.org/2000/svg">
<path d="M16.2242 2.76218C15.3492 1.88304 14.3072 1.18606 13.1589 0.71185C12.0106 0.237636 10.779 -0.00432756 9.53578 5.85798e-05C4.32653 5.85798e-05 0.081115 4.22517 0.0763435 9.41215C0.0763435 11.0735 0.512933 12.6896 1.3372 14.1206L0 19L5.01482 17.6914C6.40213 18.443 7.95634 18.8369 9.53578 18.8373H9.54056C14.751 18.8373 18.9952 14.6122 19 9.42047C19.0012 8.18315 18.7564 6.95782 18.2798 5.81508C17.8032 4.67235 17.1054 3.63478 16.2242 2.76218ZM9.53578 17.2437C8.127 17.2442 6.74412 16.8668 5.53252 16.1512L5.24623 15.9802L2.27122 16.7568L3.06567 13.8676L2.87958 13.5696C2.09206 12.3231 1.67556 10.8799 1.67836 9.4074C1.67836 5.10154 5.20567 1.58893 9.54056 1.58893C10.5733 1.58708 11.5961 1.78875 12.5502 2.18231C13.5042 2.57587 14.3706 3.15353 15.0993 3.88198C15.8306 4.6076 16.4103 5.47017 16.805 6.41994C17.1998 7.36971 17.4017 8.38787 17.3992 9.41572C17.3944 13.737 13.8671 17.2437 9.53578 17.2437ZM13.848 11.3846C13.613 11.267 12.4523 10.6982 12.234 10.6175C12.0169 10.5403 11.8583 10.4999 11.7032 10.735C11.5446 10.969 11.0913 11.5021 10.9553 11.6553C10.8193 11.8133 10.6786 11.8311 10.4424 11.7147C10.2074 11.596 9.44513 11.349 8.54332 10.545C7.83953 9.92159 7.36834 9.14972 7.22758 8.91578C7.0916 8.68066 7.21446 8.55478 7.33256 8.43722C7.43634 8.33272 7.56755 8.16172 7.68565 8.02635C7.80493 7.89097 7.8443 7.79122 7.92183 7.63447C7.99937 7.47535 7.96239 7.33997 7.90394 7.22241C7.8443 7.10485 7.37311 5.94466 7.17391 5.47679C6.98305 5.01486 6.78861 5.07898 6.64308 5.07304C6.50709 5.06473 6.34844 5.06473 6.18979 5.06473C6.06998 5.06769 5.95208 5.09528 5.84349 5.14575C5.7349 5.19623 5.63796 5.2685 5.55876 5.35804C5.34166 5.59317 4.73449 6.16198 4.73449 7.32216C4.73449 8.48234 5.58143 9.5974 5.70071 9.75534C5.81762 9.91328 7.36357 12.2871 9.73619 13.3083C10.2968 13.5518 10.7382 13.6955 11.0829 13.8047C11.6495 13.9852 12.1613 13.9579 12.5692 13.8997C13.0225 13.8308 13.9661 13.3297 14.1653 12.7799C14.3609 12.2289 14.3609 11.7586 14.3013 11.6601C14.2428 11.5603 14.0842 11.5021 13.848 11.3846Z" fill="white"/>
</svg>
