<svg width="23" height="29" viewBox="0 0 23 29" fill="none" xmlns="http://www.w3.org/2000/svg">
<path d="M0.255673 11.4429V11.4417C0.255673 5.27857 5.29922 0.255556 11.5 0.255556C17.7007 0.255556 22.7443 5.27847 22.7443 11.4489L22.7443 11.45C22.7647 15.9577 19.9469 20.1892 17.0772 23.319C15.6472 24.8786 14.2152 26.153 13.1403 27.0376C12.6031 27.4798 12.1556 27.8241 11.843 28.0575C11.6981 28.1657 11.5821 28.2501 11.4997 28.3093C10.8425 27.8425 8.2767 25.9676 5.75952 23.2028C2.9464 20.1129 0.235271 15.9563 0.255673 11.4429Z" fill="white" stroke="url(#paint0_linear_1850_17014)" stroke-width="0.511111"/>
<circle cx="11.5" cy="11.5" r="8.5" fill="url(#paint1_linear_1850_17014)"/>
<path d="M11.5 5L11.9773 9.40878L14.3202 5.6437L12.8374 9.82297L16.5819 7.44732L13.4326 10.5693L17.837 10.0536L13.645 11.5L17.837 12.9464L13.4326 12.4307L16.5819 15.5527L12.8374 13.177L14.3202 17.3563L11.9773 13.5912L11.5 18L11.0227 13.5912L8.67976 17.3563L10.1626 13.177L6.4181 15.5527L9.56742 12.4307L5.16297 12.9464L9.355 11.5L5.16297 10.0536L9.56742 10.5693L6.4181 7.44732L10.1626 9.82297L8.67976 5.6437L11.0227 9.40878L11.5 5Z" fill="white"/>
<path d="M11.5 8.75L11.7387 10.4544L12.6932 9.02234L12.1687 10.6615L13.65 9.7854L12.4663 11.0347L14.1811 10.8881L12.5725 11.5L14.1811 12.1119L12.4663 11.9653L13.65 13.2146L12.1687 12.3385L12.6932 13.9777L11.7387 12.5456L11.5 14.25L11.2613 12.5456L10.3068 13.9777L10.8313 12.3385L9.34996 13.2146L10.5337 11.9653L8.81895 12.1119L10.4275 11.5L8.81895 10.8881L10.5337 11.0347L9.34996 9.7854L10.8313 10.6615L10.3068 9.02234L11.2613 10.4544L11.5 8.75Z" fill="url(#paint2_linear_1850_17014)"/>
<defs>
<linearGradient id="paint0_linear_1850_17014" x1="0" y1="0" x2="24.8197" y2="1.95973" gradientUnits="userSpaceOnUse">
<stop stop-color="#FF00C7"/>
<stop offset="1" stop-color="#7000FF"/>
</linearGradient>
<linearGradient id="paint1_linear_1850_17014" x1="3" y1="3" x2="21.2828" y2="4.79647" gradientUnits="userSpaceOnUse">
<stop stop-color="#FF00C7"/>
<stop offset="1" stop-color="#7000FF"/>
</linearGradient>
<linearGradient id="paint2_linear_1850_17014" x1="8.75" y1="8.75" x2="14.665" y2="9.33121" gradientUnits="userSpaceOnUse">
<stop stop-color="#FF00C7"/>
<stop offset="1" stop-color="#7000FF"/>
</linearGradient>
</defs>
</svg>
