<svg width="24" height="25" viewBox="0 0 24 25" fill="none" xmlns="http://www.w3.org/2000/svg">
<path d="M9.21707 6.96993C10.141 6.96993 10.8868 7.71059 10.8868 8.62812C10.8868 9.54566 10.141 10.2863 9.21707 10.2863C8.29313 10.2863 7.54731 9.54566 7.54731 8.62812C7.54731 7.71059 8.29313 6.96993 9.21707 6.96993ZM14.7829 14.7082C15.7069 14.7082 16.4527 15.4488 16.4527 16.3664C16.4527 17.2839 15.7069 18.0245 14.7829 18.0245C13.859 18.0245 13.1132 17.2839 13.1132 16.3664C13.1132 15.4488 13.859 14.7082 14.7829 14.7082ZM8.00371 18.0245L6.43414 16.4658L15.9963 6.96993L17.5659 8.52863L8.00371 18.0245ZM19.4026 2.38227L20.0816 6.64935L23.9889 8.62812L22.0186 12.4972L24 16.3664L20.0594 18.3451L19.3803 22.6122L15.0501 21.9379L11.9666 25L8.87198 21.8937L4.57514 22.6012L3.88497 18.3009L0 16.3332L1.98145 12.4641L0.0111317 8.62812L3.91837 6.62724L4.5974 2.40438L8.90538 3.10082L12 0L15.0724 3.0566L19.4026 2.38227ZM21.0167 9.58987L18.1224 8.07539L17.5659 4.88061L14.3377 5.3449L12 3.10082L9.66234 5.3449L6.43414 4.88061L5.87755 8.07539L2.9833 9.58987L4.43043 12.4972L2.9833 15.4046L5.87755 16.9191L6.43414 20.1139L9.66234 19.6496L12 21.8937L14.3377 19.6496L17.5659 20.1139L18.1224 16.9191L21.0167 15.4046L19.5696 12.4972L21.0167 9.58987Z" fill="white"/>
</svg>
