<svg width="35" height="35" viewBox="0 0 35 35" fill="none" xmlns="http://www.w3.org/2000/svg">
<path d="M7.9939 2.90557C7.86477 2.73946 7.70177 2.60273 7.51574 2.50445C7.3297 2.40618 7.12488 2.34861 6.91489 2.33557C6.70489 2.32254 6.49452 2.35434 6.29776 2.42885C6.101 2.50337 5.92234 2.6189 5.77366 2.76777L3.51186 5.03177C2.45533 6.0905 2.06597 7.5889 2.52751 8.90355C4.44313 14.345 7.55925 19.2854 11.6447 23.3582C15.7176 27.4436 20.6579 30.5598 26.0993 32.4755C27.4139 32.937 28.9123 32.5477 29.971 31.4911L32.2328 29.2293C32.3817 29.0806 32.4972 28.902 32.5717 28.7052C32.6463 28.5084 32.6781 28.2981 32.665 28.0881C32.652 27.8781 32.5944 27.6733 32.4961 27.4872C32.3979 27.3012 32.2611 27.1382 32.095 27.009L27.0486 23.0848C26.8712 22.9471 26.6647 22.8516 26.445 22.8054C26.2252 22.7591 25.9978 22.7634 25.7799 22.8179L20.9894 24.0144C20.35 24.1742 19.6801 24.1658 19.0449 23.9898C18.4097 23.8139 17.8309 23.4764 17.3649 23.0104L11.9925 17.6358C11.5261 17.17 11.1883 16.5913 11.0119 15.9561C10.8356 15.3209 10.8268 14.6509 10.9863 14.0112L12.185 9.22073C12.2395 9.00285 12.2438 8.77545 12.1976 8.55567C12.1513 8.33589 12.0558 8.12948 11.9182 7.95201L7.9939 2.90557ZM4.12215 1.11843C4.50494 0.735517 4.96481 0.43842 5.47123 0.246867C5.97764 0.0553141 6.51901 -0.0263112 7.05939 0.00741115C7.59977 0.0411334 8.1268 0.189432 8.60547 0.442459C9.08414 0.695485 9.50351 1.04745 9.83572 1.47498L13.76 6.51924C14.4796 7.44453 14.7334 8.64981 14.449 9.78728L13.2525 14.5778C13.1906 14.8259 13.194 15.0858 13.2622 15.3323C13.3304 15.5787 13.4612 15.8033 13.6419 15.9843L19.0164 21.3589C19.1976 21.5399 19.4226 21.6709 19.6694 21.7391C19.9163 21.8074 20.1766 21.8105 20.4251 21.7482L25.2134 20.5517C25.7747 20.4114 26.3606 20.4005 26.9267 20.5198C27.4929 20.6392 28.0245 20.8857 28.4814 21.2408L33.5256 25.165C35.339 26.5759 35.5052 29.2556 33.8822 30.8765L31.6203 33.1383C30.0017 34.757 27.5824 35.4679 25.3271 34.6739C19.5549 32.6429 14.314 29.3383 9.99322 25.0053C5.66055 20.6852 2.35604 15.445 0.32477 9.67353C-0.46708 7.42046 0.243835 4.99896 1.86253 3.38025L4.12434 1.11843H4.12215Z" fill="#11255F"/>
</svg>
