<svg width="27" height="27" viewBox="0 0 27 27" fill="none" xmlns="http://www.w3.org/2000/svg">
    <path d="M12.1607 13.5C12.1607 13.8552 12.3018 14.1959 12.553 14.447C12.8042 14.6982 13.1448 14.8393 13.5 14.8393C13.8552 14.8393 14.1958 14.6982 14.447 14.447C14.6982 14.1959 14.8393 13.8552 14.8393 13.5C14.8393 13.1448 14.6982 12.8041 14.447 12.553C14.1958 12.3018 13.8552 12.1607 13.5 12.1607C13.1448 12.1607 12.8042 12.3018 12.553 12.553C12.3018 12.8041 12.1607 13.1448 12.1607 13.5ZM17.741 13.5C17.741 13.8552 17.8821 14.1959 18.1333 14.447C18.3844 14.6982 18.7251 14.8393 19.0803 14.8393C19.4355 14.8393 19.7761 14.6982 20.0273 14.447C20.2785 14.1959 20.4196 13.8552 20.4196 13.5C20.4196 13.1448 20.2785 12.8041 20.0273 12.553C19.7761 12.3018 19.4355 12.1607 19.0803 12.1607C18.7251 12.1607 18.3844 12.3018 18.1333 12.553C17.8821 12.8041 17.741 13.1448 17.741 13.5ZM6.58045 13.5C6.58045 13.8552 6.72155 14.1959 6.97271 14.447C7.22387 14.6982 7.56452 14.8393 7.91971 14.8393C8.27491 14.8393 8.61556 14.6982 8.86672 14.447C9.11788 14.1959 9.25898 13.8552 9.25898 13.5C9.25898 13.1448 9.11788 12.8041 8.86672 12.553C8.61556 12.3018 8.27491 12.1607 7.91971 12.1607C7.56452 12.1607 7.22387 12.3018 6.97271 12.553C6.72155 12.8041 6.58045 13.1448 6.58045 13.5ZM25.0289 8.65625C24.3983 7.15792 23.4943 5.81306 22.342 4.65792C21.1977 3.50948 19.8393 2.5966 18.3437 1.97098C16.8091 1.32645 15.1797 1 13.5 1H13.4442C11.7534 1.00837 10.1156 1.34319 8.5754 2.00167C7.0926 2.63371 5.74693 3.54821 4.61339 4.6942C3.47223 5.84654 2.57659 7.18583 1.95718 8.67857C1.31544 10.2243 0.991788 11.8677 1.00016 13.5586C1.00963 15.4963 1.46804 17.4054 2.33943 19.1362V23.3772C2.33943 23.7176 2.47465 24.0441 2.71535 24.2848C2.95604 24.5255 3.2825 24.6607 3.62289 24.6607H7.8667C9.59741 25.5321 11.5065 25.9905 13.4442 26H13.5028C15.1741 26 16.7952 25.6763 18.3214 25.043C19.8094 24.4248 21.1628 23.5226 22.3057 22.3867C23.458 21.2455 24.3648 19.9118 24.9982 18.4247C25.6567 16.8845 25.9915 15.2467 25.9998 13.5558C26.0082 11.8566 25.679 10.2076 25.0289 8.65625ZM20.813 20.8772C18.8571 22.8136 16.2622 23.8795 13.5 23.8795H13.4526C11.7701 23.8711 10.0988 23.4526 8.62283 22.6657L8.38846 22.5402H4.45994V18.6116L4.33438 18.3772C3.54756 16.9012 3.12904 15.2299 3.12067 13.5474C3.10951 10.7656 4.17255 8.15402 6.12286 6.18694C8.07038 4.21987 10.6736 3.1317 13.4554 3.12054H13.5028C14.8979 3.12054 16.2511 3.39118 17.5262 3.9269C18.7706 4.44866 19.8866 5.19922 20.8464 6.15904C21.8035 7.11607 22.5568 8.23493 23.0786 9.47935C23.6199 10.7684 23.8905 12.1356 23.8849 13.5474C23.8682 16.3265 22.7772 18.9297 20.813 20.8772Z" fill="white" stroke="#071B55"/>
</svg>
