<svg width="25" height="26" viewBox="0 0 25 26" fill="none" xmlns="http://www.w3.org/2000/svg">
<path d="M13.5385 12.8571C15.4927 12.8571 17.0769 11.3221 17.0769 9.42857C17.0769 7.53502 15.4927 6 13.5385 6C11.5842 6 10 7.53502 10 9.42857C10 11.3221 11.5842 12.8571 13.5385 12.8571Z" stroke="white" stroke-linecap="round" stroke-linejoin="round"/>
<path d="M1 6.14286H2.76923V4.42857C2.76923 3.51926 3.14203 2.64719 3.80562 2.00421C4.46921 1.36122 5.36923 1 6.30769 1H20.4615C21.4 1 22.3 1.36122 22.9636 2.00421C23.6272 2.64719 24 3.51926 24 4.42857V21.5714C24 22.4807 23.6272 23.3528 22.9636 23.9958C22.3 24.6388 21.4 25 20.4615 25H6.30769C5.36923 25 4.46921 24.6388 3.80562 23.9958C3.14203 23.3528 2.76923 22.4807 2.76923 21.5714V19.8571H1" stroke="white" stroke-linecap="round" stroke-linejoin="round"/>
<path d="M1 13H2.76923" stroke="white" stroke-linecap="round" stroke-linejoin="round"/>
<path d="M1 9.57129H2.76923" stroke="white" stroke-linecap="round" stroke-linejoin="round"/>
<path d="M1 16.4287H2.76923" stroke="white" stroke-linecap="round" stroke-linejoin="round"/>
<path fill-rule="evenodd" clip-rule="evenodd" d="M18.6935 18.1429V16.4286C18.6935 15.5193 18.3207 14.6472 17.6571 14.0042C16.9935 13.3612 16.0935 13 15.155 13H11.6166C10.6781 13 9.77811 13.3612 9.11452 14.0042C8.45093 14.6472 8.07813 15.5193 8.07812 16.4286V18.1429C8.07812 18.5975 8.26453 19.0335 8.59632 19.355C8.92812 19.6765 9.37813 19.8571 9.84736 19.8571H16.9243C17.3935 19.8571 17.8435 19.6765 18.1753 19.355C18.5071 19.0335 18.6935 18.5975 18.6935 18.1429Z" stroke="white" stroke-linecap="round" stroke-linejoin="round"/>
</svg>
