<svg width="35" height="39" viewBox="0 0 35 39" fill="none" xmlns="http://www.w3.org/2000/svg">
<path d="M17.3438 31.6924L17.3438 39" stroke="white"/>
<path d="M29.8933 16.9797L30.5057 20.3907L31.9904 17.2603L30.8182 20.5211L33.6666 18.5537L31.0237 20.7905L34.4725 20.5134L31.0673 21.1268L34.1923 22.6141L30.9371 21.4398L32.9011 24.2931L30.6682 21.6458L30.9449 25.1004L30.3325 21.6894L28.8477 24.8198L30.02 21.559L27.1716 23.5264L29.8144 21.2896L26.3656 21.5667L29.7708 20.9533L26.6458 19.466L29.901 20.6403L27.937 17.787L30.17 20.4343L29.8933 16.9797Z" fill="white"/>
<path d="M28.7225 8.79763L29.2831 11.9203L30.6424 9.05455L29.5692 12.0397L32.1768 10.2386L29.7574 12.2863L32.9146 12.0326L29.7972 12.5942L32.6581 13.9558L29.6781 12.8807L31.4761 15.4928L29.4319 13.0693L29.6852 16.2319L29.1245 13.1092L27.7653 15.975L28.8385 12.9898L26.2309 14.7909L28.6503 12.7432L25.4931 12.9969L28.6104 12.4353L25.7495 11.0738L28.7295 12.1488L26.9316 9.53671L28.9758 11.9602L28.7225 8.79763Z" fill="white"/>
<path d="M22.7412 3.4562L23.1889 5.95033L24.2746 3.66141L23.4174 6.04565L25.5002 4.60715L23.5678 6.24265L26.0895 6.04001L23.5996 6.48854L25.8846 7.57606L23.5044 6.71744L24.9405 8.80371L23.3078 6.868L23.5101 9.39402L23.0623 6.8999L21.9766 9.18882L22.8338 6.80458L20.7511 8.24308L22.6835 6.60758L20.1618 6.81022L22.6516 6.36168L20.3666 5.27417L22.7468 6.13279L21.3108 4.04651L22.9435 5.98222L22.7412 3.4562Z" fill="white"/>
<path d="M21.5263 9.54556L21.9741 12.0397L23.0598 9.75076L22.2026 12.135L24.2853 10.6965L22.3529 12.332L24.8746 12.1294L22.3848 12.5779L24.6698 13.6654L22.2896 12.8068L23.7256 14.8931L22.0929 12.9574L22.2952 15.4834L21.8475 12.9893L20.7618 15.2782L21.619 12.8939L19.5362 14.3324L21.4686 12.6969L18.9469 12.8996L21.4368 12.451L19.1518 11.3635L21.532 12.2221L20.0959 10.1359L21.7286 12.0716L21.5263 9.54556Z" fill="white"/>
<path d="M23.956 18.6803L24.4038 21.1744L25.4894 18.8855L24.6323 21.2698L26.715 19.8313L24.7826 21.4668L27.3043 21.2641L24.8144 21.7127L27.0994 22.8002L24.7193 21.9416L26.1553 24.0278L24.5226 22.0921L24.7249 24.6181L24.2771 22.124L23.1915 24.4129L24.0486 22.0287L21.9659 23.4672L23.8983 21.8317L21.3766 22.0343L23.8665 21.5858L21.5815 20.4983L23.9617 21.3569L22.5256 19.2706L24.1583 21.2063L23.956 18.6803Z" fill="white"/>
<path d="M17.8779 22.943L18.3257 25.4371L19.4113 23.1482L18.5542 25.5325L20.6369 24.094L18.7045 25.7295L21.2262 25.5268L18.7363 25.9754L21.0213 27.0629L18.6412 26.2043L20.0772 28.2905L18.4445 26.3548L18.6468 28.8808L18.199 26.3867L17.1134 28.6756L17.9705 26.2914L15.8878 27.7299L17.8202 26.0944L15.2985 26.297L17.7884 25.8485L15.5034 24.761L17.8835 25.6196L16.4475 23.5333L18.0802 25.469L17.8779 22.943Z" fill="white"/>
<path d="M10.581 19.8981L11.0288 22.3922L12.1144 20.1033L11.2573 22.4875L13.34 21.049L11.4076 22.6845L13.9293 22.4819L11.4394 22.9304L13.7244 24.018L11.3443 23.1593L12.7803 25.2456L11.1476 23.3099L11.3499 25.8359L10.9021 23.3418L9.81649 25.6307L10.6736 23.2465L8.59094 24.685L10.5233 23.0495L8.00164 23.2521L10.4915 22.8036L8.20649 21.7161L10.5867 22.5747L9.15061 20.4884L10.7833 22.4241L10.581 19.8981Z" fill="white"/>
<path d="M11.1904 10.1544L11.6382 12.6486L12.7238 10.3597L11.8667 12.7439L13.9494 11.3054L12.017 12.9409L14.5387 12.7382L12.0488 13.1868L14.3338 14.2743L11.9537 13.4157L13.3897 15.502L11.757 13.5662L11.9593 16.0923L11.5115 13.5981L10.4259 15.8871L11.283 13.5028L9.20031 14.9413L11.1327 13.3058L8.61101 13.5085L11.1009 13.0599L8.81586 11.9724L11.196 12.831L9.75999 10.7448L11.3927 12.6805L11.1904 10.1544Z" fill="white"/>
<path d="M16.9471 13.2362L17.4378 15.9693L18.6275 13.4611L17.6882 16.0738L19.9705 14.4974L17.8529 16.2897L20.6163 16.0676L17.8878 16.5591L20.3918 17.7509L17.7835 16.81L19.3572 19.0962L17.568 16.975L17.7897 19.7431L17.299 17.0099L16.1093 19.5182L17.0486 16.9055L14.7663 18.4818L16.8839 16.6896L14.1205 16.9117L16.849 16.4201L14.345 15.2284L16.9533 16.1693L15.3796 13.8831L17.1688 16.0043L16.9471 13.2362Z" fill="white"/>
<path d="M12.7331 0.667663L13.5096 4.99255L15.3921 1.0235L13.9058 5.15785L17.5173 2.66344L14.1665 5.49945L18.5392 5.14806L14.2217 5.92584L18.1839 7.81162L14.0567 6.32275L16.5468 9.94042L13.7156 6.58384L14.0664 10.964L13.29 6.63915L11.4074 10.6082L12.8937 6.47385L9.28226 8.96826L12.6331 6.13225L8.26039 6.48364L12.5779 5.70586L8.61562 3.82008L12.7429 5.30895L10.2528 1.69128L13.0839 5.04786L12.7331 0.667663Z" fill="white"/>
<path d="M6.32712 7.11001L6.77488 9.60413L7.86054 7.31522L7.00339 9.69946L9.08609 8.26095L7.1537 9.89646L9.6754 9.69382L7.18554 10.1424L9.47054 11.2299L7.09038 10.3712L8.52642 12.4575L6.89371 10.5218L7.09601 13.0478L6.64824 10.5537L5.56259 12.8426L6.41974 10.4584L4.33703 11.8969L6.26943 10.2614L3.74773 10.464L6.23759 10.0155L3.95258 8.92798L6.33275 9.7866L4.8967 7.70032L6.52941 9.63603L6.32712 7.11001Z" fill="white"/>
<path d="M3.78832 16.0273L4.36065 19.2152L5.74831 16.2896L4.65272 19.3371L7.3148 17.4984L4.84484 19.5889L8.06803 19.3299L4.88554 19.9032L7.80619 21.2932L4.76391 20.1957L6.59943 22.8624L4.51254 20.3882L4.77111 23.6169L4.19878 20.429L2.81111 23.3546L3.90671 20.3071L1.24463 22.1458L3.71459 20.0553L0.491394 20.3143L3.67389 19.741L0.753236 18.351L3.79552 19.4485L1.95999 16.7818L4.04689 19.256L3.78832 16.0273Z" fill="white"/>
<path d="M8.7568 25.3786L9.20457 27.8727L10.2902 25.5838L9.43307 27.968L11.5158 26.5295L9.58338 28.165L12.1051 27.9624L9.61522 28.4109L11.9002 29.4984L9.52006 28.6398L10.9561 30.7261L9.3234 28.7904L9.5257 31.3164L9.07793 28.8223L7.99227 31.1112L8.84943 28.7269L6.76672 30.1654L8.69911 28.5299L6.17742 28.7326L8.66727 28.284L6.38227 27.1965L8.76243 28.0552L7.32639 25.9689L8.9591 27.9046L8.7568 25.3786Z" fill="white"/>
<path d="M17.0938 27.0764L17.7447 30.7022L19.323 27.3747L18.0769 30.8408L21.1046 28.7496L18.2954 31.1272L21.9613 30.8326L18.3417 31.4846L21.6635 33.0656L18.2034 31.8174L20.291 34.8503L17.9175 32.0363L18.2116 35.7084L17.5606 32.0826L15.9824 35.4101L17.2284 31.944L14.2007 34.0353L17.0099 31.6577L13.344 31.9522L16.9636 31.3002L13.6418 29.7192L17.102 30.9674L15.0144 27.9345L17.3879 30.7486L17.0938 27.0764Z" fill="white"/>
<path d="M25.1709 25.3786L25.6186 27.8727L26.7043 25.5838L25.8471 27.968L27.9298 26.5295L25.9974 28.165L28.5191 27.9624L26.0293 28.4109L28.3143 29.4984L25.9341 28.6398L27.3702 30.7261L25.7375 28.7904L25.9398 31.3164L25.492 28.8223L24.4063 31.1112L25.2635 28.7269L23.1808 30.1654L25.1132 28.5299L22.5915 28.7326L25.0813 28.284L22.7963 27.1965L25.1765 28.0552L23.7405 25.9689L25.3732 27.9046L25.1709 25.3786Z" fill="white"/>
<path d="M18.821 18.2952C18.821 19.1114 18.1606 19.7721 17.3472 19.7721C16.5338 19.7721 15.8734 19.1114 15.8734 18.2952C15.8734 17.4789 16.5338 16.8183 17.3472 16.8183C18.1606 16.8183 18.821 17.4789 18.821 18.2952Z" stroke="white" stroke-width="0.7"/>
<path d="M23.918 13.899C24.485 14.7481 24.8924 15.7132 25.0973 16.7512L24.7539 16.819C24.848 17.2961 24.8974 17.7896 24.8974 18.295C24.8974 18.8004 24.848 19.2939 24.7539 19.771L25.0973 19.8387C24.8924 20.8768 24.485 21.8418 23.918 22.6909L23.627 22.4966C23.0757 23.3221 22.3666 24.033 21.543 24.5858L21.7381 24.8764C20.8899 25.4457 19.9255 25.8548 18.8881 26.0606L18.82 25.7173C18.343 25.8119 17.8497 25.8615 17.3444 25.8615C16.8392 25.8615 16.3458 25.8119 15.8689 25.7173L15.8008 26.0606C14.7634 25.8548 13.799 25.4457 12.9508 24.8764L13.1458 24.5858C12.3223 24.033 11.6131 23.3221 11.0619 22.4966L10.7708 22.6909C10.2038 21.8418 9.79641 20.8768 9.59158 19.8387L9.93496 19.771C9.84082 19.2939 9.79141 18.8004 9.79141 18.295C9.79141 17.7896 9.84082 17.2961 9.93496 16.819L9.59158 16.7512C9.79641 15.7132 10.2038 14.7481 10.7708 13.899L11.0619 14.0934C11.6131 13.2678 12.3223 12.557 13.1458 12.0042L12.9508 11.7136C13.799 11.1443 14.7634 10.7351 15.8008 10.5294L15.8689 10.8727C16.3458 10.7781 16.8392 10.7284 17.3444 10.7284C17.8497 10.7284 18.343 10.7781 18.82 10.8727L18.8881 10.5294C19.9255 10.7351 20.8899 11.1443 21.7381 11.7136L21.543 12.0042C22.3666 12.557 23.0757 13.2678 23.627 14.0934L23.918 13.899Z" stroke="white" stroke-width="0.7" stroke-dasharray="3 3"/>
<path d="M30.1497 14.4079C30.3997 15.2352 30.5719 16.0963 30.658 16.9826L30.3096 17.0165C30.3504 17.4371 30.3713 17.8636 30.3713 18.2952C30.3713 18.7268 30.3504 19.1533 30.3096 19.5739L30.658 19.6078C30.5719 20.4942 30.3997 21.3552 30.1497 22.1825L29.8146 22.0813C29.5655 22.9058 29.237 23.6959 28.838 24.4426L29.1467 24.6076C28.732 25.3839 28.243 26.1146 27.6895 26.7901L27.4188 26.5683C26.8774 27.2289 26.2725 27.8353 25.6135 28.3781L25.8361 28.6483C25.1617 29.2037 24.4322 29.6943 23.6569 30.1107L23.4914 29.8023C22.7453 30.2029 21.9559 30.5328 21.132 30.7831L21.2337 31.118C20.4067 31.3692 19.5458 31.5423 18.6595 31.6288L18.6255 31.2804C18.205 31.3215 17.7785 31.3425 17.347 31.3425C16.9155 31.3425 16.489 31.3215 16.0685 31.2804L16.0345 31.6288C15.1482 31.5423 14.2873 31.3692 13.4603 31.118L13.562 30.7831C12.7381 30.5328 11.9487 30.2029 11.2026 29.8023L11.0371 30.1107C10.2618 29.6943 9.53226 29.2037 8.85794 28.6483L9.08047 28.3781C8.42148 27.8353 7.81662 27.2289 7.27525 26.5683L7.00454 26.7901C6.45096 26.1146 5.96205 25.384 5.54726 24.6076L5.85597 24.4426C5.45703 23.6959 5.12855 22.9058 4.87937 22.0813L4.54434 22.1825C4.29434 21.3552 4.12207 20.4942 4.03603 19.6078L4.38439 19.574C4.34356 19.1533 4.32266 18.7268 4.32266 18.2952C4.32266 17.8636 4.34356 17.4371 4.38439 17.0165L4.03603 16.9826C4.12207 16.0963 4.29434 15.2352 4.54434 14.4079L4.87937 14.5092C5.12855 13.6846 5.45703 12.8945 5.85597 12.1478L5.54726 11.9829C5.96205 11.2065 6.45096 10.4758 7.00454 9.80029L7.27524 10.0221C7.81662 9.36154 8.42148 8.75514 9.08047 8.21231L8.85794 7.94216C9.53226 7.3867 10.2618 6.89606 11.0371 6.47975L11.2027 6.7881C11.9487 6.3875 12.7381 6.05761 13.562 5.80734L13.4603 5.47245C14.2873 5.22124 15.1482 5.04812 16.0345 4.96165L16.0685 5.30999C16.489 5.26896 16.9155 5.24795 17.347 5.24795C17.7785 5.24795 18.205 5.26896 18.6255 5.30999L18.6595 4.96164C19.5458 5.04812 20.4067 5.22124 21.2337 5.47245L21.132 5.80734C21.9559 6.05761 22.7453 6.3875 23.4914 6.7881L23.6569 6.47975C24.4322 6.89606 25.1617 7.3867 25.8361 7.94216L25.6135 8.21231C26.2725 8.75514 26.8774 9.36154 27.4188 10.0221L27.6895 9.80029C28.243 10.4758 28.732 11.2065 29.1467 11.9829L28.838 12.1478C29.237 12.8945 29.5655 13.6846 29.8146 14.5092L30.1497 14.4079Z" stroke="white" stroke-width="0.7" stroke-dasharray="3 3"/>
</svg>
