<svg width="30" height="20" viewBox="0 0 30 20" fill="none" xmlns="http://www.w3.org/2000/svg">
    <path d="M29.8313 6.88344L26.7862 1.15235C26.6046 0.814201 26.2959 0.559089 25.9257 0.441349C25.5556 0.323609 25.1533 0.352546 24.8045 0.521996L21.8173 1.98982H19.5647L15.3814 0.129669C15.0583 -0.013798 14.6936 -0.0391299 14.3531 0.0582368L8.13996 1.83831L5.19555 0.391666C4.8468 0.222293 4.44457 0.193371 4.07445 0.311056C3.70433 0.428741 3.39557 0.683739 3.21387 1.02177L0.168794 6.75299C0.0774461 6.92489 0.0218538 7.11295 0.00526183 7.30619C-0.0113301 7.49943 0.0114107 7.69399 0.072157 7.8785C0.132903 8.06301 0.230438 8.23379 0.359069 8.38085C0.4877 8.52792 0.64485 8.64833 0.821346 8.73507L3.8377 10.2172L10.5668 15.3883C10.7306 15.5146 10.9197 15.6055 11.1218 15.6548L18.2982 17.418C18.4149 17.4465 18.5348 17.461 18.6551 17.4609C19.0501 17.4611 19.4291 17.3075 19.7092 17.0338L24.2655 12.556C24.2747 12.547 24.2835 12.5377 24.2919 12.528L26.208 10.3252L29.1788 8.8654C29.3552 8.77865 29.5123 8.65824 29.641 8.51118C29.7696 8.36412 29.8671 8.19336 29.9278 8.00887C29.9886 7.82437 30.0113 7.62984 29.9947 7.43661C29.9782 7.24338 29.9226 7.05534 29.8313 6.88344V6.88344ZM23.8364 11.5535L18.7584 7.92401C18.6727 7.86282 18.5693 7.83022 18.4634 7.83098C18.3575 7.83175 18.2547 7.86584 18.1699 7.92827L16.585 9.09648C15.9837 9.53615 15.2542 9.7736 14.5048 9.7736C13.7553 9.7736 13.0258 9.53615 12.4245 9.09648L11.7534 8.60182C11.6966 8.55999 11.6496 8.50666 11.6157 8.44544C11.5817 8.38422 11.5615 8.31654 11.5564 8.24698C11.5514 8.17743 11.5616 8.10762 11.5864 8.04228C11.6112 7.97694 11.65 7.9176 11.7001 7.86827L16.546 3.10595C16.6391 3.01497 16.7649 2.96373 16.8962 2.96333H19.4563L19.4575 2.96345H21.634L25.3026 9.86775L23.8364 11.5535ZM1.01476 7.57877C0.9943 7.5173 0.986607 7.45242 0.992137 7.38798C0.997668 7.32353 1.01631 7.26084 1.04695 7.2036L4.09191 1.47251C4.13423 1.39363 4.19769 1.32763 4.27543 1.28164C4.35317 1.23565 4.44223 1.21144 4.53297 1.21161C4.60914 1.21155 4.68427 1.22897 4.75238 1.26248L7.39355 2.56017L3.88958 9.15453L1.26426 7.86438C1.20533 7.83563 1.15287 7.79555 1.10999 7.74651C1.06711 7.69747 1.03469 7.64048 1.01464 7.57889L1.01476 7.57877ZM19.0088 16.3454C18.9482 16.4047 18.8731 16.4477 18.7907 16.4701C18.7082 16.4925 18.6213 16.4937 18.5383 16.4734L11.3619 14.7101C11.2946 14.6937 11.2316 14.6635 11.177 14.6214L4.73344 9.66989L8.39442 2.77946L14.6302 0.992813C14.7437 0.960255 14.8654 0.968715 14.9732 1.01666L17.1616 1.98982H16.8962C16.701 1.98931 16.5076 2.02685 16.3273 2.10027C16.147 2.17369 15.9833 2.28153 15.8456 2.41755L10.9998 7.17987C10.8493 7.32781 10.7328 7.50581 10.6584 7.70181C10.584 7.89781 10.5532 8.10725 10.5683 8.31594C10.5834 8.52462 10.644 8.72768 10.7458 8.91138C10.8477 9.09507 10.9886 9.2551 11.1589 9.38063L11.83 9.87542C12.6032 10.4407 13.5411 10.746 14.5048 10.746C15.4684 10.746 16.4063 10.4407 17.1795 9.87542L18.4716 8.92283L23.1553 12.2704L19.0088 16.3454ZM28.9853 7.7091C28.9653 7.77071 28.9329 7.82773 28.89 7.87679C28.8471 7.92585 28.7947 7.96595 28.7357 7.99471L26.1104 9.28474L22.6065 2.69038L25.2476 1.39281C25.3638 1.3363 25.4979 1.32663 25.6213 1.36587C25.7446 1.4051 25.8476 1.49013 25.9081 1.60284L28.9533 7.33393C28.9839 7.39118 29.0026 7.4539 29.0081 7.51837C29.0136 7.58283 29.0059 7.64774 28.9855 7.70922L28.9853 7.7091ZM13.4994 19.6311C13.4837 19.6932 13.4557 19.7516 13.417 19.803C13.3783 19.8544 13.3297 19.8978 13.2739 19.9307C13.2181 19.9636 13.1563 19.9853 13.0919 19.9947C13.0276 20.0041 12.962 20.0009 12.8989 19.9854L9.16683 19.0686C8.93972 19.0125 8.72921 18.9047 8.55229 18.7539L5.75981 16.3685C5.71042 16.3267 5.66992 16.2757 5.64065 16.2184C5.61137 16.1611 5.59388 16.0987 5.5892 16.0348C5.58451 15.9709 5.59272 15.9067 5.61334 15.8459C5.63397 15.7851 5.66661 15.7289 5.70938 15.6805C5.75216 15.6322 5.80424 15.5926 5.86263 15.564C5.92102 15.5355 5.98457 15.5186 6.04963 15.5142C6.11469 15.5099 6.17999 15.5182 6.24177 15.5387C6.30355 15.5592 6.3606 15.5915 6.40964 15.6338L9.20224 18.0194C9.26132 18.0696 9.33154 18.1055 9.40729 18.1243L13.139 19.0411C13.2664 19.0724 13.3759 19.1522 13.4435 19.2628C13.5111 19.3735 13.5311 19.506 13.4993 19.6313L13.4994 19.6311Z" fill="white"/>
</svg>
