<svg width="22" height="22" viewBox="0 0 22 22" fill="none" xmlns="http://www.w3.org/2000/svg">
<path d="M11 6.41667C10.0935 6.41667 9.20736 6.68547 8.45364 7.1891C7.69991 7.69272 7.11245 8.40854 6.76555 9.24603C6.41865 10.0835 6.32789 11.0051 6.50473 11.8942C6.68158 12.7832 7.1181 13.5999 7.75909 14.2409C8.40008 14.8819 9.21676 15.3184 10.1058 15.4953C10.9949 15.6721 11.9165 15.5813 12.754 15.2344C13.5915 14.8875 14.3073 14.3001 14.8109 13.5464C15.3145 12.7926 15.5833 11.9065 15.5833 11C15.582 9.78485 15.0986 8.61986 14.2394 7.76062C13.3801 6.90137 12.2152 6.41805 11 6.41667ZM11 14.75C10.2583 14.75 9.5333 14.5301 8.91661 14.118C8.29993 13.706 7.81928 13.1203 7.53545 12.4351C7.25162 11.7498 7.17736 10.9958 7.32206 10.2684C7.46675 9.54098 7.8239 8.8728 8.34835 8.34835C8.8728 7.8239 9.54098 7.46675 10.2684 7.32206C10.9958 7.17736 11.7498 7.25162 12.4351 7.53545C13.1203 7.81928 13.706 8.29993 14.118 8.91661C14.5301 9.5333 14.75 10.2583 14.75 11C14.7489 11.9942 14.3535 12.9474 13.6504 13.6504C12.9474 14.3535 11.9942 14.7489 11 14.75ZM15.5833 1H6.41667C4.98058 1.00163 3.60377 1.57283 2.5883 2.5883C1.57283 3.60377 1.00163 4.98058 1 6.41667V15.5833C1.00163 17.0194 1.57283 18.3962 2.5883 19.4117C3.60377 20.4272 4.98058 20.9984 6.41667 21H15.5833C17.0194 20.9984 18.3962 20.4272 19.4117 19.4117C20.4272 18.3962 20.9984 17.0194 21 15.5833V6.41667C20.9984 4.98058 20.4272 3.60377 19.4117 2.5883C18.3962 1.57283 17.0194 1.00163 15.5833 1ZM20.1667 15.5833C20.1653 16.7985 19.682 17.9635 18.8227 18.8227C17.9635 19.682 16.7985 20.1653 15.5833 20.1667H6.41667C5.20151 20.1653 4.03653 19.682 3.17728 18.8227C2.31804 17.9635 1.83471 16.7985 1.83333 15.5833V6.41667C1.83471 5.20151 2.31804 4.03653 3.17728 3.17728C4.03653 2.31804 5.20151 1.83471 6.41667 1.83333H15.5833C16.7985 1.83471 17.9635 2.31804 18.8227 3.17728C19.682 4.03653 20.1653 5.20151 20.1667 6.41667V15.5833ZM17.25 5.58333C17.25 5.74815 17.2011 5.90927 17.1096 6.04631C17.018 6.18335 16.8878 6.29016 16.7356 6.35323C16.5833 6.41631 16.4157 6.43281 16.2541 6.40065C16.0924 6.3685 15.944 6.28913 15.8274 6.17259C15.7109 6.05605 15.6315 5.90756 15.5993 5.74591C15.5672 5.58426 15.5837 5.4167 15.6468 5.26443C15.7098 5.11216 15.8167 4.98201 15.9537 4.89044C16.0907 4.79887 16.2519 4.75 16.4167 4.75C16.6376 4.75028 16.8494 4.83816 17.0056 4.99438C17.1618 5.1506 17.2497 5.3624 17.25 5.58333Z" fill="white" stroke="white" stroke-width="0.3"/>
</svg>
