<svg width="20" height="25" viewBox="0 0 20 25" fill="none" xmlns="http://www.w3.org/2000/svg">
<path d="M9.99995 15.0001C12.7574 15.0001 14.9999 12.7577 14.9999 10.0002C14.9999 7.24272 12.7574 5.00024 9.99995 5.00024C7.24248 5.00024 5 7.24272 5 10.0002C5 12.7577 7.24248 15.0001 9.99995 15.0001ZM9.99995 7.50022C11.3787 7.50022 12.4999 8.62145 12.4999 10.0002C12.4999 11.3789 11.3787 12.5002 9.99995 12.5002C8.62121 12.5002 7.49997 11.3789 7.49997 10.0002C7.49997 8.62145 8.62121 7.50022 9.99995 7.50022Z" fill="white"/>
<path d="M9.27501 24.7675C9.48656 24.9186 9.74004 24.9998 10 24.9998C10.26 24.9998 10.5134 24.9186 10.725 24.7675C11.105 24.4988 20.0361 18.0501 19.9999 10.0002C19.9999 4.48651 15.5137 0.000305176 10 0.000305176C4.48631 0.000305176 0.000110046 4.48651 0.000110046 9.99395C-0.0361396 18.0501 8.89501 24.4988 9.27501 24.7675ZM10 2.50028C14.1362 2.50028 17.4999 5.86399 17.4999 10.0064C17.5262 15.5539 12.015 20.5351 10 22.1688C7.98627 20.5338 2.47383 15.5514 2.50008 10.0002C2.50008 5.86399 5.8638 2.50028 10 2.50028Z" fill="white"/>
</svg>
