<svg width="30" height="30" viewBox="0 0 30 30" fill="none" xmlns="http://www.w3.org/2000/svg">
<path d="M14.9992 3.27295L15.8967 11.4123L20.3021 4.46133L17.5139 12.1769L24.5546 7.7911L18.633 13.5548L26.9146 12.6027L19.0324 15.273L26.9146 17.9433L18.633 16.9912L24.5546 22.7549L17.5139 18.3691L20.3021 26.0847L15.8967 19.1337L14.9992 27.2731L14.1017 19.1337L9.69633 26.0847L12.4845 18.3691L5.44377 22.7549L11.3654 16.9912L3.08377 17.9433L10.966 15.273L3.08377 12.6027L11.3654 13.5548L5.44377 7.7911L12.4845 12.1769L9.69633 4.46133L14.1017 11.4123L14.9992 3.27295Z" fill="white"/>
<path d="M15.0007 9.81836L15.3468 13.7839L17.4111 10.3585L15.9705 14.0789L19.3441 11.8721L16.4022 14.6103L20.4168 14.0592L16.5562 15.2729L20.4168 16.4867L16.4022 15.9356L19.3441 18.6738L15.9705 16.467L17.4111 20.1873L15.3468 16.7619L15.0007 20.7275L14.6546 16.7619L12.5903 20.1873L14.0309 16.467L10.6573 18.6738L13.5992 15.9356L9.5846 16.4867L13.4452 15.2729L9.5846 14.0592L13.5992 14.6103L10.6573 11.8721L14.0309 14.0789L12.5903 10.3585L14.6546 13.7839L15.0007 9.81836Z" fill="#11255F"/>
<path d="M15.0004 0L15.1363 2.14233L16.2055 0.270086L15.3814 2.25819L17.172 1.02685L15.5509 2.46696L17.7084 2.12041L15.6114 2.72729L17.7084 3.33417L15.5509 2.98762L17.172 4.42772L15.3814 3.19639L16.2055 5.18449L15.1363 3.31225L15.0004 5.45457L14.8644 3.31225L13.7952 5.18449L14.6193 3.19639L12.8287 4.42772L14.4498 2.98762L12.2923 3.33417L14.3893 2.72729L12.2923 2.12041L14.4498 2.46696L12.8287 1.02685L14.6193 2.25819L13.7952 0.270086L14.8644 2.14233L15.0004 0Z" fill="white"/>
<path d="M9.44566 1.63574L9.58164 3.77807L10.6509 1.90583L9.82667 3.89393L11.6174 2.66259L9.99624 4.1027L12.1537 3.75615L10.0568 4.36303L12.1537 4.96991L9.99624 4.62336L11.6174 6.06346L9.82667 4.83213L10.6509 6.82023L9.58164 4.94799L9.44566 7.09032L9.30968 4.94799L8.24047 6.82023L9.06465 4.83213L7.27397 6.06346L8.89509 4.62336L6.73761 4.96991L8.83457 4.36303L6.73761 3.75615L8.89509 4.1027L7.27397 2.66259L9.06465 3.89393L8.24047 1.90583L9.30968 3.77807L9.44566 1.63574Z" fill="white"/>
<path d="M5.00035 4.90869L5.13633 7.05102L6.20555 5.17878L5.38136 7.16688L7.17204 5.93554L5.55093 7.37565L7.7084 7.0291L5.61144 7.63598L7.7084 8.24286L5.55093 7.89631L7.17204 9.33641L5.38136 8.10508L6.20555 10.0932L5.13633 8.22094L5.00035 10.3633L4.86437 8.22094L3.79515 10.0932L4.61934 8.10508L2.82866 9.33641L4.44977 7.89631L2.2923 8.24286L4.38926 7.63598L2.2923 7.0291L4.44977 7.37565L2.82866 5.93554L4.61934 7.16688L3.79515 5.17878L4.86437 7.05102L5.00035 4.90869Z" fill="white"/>
<path d="M2.77769 9.81836L2.91368 11.9607L3.98289 10.0884L3.1587 12.0765L4.94938 10.8452L3.32827 12.2853L5.48575 11.9388L3.38879 12.5456L5.48575 13.1525L3.32827 12.806L4.94938 14.2461L3.1587 13.0147L3.98289 15.0028L2.91368 13.1306L2.77769 15.2729L2.64171 13.1306L1.5725 15.0028L2.39668 13.0147L0.606005 14.2461L2.22712 12.806L0.0696425 13.1525L2.1666 12.5456L0.0696425 11.9388L2.22712 12.2853L0.606005 10.8452L2.39668 12.0765L1.5725 10.0884L2.64171 11.9607L2.77769 9.81836Z" fill="white"/>
<path d="M2.77769 15.2729L2.91368 17.4153L3.98289 15.543L3.1587 17.5311L4.94938 16.2998L3.32827 17.7399L5.48575 17.3934L3.38879 18.0002L5.48575 18.6071L3.32827 18.2606L4.94938 19.7007L3.1587 18.4693L3.98289 20.4574L2.91368 18.5852L2.77769 20.7275L2.64171 18.5852L1.5725 20.4574L2.39668 18.4693L0.606005 19.7007L2.22712 18.2606L0.0696425 18.6071L2.1666 18.0002L0.0696425 17.3934L2.22712 17.7399L0.606005 16.2998L2.39668 17.5311L1.5725 15.543L2.64171 17.4153L2.77769 15.2729Z" fill="white"/>
<path d="M5.00035 20.1816L5.13633 22.324L6.20555 20.4517L5.38136 22.4398L7.17204 21.2085L5.55093 22.6486L7.7084 22.302L5.61144 22.9089L7.7084 23.5158L5.55093 23.1693L7.17204 24.6094L5.38136 23.378L6.20555 25.3661L5.13633 23.4939L5.00035 25.6362L4.86437 23.4939L3.79515 25.3661L4.61934 23.378L2.82866 24.6094L4.44977 23.1693L2.2923 23.5158L4.38926 22.9089L2.2923 22.302L4.44977 22.6486L2.82866 21.2085L4.61934 22.4398L3.79515 20.4517L4.86437 22.324L5.00035 20.1816Z" fill="white"/>
<path d="M10.0003 22.9097L10.1363 25.052L11.2055 23.1798L10.3814 25.1679L12.172 23.9365L10.5509 25.3766L12.7084 25.0301L10.6114 25.637L12.7084 26.2438L10.5509 25.8973L12.172 27.3374L10.3814 26.1061L11.2055 28.0942L10.1363 26.2219L10.0003 28.3642L9.86437 26.2219L8.79515 28.0942L9.61934 26.1061L7.82866 27.3374L9.44977 25.8973L7.2923 26.2438L9.38926 25.637L7.2923 25.0301L9.44977 25.3766L7.82866 23.9365L9.61934 25.1679L8.79515 23.1798L9.86437 25.052L10.0003 22.9097Z" fill="white"/>
<path d="M15.0004 24.5454L15.1363 26.6877L16.2055 24.8155L15.3814 26.8036L17.172 25.5723L15.5509 27.0124L17.7084 26.6658L15.6114 27.2727L17.7084 27.8796L15.5509 27.533L17.172 28.9731L15.3814 27.7418L16.2055 29.7299L15.1363 27.8577L15.0004 30L14.8644 27.8577L13.7952 29.7299L14.6193 27.7418L12.8287 28.9731L14.4498 27.533L12.2923 27.8796L14.3893 27.2727L12.2923 26.6658L14.4498 27.0124L12.8287 25.5723L14.6193 26.8036L13.7952 24.8155L14.8644 26.6877L15.0004 24.5454Z" fill="white"/>
<path d="M20.555 24.0005L20.691 26.1428L21.7602 24.2706L20.936 26.2587L22.7267 25.0273L21.1056 26.4674L23.2631 26.1209L21.1661 26.7278L23.2631 27.3347L21.1056 26.9881L22.7267 28.4282L20.936 27.1969L21.7602 29.185L20.691 27.3127L20.555 29.4551L20.4191 27.3127L19.3498 29.185L20.174 27.1969L18.3833 28.4282L20.0045 26.9881L17.847 27.3347L19.9439 26.7278L17.847 26.1209L20.0045 26.4674L18.3833 25.0273L20.174 26.2587L19.3498 24.2706L20.4191 26.1428L20.555 24.0005Z" fill="white"/>
<path d="M25.0004 20.1816L25.1363 22.324L26.2055 20.4517L25.3814 22.4398L27.172 21.2085L25.5509 22.6486L27.7084 22.302L25.6114 22.9089L27.7084 23.5158L25.5509 23.1693L27.172 24.6094L25.3814 23.378L26.2055 25.3661L25.1363 23.4939L25.0004 25.6362L24.8644 23.4939L23.7952 25.3661L24.6193 23.378L22.8287 24.6094L24.4498 23.1693L22.2923 23.5158L24.3893 22.9089L22.2923 22.302L24.4498 22.6486L22.8287 21.2085L24.6193 22.4398L23.7952 20.4517L24.8644 22.324L25.0004 20.1816Z" fill="white"/>
<path d="M27.223 15.2729L27.359 17.4153L28.4282 15.543L27.604 17.5311L29.3947 16.2998L27.7736 17.7399L29.9311 17.3934L27.8341 18.0002L29.9311 18.6071L27.7736 18.2606L29.3947 19.7007L27.604 18.4693L28.4282 20.4574L27.359 18.5852L27.223 20.7275L27.087 18.5852L26.0178 20.4574L26.842 18.4693L25.0513 19.7007L26.6724 18.2606L24.515 18.6071L26.6119 18.0002L24.515 17.3934L26.6724 17.7399L25.0513 16.2998L26.842 17.5311L26.0178 15.543L27.087 17.4153L27.223 15.2729Z" fill="white"/>
<path d="M26.6683 9.81836L26.8043 11.9607L27.8735 10.0884L27.0493 12.0765L28.84 10.8452L27.2189 12.2853L29.3764 11.9388L27.2794 12.5456L29.3764 13.1525L27.2189 12.806L28.84 14.2461L27.0493 13.0147L27.8735 15.0028L26.8043 13.1306L26.6683 15.2729L26.5323 13.1306L25.4631 15.0028L26.2873 13.0147L24.4966 14.2461L26.1177 12.806L23.9603 13.1525L26.0572 12.5456L23.9603 11.9388L26.1177 12.2853L24.4966 10.8452L26.2873 12.0765L25.4631 10.0884L26.5323 11.9607L26.6683 9.81836Z" fill="white"/>
<path d="M25.0004 4.90869L25.1363 7.05102L26.2055 5.17878L25.3814 7.16688L27.172 5.93554L25.5509 7.37565L27.7084 7.0291L25.6114 7.63598L27.7084 8.24286L25.5509 7.89631L27.172 9.33641L25.3814 8.10508L26.2055 10.0932L25.1363 8.22094L25.0004 10.3633L24.8644 8.22094L23.7952 10.0932L24.6193 8.10508L22.8287 9.33641L24.4498 7.89631L22.2923 8.24286L24.3893 7.63598L22.2923 7.0291L24.4498 7.37565L22.8287 5.93554L24.6193 7.16688L23.7952 5.17878L24.8644 7.05102L25.0004 4.90869Z" fill="white"/>
<path d="M20.555 1.63574L20.691 3.77807L21.7602 1.90583L20.936 3.89393L22.7267 2.66259L21.1056 4.1027L23.2631 3.75615L21.1661 4.36303L23.2631 4.96991L21.1056 4.62336L22.7267 6.06346L20.936 4.83213L21.7602 6.82023L20.691 4.94799L20.555 7.09032L20.4191 4.94799L19.3498 6.82023L20.174 4.83213L18.3833 6.06346L20.0045 4.62336L17.847 4.96991L19.9439 4.36303L17.847 3.75615L20.0045 4.1027L18.3833 2.66259L20.174 3.89393L19.3498 1.90583L20.4191 3.77807L20.555 1.63574Z" fill="white"/>
</svg>
