<svg width="30" height="30" viewBox="0 0 30 30" fill="none" xmlns="http://www.w3.org/2000/svg">
<path d="M15 0L16.6021 7.98052L21.5083 1.48547L19.4891 9.37081L26.7275 5.64765L21.487 11.876L29.6239 11.6622L22.2 15L29.6239 18.3378L21.487 18.124L26.7275 24.3523L19.4891 20.6292L21.5083 28.5145L16.6021 22.0195L15 30L13.3978 22.0195L8.49174 28.5145L10.5109 20.6292L3.27253 24.3523L8.51302 18.124L0.376081 18.3378L7.8 15L0.376081 11.6622L8.51302 11.876L3.27253 5.64765L10.5109 9.37081L8.49174 1.48547L13.3978 7.98052L15 0Z" fill="white"/>
<path d="M15.1758 6.74365L15.7011 12.8723L18.8334 7.57846L16.6475 13.328L21.7665 9.91754L17.3024 14.1493L23.3942 13.2976L17.5362 15.1734L23.3942 17.0492L17.3024 16.1975L21.7665 20.4293L16.6475 17.0188L18.8334 22.7683L15.7011 17.4746L15.1758 23.6032L14.6506 17.4746L11.5183 22.7683L13.7042 17.0188L8.5852 20.4293L13.0493 16.1975L6.95745 17.0492L12.8155 15.1734L6.95745 13.2976L13.0493 14.1493L8.5852 9.91754L13.7042 13.328L11.5183 7.57846L14.6506 12.8723L15.1758 6.74365Z" fill="#11255F"/>
</svg>
