<svg width="30" height="25" viewBox="0 0 30 25" fill="none" xmlns="http://www.w3.org/2000/svg">
<path fill-rule="evenodd" clip-rule="evenodd" d="M28.9286 0H17.1429L16.3929 0.316456L15 1.66667L13.6071 0.316456L12.8571 0H1.07143L0 1.05485V22.1519L1.07143 23.2067H12.4071L14.25 25H15.75L17.5929 23.2067H28.9286L30 22.1519V1.05485L28.9286 0ZM13.9286 21.7722L13.5429 21.4135L12.8571 21.097H2.14286V2.1097H12.4071L13.9929 3.67089L13.9286 21.7722ZM27.8571 21.097H17.1429L16.3929 21.4135L16.0929 21.6878V3.5865L17.5929 2.1097H27.8571V21.097ZM10.7143 6.32911H4.28571V8.43882H10.7143V6.32911ZM10.7143 14.7679H4.28571V16.8776H10.7143V14.7679ZM4.28571 10.5485H10.7143V12.6582H4.28571V10.5485ZM25.7143 6.32911H19.2857V8.43882H25.7143V6.32911ZM19.2857 10.5485H25.7143V12.6582H19.2857V10.5485ZM19.2857 14.7679H25.7143V16.8776H19.2857V14.7679Z" fill="white"/>
</svg>
