<svg width="68" height="68" viewBox="0 0 68 68" fill="none" xmlns="http://www.w3.org/2000/svg">
<circle cx="34" cy="34" r="34" fill="url(#paint0_linear_843_1454)"/>
<path d="M7 31L7.28988 36.9182L10.5 31.9378L7.79196 37.208L13.0622 34.5L8.08184 37.7101L14 38L8.08184 38.2899L13.0622 41.5L7.79196 38.792L10.5 44.0622L7.28988 39.0818L7 45L6.71012 39.0818L3.5 44.0622L6.20804 38.792L0.937822 41.5L5.91816 38.2899L0 38L5.91816 37.7101L0.937822 34.5L6.20804 37.208L3.5 31.9378L6.71012 36.9182L7 31Z" fill="white"/>
<path d="M46 8L46.2899 13.9182L49.5 8.93782L46.792 14.208L52.0622 11.5L47.0818 14.7101L53 15L47.0818 15.2899L52.0622 18.5L46.792 15.792L49.5 21.0622L46.2899 16.0818L46 22L45.7101 16.0818L42.5 21.0622L45.208 15.792L39.9378 18.5L44.9182 15.2899L39 15L44.9182 14.7101L39.9378 11.5L45.208 14.208L42.5 8.93782L45.7101 13.9182L46 8Z" fill="white"/>
<path d="M59 29L59.2071 33.2273L61.5 29.6699L59.5657 33.4343L63.3301 31.5L59.7727 33.7929L64 34L59.7727 34.2071L63.3301 36.5L59.5657 34.5657L61.5 38.3301L59.2071 34.7727L59 39L58.7929 34.7727L56.5 38.3301L58.4343 34.5657L54.6699 36.5L58.2273 34.2071L54 34L58.2273 33.7929L54.6699 31.5L58.4343 33.4343L56.5 29.6699L58.7929 33.2273L59 29Z" fill="white"/>
<path d="M20 10L20.1656 13.3818L22 10.5359L20.4525 13.5475L23.4641 12L20.6182 13.8344L24 14L20.6182 14.1656L23.4641 16L20.4525 14.4525L22 17.4641L20.1656 14.6182L20 18L19.8344 14.6182L18 17.4641L19.5475 14.4525L16.5359 16L19.3818 14.1656L16 14L19.3818 13.8344L16.5359 12L19.5475 13.5475L18 10.5359L19.8344 13.3818L20 10Z" fill="white"/>
<path d="M34 67.0286C34 51.1749 34 40.9943 34 37.8857" stroke="white" stroke-width="1.5"/>
<path d="M38.2409 16.9903L35.5415 34.8509L48.1353 21.9016L36.8673 36.0196L54.2484 31.1021L37.4311 37.6947L54.9423 42.1266L37.0818 39.4272L50.031 52.021L35.913 40.753L40.8306 58.1341L34.238 41.3168L29.8061 58.828L32.5054 40.9675L19.9117 53.9167L31.1796 39.7987L13.7985 44.7162L30.6159 38.1237L13.1046 33.6918L30.9652 36.3911L18.0159 23.7974L32.1339 35.0653L27.2164 17.6842L33.809 34.5016L38.2409 16.9903Z" fill="white"/>
<defs>
<linearGradient id="paint0_linear_843_1454" x1="0" y1="0" x2="73.1313" y2="7.18588" gradientUnits="userSpaceOnUse">
<stop stop-color="#FF00C7"/>
<stop offset="1" stop-color="#7000FF"/>
</linearGradient>
</defs>
</svg>
