<svg width="68" height="68" viewBox="0 0 68 68" fill="none" xmlns="http://www.w3.org/2000/svg">
<circle cx="34" cy="34" r="34" fill="url(#paint0_linear_770_1499)"/>
<path d="M23.8 13.6001L24.2626 23.4557L29.3857 15.1619L25.0639 23.9384L33.4747 19.4287L25.5265 24.7745L34.9714 25.2572L25.5265 25.74L33.4747 31.0858L25.0639 26.5761L29.3857 35.3526L24.2626 27.0588L23.8 36.9144L23.3373 27.0588L18.2143 35.3526L22.5361 26.5761L14.1252 31.0858L22.0734 25.74L12.6285 25.2572L22.0734 24.7745L14.1252 19.4287L22.5361 23.9384L18.2143 15.1619L23.3373 23.4557L23.8 13.6001Z" fill="white"/>
<path d="M47.1142 31.0156L47.436 37.586L50.9999 32.0568L47.9934 37.9078L53.8445 34.9013L48.3153 38.4652L54.8856 38.7871L48.3153 39.1089L53.8445 42.6728L47.9934 39.6663L50.9999 45.5173L47.436 39.9881L47.1142 46.5585L46.7924 39.9881L43.2285 45.5173L46.235 39.6663L40.3839 42.6728L45.9131 39.1089L39.3428 38.7871L45.9131 38.4652L40.3839 34.9013L46.235 37.9078L43.2285 32.0568L46.7924 37.586L47.1142 31.0156Z" fill="white"/>
<path d="M34.4857 44.686L34.6868 48.7925L36.9143 45.3368L35.0352 48.9937L38.6921 47.1146L35.2363 49.342L39.3428 49.5432L35.2363 49.7443L38.6921 51.9718L35.0352 50.0927L36.9143 53.7496L34.6868 50.2938L34.4857 54.4003L34.2845 50.2938L32.0571 53.7496L33.9362 50.0927L30.2793 51.9718L33.735 49.7443L29.6285 49.5432L33.735 49.342L30.2793 47.1146L33.9362 48.9937L32.0571 45.3368L34.2845 48.7925L34.4857 44.686Z" fill="white"/>
<path d="M27.3177 25.2787C30.5585 25.2787 33.7933 27.4074 34.4819 29.8844C34.9899 27.5259 38.3015 25.3023 41.6372 25.3023C44.232 25.3023 46.841 26.6473 48.157 30.3208C51.3918 39.3534 35.6092 48.0267 34.4814 49.1C33.3536 47.7492 17.5721 39.5087 20.8089 30.3261C22.1038 26.6525 24.7128 25.2781 27.3177 25.2787ZM27.3177 24.2856C23.8977 24.2856 21.2029 26.3614 19.927 29.9799C17.022 38.2209 27.5701 45.4437 32.0733 48.5266C32.7985 49.0234 33.6201 49.5862 33.7818 49.7615L34.4112 50.5142L35.1118 49.8365C35.2283 49.7295 35.7668 49.3691 36.2878 49.0208C40.6062 46.1314 52.0769 38.4554 49.0368 29.9694C47.7489 26.3719 45.0516 24.3087 41.6377 24.3087C38.7547 24.3087 35.9028 25.7581 34.4543 27.7468C32.9576 25.7282 30.1419 24.2862 27.3177 24.2856Z" fill="white"/>
<defs>
<linearGradient id="paint0_linear_770_1499" x1="0" y1="0" x2="73.1313" y2="7.18588" gradientUnits="userSpaceOnUse">
<stop stop-color="#FF00C7"/>
<stop offset="1" stop-color="#7000FF"/>
</linearGradient>
</defs>
</svg>
