<svg width="68" height="68" viewBox="0 0 68 68" fill="none" xmlns="http://www.w3.org/2000/svg">
<circle cx="34" cy="34" r="34" fill="url(#paint0_linear_843_1455)"/>
<path d="M47 7L48.1015 17.1741L53.5083 8.48547L50.0863 18.1299L58.7275 12.6477L51.4598 19.8523L61.6239 18.6622L51.95 22L61.6239 25.3378L51.4598 24.1477L58.7275 31.3523L50.0863 25.8701L53.5083 35.5145L48.1015 26.8259L47 37L45.8985 26.8259L40.4917 35.5145L43.9137 25.8701L35.2725 31.3523L42.5402 24.1477L32.3761 25.3378L42.05 22L32.3761 18.6622L42.5402 19.8523L35.2725 12.6477L43.9137 18.1299L40.4917 8.48547L45.8985 17.1741L47 7Z" fill="white"/>
<path d="M31 35L32.1015 45.1741L37.5083 36.4855L34.0863 46.1299L42.7275 40.6477L35.4598 47.8523L45.6239 46.6622L35.95 50L45.6239 53.3378L35.4598 52.1477L42.7275 59.3523L34.0863 53.8701L37.5083 63.5145L32.1015 54.8259L31 65L29.8985 54.8259L24.4917 63.5145L27.9137 53.8701L19.2725 59.3523L26.5402 52.1477L16.3761 53.3378L26.05 50L16.3761 46.6622L26.5402 47.8523L19.2725 40.6477L27.9137 46.1299L24.4917 36.4855L29.8985 45.1741L31 35Z" fill="white"/>
<path d="M18.5 15L19.4179 23.4784L23.9235 16.2379L21.0719 24.2749L28.2729 19.7064L22.2165 25.7102L30.6866 24.7185L22.625 27.5L30.6866 30.2815L22.2165 29.2898L28.2729 35.2936L21.0719 30.7251L23.9235 38.7621L19.4179 31.5216L18.5 40L17.5821 31.5216L13.0765 38.7621L15.9281 30.7251L8.72711 35.2936L14.7835 29.2898L6.3134 30.2815L14.375 27.5L6.3134 24.7185L14.7835 25.7102L8.72711 19.7064L15.9281 24.2749L13.0765 16.2379L17.5821 23.4784L18.5 15Z" fill="white"/>
<path d="M47 15L47.6075 19.3384L50.0372 15.6932L48.7021 19.8656L52.4728 17.6356L49.4596 20.8155L53.8245 20.4424L49.73 22L53.8245 23.5576L49.4596 23.1845L52.4728 26.3644L48.7021 24.1344L50.0372 28.3068L47.6075 24.6616L47 29L46.3925 24.6616L43.9628 28.3068L45.2979 24.1344L41.5272 26.3644L44.5404 23.1845L40.1755 23.5576L44.27 22L40.1755 20.4424L44.5404 20.8155L41.5272 17.6356L45.2979 19.8656L43.9628 15.6932L46.3925 19.3384L47 15Z" fill="url(#paint1_linear_843_1455)"/>
<path d="M31 43L31.6075 47.3384L34.0372 43.6932L32.7021 47.8656L36.4728 45.6356L33.4596 48.8155L37.8245 48.4424L33.73 50L37.8245 51.5576L33.4596 51.1845L36.4728 54.3644L32.7021 52.1344L34.0372 56.3068L31.6075 52.6616L31 57L30.3925 52.6616L27.9628 56.3068L29.2979 52.1344L25.5272 54.3644L28.5404 51.1845L24.1755 51.5576L28.27 50L24.1755 48.4424L28.5404 48.8155L25.5272 45.6356L29.2979 47.8656L27.9628 43.6932L30.3925 47.3384L31 43Z" fill="url(#paint2_linear_843_1455)"/>
<path d="M18.5 22L18.9773 25.4088L20.8864 22.5447L19.8374 25.823L22.8001 24.0708L20.4326 26.5693L23.8621 26.2761L20.645 27.5L23.8621 28.7239L20.4326 28.4307L22.8001 30.9292L19.8374 29.177L20.8864 32.4553L18.9773 29.5912L18.5 33L18.0227 29.5912L16.1136 32.4553L17.1626 29.177L14.1999 30.9292L16.5674 28.4307L13.1379 28.7239L16.355 27.5L13.1379 26.2761L16.5674 26.5693L14.1999 24.0708L17.1626 25.823L16.1136 22.5447L18.0227 25.4088L18.5 22Z" fill="url(#paint3_linear_843_1455)"/>
<defs>
<linearGradient id="paint0_linear_843_1455" x1="0" y1="0" x2="73.1313" y2="7.18588" gradientUnits="userSpaceOnUse">
<stop stop-color="#FF00C7"/>
<stop offset="1" stop-color="#7000FF"/>
</linearGradient>
<linearGradient id="paint1_linear_843_1455" x1="40" y1="15" x2="55.0565" y2="16.4794" gradientUnits="userSpaceOnUse">
<stop stop-color="#FF00C7"/>
<stop offset="1" stop-color="#7000FF"/>
</linearGradient>
<linearGradient id="paint2_linear_843_1455" x1="24" y1="43" x2="39.0565" y2="44.4794" gradientUnits="userSpaceOnUse">
<stop stop-color="#FF00C7"/>
<stop offset="1" stop-color="#7000FF"/>
</linearGradient>
<linearGradient id="paint3_linear_843_1455" x1="13" y1="22" x2="24.8301" y2="23.1624" gradientUnits="userSpaceOnUse">
<stop stop-color="#FF00C7"/>
<stop offset="1" stop-color="#7000FF"/>
</linearGradient>
</defs>
</svg>
