<svg width="200" height="56" viewBox="0 0 200 56" fill="none" xmlns="http://www.w3.org/2000/svg">
<path d="M23.3548 39.7925C23.1766 41.7822 22.4787 43.3636 21.2612 44.5366C20.0436 45.7096 18.3732 46.2961 16.2498 46.2961C13.9483 46.2961 12.0923 45.5388 10.6817 44.0243C9.28591 42.4949 8.58804 40.4755 8.58804 37.9661C8.58804 35.5904 9.29334 33.6156 10.7039 32.0416C12.1294 30.4677 14.0226 29.6807 16.3835 29.6807C18.2692 29.6807 19.8506 30.2153 21.1275 31.2844C22.4045 32.3534 23.1098 33.7121 23.2434 35.3603H19.8357C19.6575 34.4842 19.2566 33.8086 18.633 33.3334C18.0242 32.8434 17.2521 32.5984 16.3166 32.5984C15.3515 32.5984 14.5348 32.8731 13.8667 33.4225C13.2133 33.9571 12.753 34.6178 12.4857 35.4048C12.2185 36.1918 12.0848 37.053 12.0848 37.9884C12.0848 39.6217 12.4635 40.9284 13.2207 41.9084C13.978 42.8736 14.9951 43.3561 16.2721 43.3561C18.3954 43.3561 19.6056 42.1683 19.9025 39.7925H23.3548ZM35.164 45.9175H31.9567C31.8528 45.6205 31.7785 45.2493 31.734 44.8038C30.7689 45.769 29.529 46.2516 28.0145 46.2516C26.7375 46.2516 25.7352 45.9472 25.0077 45.3384C24.2801 44.7148 23.9163 43.861 23.9163 42.777C23.9163 42.287 23.9757 41.8564 24.0945 41.4852C24.2281 41.114 24.436 40.8022 24.7181 40.5498C25.0151 40.2974 25.2898 40.0895 25.5422 39.9261C25.8095 39.7628 26.1733 39.6292 26.6336 39.5252C27.0939 39.4213 27.4651 39.3471 27.7472 39.3025C28.0293 39.2431 28.4228 39.1837 28.9277 39.1243C30.0413 38.9758 30.7837 38.8199 31.1549 38.6566C31.541 38.4933 31.734 38.1889 31.734 37.7434C31.734 36.7189 31.0436 36.2066 29.6626 36.2066C28.9351 36.2066 28.4005 36.3402 28.059 36.6075C27.7175 36.8599 27.4948 37.3128 27.3908 37.9661H24.4286C24.6068 35.3825 26.3811 34.0907 29.7517 34.0907C33.0926 34.0907 34.7631 35.338 34.7631 37.8325V42.7993C34.7631 44.2545 34.8967 45.2938 35.164 45.9175ZM31.7117 40.327C31.3405 40.5498 30.5981 40.7502 29.4845 40.9284C28.549 41.0769 27.9402 41.2625 27.6581 41.4852C27.3314 41.7673 27.1681 42.1534 27.1681 42.6434C27.1681 43.1186 27.3166 43.4972 27.6136 43.7793C27.9254 44.0466 28.356 44.1802 28.9054 44.1802C29.7517 44.1802 30.4273 43.9575 30.9322 43.512C31.4519 43.0517 31.7117 42.4207 31.7117 41.6189V40.327ZM47.0624 45.9175H43.922V36.8525H40.8929L40.7593 40.9061C40.7444 41.3516 40.7296 41.708 40.7147 41.9752C40.6999 42.2276 40.6554 42.5692 40.5811 42.9998C40.5217 43.4304 40.4475 43.7793 40.3584 44.0466C40.2693 44.299 40.1282 44.5885 39.9352 44.9152C39.757 45.227 39.5417 45.472 39.2893 45.6502C39.0517 45.8135 38.7399 45.9546 38.3538 46.0734C37.9678 46.207 37.5372 46.2738 37.062 46.2738C36.2899 46.2738 35.7183 46.1996 35.347 46.0511V43.5343C35.7183 43.6086 36.0152 43.6457 36.2379 43.6457C37.1437 43.6457 37.6189 42.8513 37.6634 41.2625L37.8416 34.4248H47.0624V45.9175ZM54.0733 41.0175H51.8683V45.9175H48.7279V34.4248H51.8683V38.7902H54.1401C54.3777 37.3351 54.979 36.1918 55.9442 35.3603C56.9242 34.5139 58.1714 34.0907 59.686 34.0907C61.3936 34.0907 62.7448 34.6475 63.7396 35.7612C64.7345 36.8599 65.2319 38.3299 65.2319 40.1711C65.2319 42.0272 64.727 43.512 63.7173 44.6257C62.7225 45.7245 61.3639 46.2738 59.6414 46.2738C58.0378 46.2738 56.746 45.8061 55.766 44.8707C54.786 43.9204 54.2218 42.636 54.0733 41.0175ZM62.0692 40.1489C62.0692 38.9907 61.8539 38.0924 61.4233 37.4539C60.9926 36.8154 60.3839 36.4962 59.5969 36.4962C58.8396 36.4962 58.2457 36.8228 57.8151 37.4762C57.3993 38.1146 57.1915 39.013 57.1915 40.1711C57.1915 41.359 57.3993 42.2796 57.8151 42.9329C58.2457 43.5714 58.8545 43.8907 59.6414 43.8907C60.4136 43.8907 61.0075 43.564 61.4233 42.9107C61.8539 42.2573 62.0692 41.3367 62.0692 40.1489ZM75.7526 36.8525H71.9662V45.9175H68.8258V36.8525H65.0394V34.4248H75.7526V36.8525ZM82.6419 45.8507V42.9107C83.2062 43.1482 83.763 43.267 84.3124 43.267C84.8172 43.267 85.2107 43.1408 85.4928 42.8884C85.775 42.6211 85.916 42.2945 85.916 41.9084C85.916 41.7748 85.9012 41.6411 85.8715 41.5075C85.8418 41.3739 85.7972 41.2254 85.7378 41.062C85.6784 40.8987 85.6265 40.7725 85.5819 40.6834C85.5374 40.5795 85.4631 40.431 85.3592 40.238C85.2701 40.0449 85.2107 39.9187 85.181 39.8593L80.526 30.0594H84.3792L87.9651 38.4116L91.4842 30.0594H95.2037L89.8583 41.7302C89.101 43.3932 88.3437 44.5588 87.5865 45.227C86.8292 45.8804 85.8269 46.207 84.5797 46.207C83.8818 46.207 83.2359 46.0882 82.6419 45.8507ZM104.532 45.9175H101.391V36.8525H98.3624L98.2288 40.9061C98.2139 41.3516 98.1991 41.708 98.1842 41.9752C98.1694 42.2276 98.1248 42.5692 98.0506 42.9998C97.9912 43.4304 97.917 43.7793 97.8279 44.0466C97.7388 44.299 97.5977 44.5885 97.4047 44.9152C97.2265 45.227 97.0112 45.472 96.7588 45.6502C96.5212 45.8135 96.2094 45.9546 95.8233 46.0734C95.4373 46.207 95.0067 46.2738 94.5315 46.2738C93.7594 46.2738 93.1877 46.1996 92.8165 46.0511V43.5343C93.1877 43.6086 93.4847 43.6457 93.7074 43.6457C94.6132 43.6457 95.0883 42.8513 95.1329 41.2625L95.3111 34.4248H104.532V45.9175ZM116.465 42.1311C116.465 43.3636 116.064 44.3064 115.262 44.9598C114.475 45.5982 113.429 45.9175 112.122 45.9175H106.086V34.4248H109.204V38.3671H112.255C113.473 38.3671 114.475 38.6937 115.262 39.3471C116.064 40.0004 116.465 40.9284 116.465 42.1311ZM109.204 40.5052V43.7348H111.365C112.642 43.7348 113.28 43.2002 113.28 42.1311C113.28 41.5966 113.102 41.1957 112.745 40.9284C112.389 40.6463 111.921 40.5052 111.342 40.5052H109.204ZM127.537 45.9175H124.397V41.6634H123.06L119.764 45.9175H115.888L119.697 41.3961C118.851 41.2625 118.153 40.8839 117.603 40.2602C117.054 39.6217 116.779 38.8422 116.779 37.9216C116.779 36.9119 117.136 36.0804 117.848 35.4271C118.561 34.7589 119.474 34.4248 120.588 34.4248H127.537V45.9175ZM124.397 39.3916V36.6966H121.88C121.182 36.6966 120.692 36.808 120.41 37.0307C120.128 37.2386 119.987 37.5727 119.987 38.033C119.987 38.5081 120.12 38.8571 120.387 39.0798C120.67 39.2877 121.167 39.3916 121.88 39.3916H124.397ZM139.881 45.9175H136.74V41.0843H132.308V45.9175H129.168V34.4248H132.308V38.5898H136.74V34.4248H139.881V45.9175ZM152.972 40.1711C152.972 42.0123 152.43 43.4898 151.346 44.6034C150.277 45.717 148.844 46.2738 147.048 46.2738C145.251 46.2738 143.811 45.717 142.727 44.6034C141.643 43.4898 141.101 42.0123 141.101 40.1711C141.101 38.3448 141.65 36.8748 142.749 35.7612C143.848 34.6475 145.296 34.0907 147.092 34.0907C148.859 34.0907 150.277 34.6475 151.346 35.7612C152.43 36.8748 152.972 38.3448 152.972 40.1711ZM149.809 40.1489C149.809 39.0055 149.557 38.1146 149.052 37.4762C148.562 36.8228 147.879 36.4962 147.003 36.4962C146.157 36.4962 145.489 36.8228 144.999 37.4762C144.509 38.1295 144.264 39.0278 144.264 40.1711C144.264 41.3442 144.509 42.2573 144.999 42.9107C145.489 43.564 146.172 43.8907 147.048 43.8907C147.924 43.8907 148.599 43.564 149.074 42.9107C149.564 42.2425 149.809 41.3219 149.809 40.1489ZM154.115 34.4248H160.73C161.814 34.4248 162.698 34.6698 163.381 35.1598C164.064 35.6349 164.405 36.3551 164.405 37.3202C164.405 38.419 163.886 39.206 162.846 39.6811C164.242 40.082 164.94 41.0175 164.94 42.4875C164.94 43.5714 164.569 44.4178 163.826 45.0266C163.099 45.6205 162.171 45.9175 161.042 45.9175H154.115V34.4248ZM157.234 39.0352H159.327C160.574 39.0352 161.198 38.5972 161.198 37.7212C161.198 37.2163 161.027 36.8748 160.686 36.6966C160.359 36.5184 159.906 36.4293 159.327 36.4293H157.234V39.0352ZM157.234 43.8684H159.572C160.225 43.8684 160.738 43.7645 161.109 43.5566C161.48 43.3487 161.666 42.9478 161.666 42.3539C161.666 41.7451 161.465 41.3367 161.064 41.1289C160.664 40.921 160.122 40.817 159.439 40.817H157.234V43.8684ZM177.016 41.4852C176.823 42.9701 176.237 44.1282 175.257 44.9598C174.292 45.7913 173.045 46.207 171.515 46.207C169.748 46.207 168.33 45.6651 167.261 44.5811C166.192 43.4972 165.657 42.0569 165.657 40.2602C165.657 38.4042 166.192 36.9119 167.261 35.7834C168.345 34.655 169.778 34.0907 171.56 34.0907C173.089 34.0907 174.336 34.4842 175.301 35.2712C176.267 36.0433 176.816 37.0975 176.95 38.4339H173.854C173.616 37.1124 172.859 36.4516 171.582 36.4516C170.721 36.4516 170.045 36.7857 169.555 37.4539C169.08 38.1072 168.842 39.0204 168.842 40.1934C168.842 41.3367 169.073 42.2276 169.533 42.8661C170.008 43.4898 170.669 43.8016 171.515 43.8016C172.896 43.8016 173.713 43.0295 173.965 41.4852H177.016ZM189.694 45.9175H185.864L182.545 40.973L181.142 42.3984V45.9175H178.046V34.4248H181.142V38.9684L185.351 34.4248H189.071L184.616 38.8793L189.694 45.9175Z" fill="#11255F"/>
<rect x="0.367089" y="23.5448" width="199.266" height="28.62" rx="14.31" stroke="#11255F" stroke-width="0.734178"/>
<path d="M187.601 16.021L185.688 21.6884H181.751L184.878 23.9045L184.142 27.1015L187.086 25.394L192.825 31.7153L189.808 24.5221L192.972 21.6884H188.999L187.601 16.021Z" fill="#11255F"/>
<path d="M59.6007 48.8989L58.7351 51.4632H56.9539L58.3688 52.4659L58.0359 53.9124L59.3676 53.1398L61.9645 56L60.5995 52.7453L62.0311 51.4632H60.2333L59.6007 48.8989Z" fill="#11255F"/>
<path d="M80.9799 27.6831L81.6225 29.5867L82.9448 29.5867L81.8944 30.331L82.1416 31.4049L81.1529 30.8314L79.2251 32.9546L80.2385 30.5385L79.1757 29.5867L80.5103 29.5867L80.9799 27.6831Z" fill="#11255F"/>
<path d="M60.1237 32.894L60.4346 33.8149L61.0742 33.8149L60.5661 34.1749L60.6857 34.6944L60.2074 34.417L59.2749 35.444L59.7651 34.2753L59.251 33.8149L59.8966 33.8149L60.1237 32.894Z" fill="#11255F"/>
<path d="M44.1401 44.2485L44.4509 45.1694L45.0906 45.1694L44.5825 45.5294L44.702 46.0489L44.2238 45.7715L43.2912 46.7985L43.7814 45.6298L43.2673 45.1694L43.9129 45.1694L44.1401 44.2485Z" fill="#11255F"/>
<path d="M21.8128 29.1362L22.5056 31.1885L23.9312 31.1885L22.7987 31.991L23.0652 33.1486L21.9993 32.5303L19.921 34.8194L21.0135 32.2146L19.8677 31.1885L21.3066 31.1885L21.8128 29.1362Z" fill="#11255F"/>
<path d="M106.379 43.8862L106.79 45.1044L107.636 45.1044L106.964 45.5807L107.122 46.2678L106.49 45.9008L105.256 47.2595L105.905 45.7134L105.225 45.1044L106.079 45.1044L106.379 43.8862Z" fill="#11255F"/>
<path d="M127.497 32.6968L127.908 33.9149L128.755 33.9149L128.082 34.3912L128.241 35.0784L127.608 34.7114L126.374 36.0701L127.023 34.524L126.343 33.9149L127.197 33.9149L127.497 32.6968Z" fill="#11255F"/>
<path d="M151.706 42.5776L152.117 43.7958L152.964 43.7958L152.291 44.2721L152.45 44.9593L151.817 44.5923L150.583 45.9509L151.232 44.4048L150.552 43.7958L151.406 43.7958L151.706 42.5776Z" fill="#11255F"/>
<path d="M178.638 32.6968L179.049 33.9149L179.896 33.9149L179.223 34.3912L179.381 35.0784L178.749 34.7114L177.515 36.0701L178.164 34.524L177.484 33.9149L178.338 33.9149L178.638 32.6968Z" fill="#11255F"/>
<path d="M33.1492 0L34.38 3.74035H38.3629L35.1406 6.05202L36.3714 9.79237L33.1492 7.48071L29.927 9.79237L31.1578 6.05202L27.9355 3.74035H31.9184L33.1492 0Z" fill="#11255F"/>
<path d="M42.8624 1.1626L43.5975 3.39677H45.9766L44.0519 4.77756L44.787 7.01173L42.8624 5.63094L40.9377 7.01173L41.6728 4.77756L39.7482 3.39677H42.1272L42.8624 1.1626Z" fill="#11255F"/>
<path d="M48.1605 11.6982L48.8956 13.9324H51.2747L49.35 15.3132L50.0851 17.5474L48.1605 16.1666L46.2358 17.5474L46.9709 15.3132L45.0463 13.9324H47.4253L48.1605 11.6982Z" fill="#11255F"/>
<path d="M38.3002 9.66406L39.2667 12.6011H42.3942L39.864 14.4163L40.8304 17.3534L38.3002 15.5382L35.77 17.3534L36.7365 14.4163L34.2063 12.6011H37.3338L38.3002 9.66406Z" fill="#11255F"/>
<path d="M43.4509 17.9463L44.4173 20.8833H47.5448L45.0146 22.6985L45.9811 25.6356L43.4509 23.8204L40.9207 25.6356L41.8871 22.6985L39.3569 20.8833H42.4844L43.4509 17.9463Z" fill="#11255F"/>
<path d="M23.9515 6.68506L26.343 11.3352C7.15244 16.5957 2.13404 28.846 0.184082 36.1119C1.14067 19.9816 17.0102 9.30078 23.9515 6.68506Z" fill="#11255F"/>
<path d="M31.8431 13.0982L31.8431 18.2425C11.9382 17.5778 3.46111 26.7201 1.14044 31.7882C7.57902 16.1302 24.4268 13.5379 31.8431 13.0982Z" fill="#11255F"/>
<path d="M33.0577 19.8261L33.0577 24.9705C11.6266 22.8516 4.96728 25.6853 0.773019 34.1137C3.86352 18.9643 25.6414 20.2658 33.0577 19.8261Z" fill="#11255F"/>
<path d="M33.1605 19.0361L34.2519 22.2896L36.4978 22.2896L34.7137 23.5618L35.1335 25.3972L33.4543 24.4169L30.18 28.0458L31.9011 23.9164L30.096 22.2896L32.3629 22.2896L33.1605 19.0361Z" fill="#11255F"/>
<path d="M31.6886 11.2617L32.78 14.5152L35.0259 14.5152L33.2418 15.7874L33.6616 17.6227L31.9824 16.6425L28.7081 20.2714L30.4292 16.142L28.6241 14.5152L30.891 14.5152L31.6886 11.2617Z" fill="#11255F"/>
<path d="M24.9923 5.37646L26.0837 8.62997L28.3296 8.62997L26.5455 9.90217L26.9653 11.7375L25.2861 10.7573L22.0118 14.3862L23.7329 10.2567L21.9278 8.62997L24.1947 8.62997L24.9923 5.37646Z" fill="#11255F"/>
</svg>
