<svg width="108" height="72" viewBox="0 0 108 72" fill="none" xmlns="http://www.w3.org/2000/svg">
<path d="M30.4265 50.9209H25.9262C25.5488 53.9405 23.9229 55.5664 21.1937 55.5664C17.8548 55.5664 15.7353 52.8372 15.7353 48.5692C15.7353 45.1141 17.2741 41.543 21.2517 41.543C23.6906 41.543 25.3746 42.8785 25.8391 45.1432H30.2813C29.9329 40.8752 26.3036 37.7395 21.3388 37.7395C15.0094 37.7395 11.1769 42.5301 11.1769 48.5401C11.1769 55.0728 15.1546 59.3989 21.1646 59.3989C26.8263 59.3989 29.9619 55.9728 30.4265 50.9209ZM45.8206 58.9053C45.269 57.6278 45.298 56.2051 45.298 54.8405V48.3659C45.298 44.1851 41.7849 43.4882 38.7653 43.4882C34.4393 43.4882 32.0585 45.2012 31.8262 48.5401H35.6877C35.9781 46.8271 36.762 46.2465 38.6492 46.2465C40.4783 46.2465 41.3494 46.8852 41.3494 48.2498C41.3494 49.4692 40.3622 49.7015 37.6911 50.0499C34.7296 50.4274 31.1584 50.8919 31.1584 54.8115C31.1584 57.6278 33.1908 59.3408 36.5007 59.3408C38.3008 59.3408 40.0719 58.7311 41.3494 57.4536C41.4074 58.1214 41.4365 58.3536 41.6397 58.9053H45.8206ZM41.3203 51.6177V53.3017C41.3203 55.4502 39.8106 56.6406 37.6621 56.6406C36.2394 56.6406 35.3974 55.8857 35.3974 54.6373C35.3974 52.8081 36.9943 52.6339 38.4169 52.4017C39.4622 52.2275 40.3622 52.1694 41.3203 51.6177ZM61.3311 58.9053V43.9237H49.311L49.0788 52.8372C49.0207 54.9857 48.411 55.9438 47.2206 55.9438C46.7851 55.9438 46.3496 55.8567 46.0592 55.7986V59.0795C46.4947 59.2537 47.7142 59.3698 48.2948 59.3698C52.8241 59.3698 52.9983 55.4793 53.1145 52.3726L53.2887 47.0884H57.2373V58.9053H61.3311ZM70.4702 52.5178C70.8476 56.6987 73.4897 59.3698 77.7287 59.3698C82.258 59.3698 85.0162 56.2341 85.0162 51.4145C85.0162 46.6529 82.258 43.4882 77.7868 43.4882C73.7801 43.4882 71.167 45.869 70.5573 49.6144H67.5958V43.9237H63.5021V58.9053H67.5958V52.5178H70.4702ZM80.8934 51.3855C80.8934 54.4631 79.7611 56.2632 77.7287 56.2632C75.6673 56.2632 74.535 54.4921 74.535 51.4145C74.535 48.424 75.6673 46.6239 77.6706 46.6239C79.732 46.6239 80.8934 48.395 80.8934 51.3855ZM98.7307 47.0884V43.9237H84.7654V47.0884H89.7011V58.9053H93.7949V47.0884H98.7307Z" fill="url(#paint0_linear_2202_25265)"/>
<rect x="0.478527" y="29.832" width="107.043" height="37.33" rx="18.665" stroke="#F9E12D" stroke-width="0.957053"/>
<path d="M90.8892 20.4463L88.3998 27.6792H83.2773L87.3466 30.5075L86.3891 34.5876L90.219 32.4084L97.6873 40.476L93.7617 31.2957L97.8788 27.6792H92.7084L90.8892 20.4463Z" fill="url(#paint1_radial_2202_25265)"/>
<path d="M77.5525 62.4067L76.4261 65.6793H74.1084L75.9496 66.959L75.5164 68.8051L77.2492 67.8191L80.6283 71.4693L78.8521 67.3156L80.715 65.6793H78.3756L77.5525 62.4067Z" fill="url(#paint2_radial_2202_25265)"/>
<path d="M78.2334 41.9805L78.6379 43.1557L79.4702 43.1557L78.809 43.6152L78.9646 44.2781L78.3423 43.9241L77.1289 45.2349L77.7667 43.7433L77.0978 43.1557L77.9379 43.1557L78.2334 41.9805Z" fill="url(#paint3_radial_2202_25265)"/>
<path d="M57.4361 56.4717L57.8406 57.6469L58.6729 57.6469L58.0117 58.1064L58.1673 58.7693L57.545 58.4153L56.3315 59.7261L56.9694 58.2345L56.3004 57.6469L57.1405 57.6469L57.4361 56.4717Z" fill="url(#paint4_radial_2202_25265)"/>
<path d="M28.3828 37.1841L29.2842 39.8032L31.1392 39.8032L29.6656 40.8274L30.0123 42.3049L28.6255 41.5157L25.9211 44.4371L27.3426 41.1128L25.8518 39.8032L27.724 39.8032L28.3828 37.1841Z" fill="url(#paint5_radial_2202_25265)"/>
<path d="M43.1341 0L44.7356 4.77357H49.9182L45.7254 7.7238L47.3269 12.4974L43.1341 9.54714L38.9414 12.4974L40.5429 7.7238L36.3501 4.77357H41.5326L43.1341 0Z" fill="url(#paint6_radial_2202_25265)"/>
<path d="M55.7725 1.4834L56.7291 4.33473H59.8247L57.3203 6.09695L58.2769 8.94827L55.7725 7.18606L53.2681 8.94827L54.2247 6.09695L51.7203 4.33473H54.8159L55.7725 1.4834Z" fill="url(#paint7_radial_2202_25265)"/>
<path d="M62.6665 14.9297L63.6231 17.781H66.7187L64.2143 19.5432L65.1709 22.3946L62.6665 20.6323L60.1621 22.3946L61.1187 19.5432L58.6143 17.781H61.7099L62.6665 14.9297Z" fill="url(#paint8_radial_2202_25265)"/>
<path d="M49.8366 12.3335L51.0941 16.0819H55.1636L51.8713 18.3985L53.1289 22.1469L49.8366 19.8302L46.5443 22.1469L47.8018 18.3985L44.5095 16.0819H48.579L49.8366 12.3335Z" fill="url(#paint9_radial_2202_25265)"/>
<path d="M56.5387 22.9038L57.7963 26.6522H61.8658L58.5735 28.9688L59.831 32.7172L56.5387 30.4006L53.2464 32.7172L54.504 28.9688L51.2116 26.6522H55.2812L56.5387 22.9038Z" fill="url(#paint10_radial_2202_25265)"/>
<path d="M31.1661 8.53174L34.2779 14.4665C9.30701 21.1801 2.77705 36.8144 0.239746 46.0874C1.48446 25.5013 22.1339 11.87 31.1661 8.53174Z" fill="url(#paint11_linear_2202_25265)"/>
<path d="M41.4346 16.7163L41.4346 23.2818C15.5342 22.4333 4.50382 34.1011 1.48415 40.5692C9.86205 20.5859 31.7845 17.2775 41.4346 16.7163Z" fill="url(#paint12_linear_2202_25265)"/>
<path d="M43.0156 25.3028L43.0157 31.8682C15.1293 29.164 6.46422 32.7804 1.00663 43.5371C5.028 24.2029 33.3655 25.8639 43.0156 25.3028Z" fill="url(#paint13_linear_2202_25265)"/>
<path d="M43.1492 24.2944L44.5694 28.4467L47.4917 28.4467L45.1702 30.0703L45.7165 32.4126L43.5315 31.1616L39.2709 35.7929L41.5105 30.5228L39.1617 28.4467L42.1113 28.4467L43.1492 24.2944Z" fill="url(#paint14_radial_2202_25265)"/>
<path d="M41.2332 14.3726L42.6534 18.5248L45.5757 18.5248L43.2542 20.1484L43.8004 22.4907L41.6155 21.2397L37.3549 25.8711L39.5945 20.6009L37.2457 18.5248L40.1953 18.5248L41.2332 14.3726Z" fill="url(#paint15_radial_2202_25265)"/>
<path d="M32.5203 6.86182L33.9405 11.0141L36.8628 11.0141L34.5413 12.6377L35.0875 14.98L32.9026 13.729L28.642 18.3603L30.8816 13.0902L28.5328 11.0141L31.4824 11.0141L32.5203 6.86182Z" fill="url(#paint16_radial_2202_25265)"/>
<defs>
<linearGradient id="paint0_linear_2202_25265" x1="53.9575" y1="38.1056" x2="53.9575" y2="58.8953" gradientUnits="userSpaceOnUse">
<stop stop-color="#FFF38B"/>
<stop offset="1" stop-color="#F9E12D"/>
</linearGradient>
<radialGradient id="paint1_radial_2202_25265" cx="0" cy="0" r="1" gradientUnits="userSpaceOnUse" gradientTransform="translate(90.5781 29.8584) rotate(90) scale(7.92841 5.77974)">
<stop stop-color="#FDFDF7"/>
<stop offset="1" stop-color="#F8E01E"/>
</radialGradient>
<radialGradient id="paint2_radial_2202_25265" cx="0" cy="0" r="1" gradientUnits="userSpaceOnUse" gradientTransform="translate(77.4117 66.6653) rotate(90) scale(3.58728 2.6151)">
<stop stop-color="#FDFDF7"/>
<stop offset="1" stop-color="#F8E01E"/>
</radialGradient>
<radialGradient id="paint3_radial_2202_25265" cx="0" cy="0" r="1" gradientUnits="userSpaceOnUse" gradientTransform="translate(78.284 43.5097) rotate(90) scale(1.2882 0.939087)">
<stop stop-color="#FDFDF7"/>
<stop offset="1" stop-color="#F8E01E"/>
</radialGradient>
<radialGradient id="paint4_radial_2202_25265" cx="0" cy="0" r="1" gradientUnits="userSpaceOnUse" gradientTransform="translate(57.4866 58.0009) rotate(90) scale(1.2882 0.939087)">
<stop stop-color="#FDFDF7"/>
<stop offset="1" stop-color="#F8E01E"/>
</radialGradient>
<radialGradient id="paint5_radial_2202_25265" cx="0" cy="0" r="1" gradientUnits="userSpaceOnUse" gradientTransform="translate(28.4955 40.5923) rotate(90) scale(2.87099 2.09293)">
<stop stop-color="#FDFDF7"/>
<stop offset="1" stop-color="#F8E01E"/>
</radialGradient>
<radialGradient id="paint6_radial_2202_25265" cx="0" cy="0" r="1" gradientUnits="userSpaceOnUse" gradientTransform="translate(43.1341 6.90838) rotate(90) scale(6.90838 7.13317)">
<stop stop-color="#FDF19E"/>
<stop offset="1" stop-color="#FAE659"/>
</radialGradient>
<radialGradient id="paint7_radial_2202_25265" cx="0" cy="0" r="1" gradientUnits="userSpaceOnUse" gradientTransform="translate(55.7725 5.60988) rotate(90) scale(4.12648 4.26075)">
<stop stop-color="#FDF19E"/>
<stop offset="1" stop-color="#FAE659"/>
</radialGradient>
<radialGradient id="paint8_radial_2202_25265" cx="0" cy="0" r="1" gradientUnits="userSpaceOnUse" gradientTransform="translate(62.6665 19.0562) rotate(90) scale(4.12648 4.26075)">
<stop stop-color="#FDF19E"/>
<stop offset="1" stop-color="#FAE659"/>
</radialGradient>
<radialGradient id="paint9_radial_2202_25265" cx="0" cy="0" r="1" gradientUnits="userSpaceOnUse" gradientTransform="translate(49.8366 17.7582) rotate(90) scale(5.4247 5.60121)">
<stop stop-color="#FDF19E"/>
<stop offset="1" stop-color="#FAE659"/>
</radialGradient>
<radialGradient id="paint10_radial_2202_25265" cx="0" cy="0" r="1" gradientUnits="userSpaceOnUse" gradientTransform="translate(56.5387 28.3285) rotate(90) scale(5.4247 5.60121)">
<stop stop-color="#FDF19E"/>
<stop offset="1" stop-color="#FAE659"/>
</radialGradient>
<linearGradient id="paint11_linear_2202_25265" x1="0.909976" y1="43.4909" x2="30.5698" y2="9.76543" gradientUnits="userSpaceOnUse">
<stop stop-color="#F9E12A"/>
<stop offset="1" stop-color="#FFF4AC"/>
</linearGradient>
<linearGradient id="paint12_linear_2202_25265" x1="40.4533" y1="16.7375" x2="2.55757" y2="40.8653" gradientUnits="userSpaceOnUse">
<stop stop-color="#FFF3A9"/>
<stop offset="1" stop-color="#F9E12A"/>
</linearGradient>
<linearGradient id="paint13_linear_2202_25265" x1="3.35239" y1="37.8342" x2="44.2058" y2="26.7594" gradientUnits="userSpaceOnUse">
<stop stop-color="#F9E12E"/>
<stop offset="1" stop-color="#FEF099"/>
</linearGradient>
<radialGradient id="paint14_radial_2202_25265" cx="0" cy="0" r="1" gradientUnits="userSpaceOnUse" gradientTransform="translate(43.3267 29.6977) rotate(90) scale(4.55149 3.29729)">
<stop stop-color="#FDFDF7"/>
<stop offset="1" stop-color="#F8E01E"/>
</radialGradient>
<radialGradient id="paint15_radial_2202_25265" cx="0" cy="0" r="1" gradientUnits="userSpaceOnUse" gradientTransform="translate(41.4107 19.7758) rotate(90) scale(4.55149 3.29729)">
<stop stop-color="#FDFDF7"/>
<stop offset="1" stop-color="#F8E01E"/>
</radialGradient>
<radialGradient id="paint16_radial_2202_25265" cx="0" cy="0" r="1" gradientUnits="userSpaceOnUse" gradientTransform="translate(32.6978 12.2651) rotate(90) scale(4.55149 3.29729)">
<stop stop-color="#FDFDF7"/>
<stop offset="1" stop-color="#F8E01E"/>
</radialGradient>
</defs>
</svg>
