<svg width="26" height="26" viewBox="0 0 26 26" fill="none" xmlns="http://www.w3.org/2000/svg">
<path d="M5.93833 2.15843C5.8424 2.03503 5.72132 1.93345 5.58312 1.86045C5.44492 1.78744 5.29277 1.74468 5.13677 1.735C4.98078 1.72532 4.8245 1.74894 4.67834 1.80429C4.53217 1.85964 4.39946 1.94547 4.28901 2.05605L2.60881 3.73789C1.82396 4.52437 1.53472 5.63747 1.87758 6.61407C3.30061 10.6563 5.61544 14.3263 8.65037 17.3518C11.6759 20.3867 15.3459 22.7015 19.388 24.1246C20.3646 24.4675 21.4777 24.1783 22.2642 23.3934L23.9444 21.7132C24.055 21.6027 24.1408 21.47 24.1962 21.3239C24.2515 21.1777 24.2751 21.0214 24.2654 20.8654C24.2558 20.7094 24.213 20.5573 24.14 20.4191C24.067 20.2809 23.9654 20.1598 23.842 20.0639L20.0933 17.1487C19.9614 17.0464 19.8081 16.9755 19.6448 16.9411C19.4816 16.9068 19.3126 16.91 19.1508 16.9504L15.5922 17.8393C15.1171 17.958 14.6195 17.9517 14.1476 17.821C13.6758 17.6903 13.2458 17.4396 12.8996 17.0934L8.90874 13.1009C8.56225 12.7549 8.31129 12.325 8.18029 11.8531C8.0493 11.3812 8.04274 10.8835 8.16126 10.4084L9.05173 6.84969C9.09221 6.68783 9.09539 6.5189 9.06105 6.35564C9.02671 6.19237 8.95574 6.03904 8.85349 5.90721L5.93833 2.15843ZM3.06217 0.830834C3.34653 0.546384 3.68815 0.325683 4.06434 0.183387C4.44053 0.0410905 4.8427 -0.0195454 5.24412 0.00550542C5.64555 0.0305563 6.03705 0.140721 6.39263 0.328683C6.74822 0.516646 7.05975 0.778107 7.30654 1.0957L10.2217 4.84286C10.7563 5.53022 10.9448 6.42557 10.7336 7.27055L9.84471 10.8292C9.79875 11.0135 9.80123 11.2066 9.85191 11.3897C9.90259 11.5728 9.99975 11.7396 10.1339 11.8741L14.1264 15.8666C14.2611 16.0011 14.4282 16.0984 14.6116 16.1491C14.795 16.1998 14.9884 16.2021 15.1729 16.1558L18.7299 15.267C19.1469 15.1627 19.5821 15.1546 20.0027 15.2433C20.4233 15.332 20.8182 15.5151 21.1576 15.7788L24.9047 18.694C26.2518 19.7421 26.3753 21.7327 25.1696 22.9368L23.4894 24.617C22.2869 25.8195 20.4897 26.3476 18.8144 25.7577C14.5265 24.249 10.6333 21.7942 7.42353 18.5754C4.20498 15.3661 1.7502 11.4734 0.241258 7.18605C-0.346974 5.51234 0.181135 3.71351 1.3836 2.51104L3.06379 0.830834H3.06217Z" fill="white"/>
</svg>
