<svg width="71" height="71" viewBox="0 0 71 71" fill="none" xmlns="http://www.w3.org/2000/svg">
<circle cx="35.5" cy="35.5" r="35" stroke="white"/>
<path d="M43.8348 43.8346L39.8991 39.8918L43.8348 43.8346ZM42.0802 34.6225C42.0802 36.6003 41.2945 38.4971 39.8959 39.8957C38.4974 41.2942 36.6006 42.0799 34.6227 42.0799C32.6449 42.0799 30.7481 41.2942 29.3495 39.8957C27.951 38.4971 27.1653 36.6003 27.1653 34.6225C27.1653 32.6446 27.951 30.7478 29.3495 29.3493C30.7481 27.9507 32.6449 27.165 34.6227 27.165C36.6006 27.165 38.4974 27.9507 39.8959 29.3493C41.2945 30.7478 42.0802 32.6446 42.0802 34.6225V34.6225Z" stroke="white" stroke-width="2" stroke-linecap="round"/>
</svg>
