<svg width="50" height="50" viewBox="0 0 50 50" fill="none" xmlns="http://www.w3.org/2000/svg">
<path d="M25 14C22.8244 14 20.6977 14.6451 18.8887 15.8538C17.0798 17.0625 15.6699 18.7805 14.8373 20.7905C14.0048 22.8005 13.7869 25.0122 14.2114 27.146C14.6358 29.2798 15.6834 31.2398 17.2218 32.7782C18.7602 34.3166 20.7202 35.3642 22.854 35.7886C24.9878 36.2131 27.1995 35.9952 29.2095 35.1627C31.2195 34.3301 32.9375 32.9202 34.1462 31.1113C35.3549 29.3023 36 27.1756 36 25C35.9967 22.0836 34.8367 19.2877 32.7745 17.2255C30.7123 15.1633 27.9164 14.0033 25 14ZM25 34C23.22 34 21.4799 33.4722 19.9999 32.4832C18.5198 31.4943 17.3663 30.0887 16.6851 28.4441C16.0039 26.7996 15.8257 24.99 16.1729 23.2442C16.5202 21.4984 17.3774 19.8947 18.636 18.636C19.8947 17.3774 21.4984 16.5202 23.2442 16.1729C24.99 15.8257 26.7996 16.0039 28.4441 16.6851C30.0887 17.3663 31.4943 18.5198 32.4832 19.9999C33.4722 21.4799 34 23.22 34 25C33.9974 27.3861 33.0483 29.6738 31.361 31.361C29.6738 33.0483 27.3861 33.9974 25 34ZM36 1H14C10.5534 1.0039 7.24905 2.3748 4.81192 4.81192C2.3748 7.24905 1.0039 10.5534 1 14V36C1.0039 39.4466 2.3748 42.7509 4.81192 45.1881C7.24905 47.6252 10.5534 48.9961 14 49H36C39.4466 48.9961 42.7509 47.6252 45.1881 45.1881C47.6252 42.7509 48.9961 39.4466 49 36V14C48.9961 10.5534 47.6252 7.24905 45.1881 4.81192C42.7509 2.3748 39.4466 1.0039 36 1ZM47 36C46.9967 38.9164 45.8367 41.7123 43.7745 43.7745C41.7123 45.8367 38.9164 46.9967 36 47H14C11.0836 46.9967 8.28766 45.8367 6.22548 43.7745C4.1633 41.7123 3.00331 38.9164 3 36V14C3.00331 11.0836 4.1633 8.28766 6.22548 6.22548C8.28766 4.1633 11.0836 3.00331 14 3H36C38.9164 3.00331 41.7123 4.1633 43.7745 6.22548C45.8367 8.28766 46.9967 11.0836 47 14V36ZM40 12C40 12.3956 39.8827 12.7822 39.6629 13.1111C39.4432 13.44 39.1308 13.6964 38.7654 13.8478C38.3999 13.9991 37.9978 14.0387 37.6098 13.9616C37.2219 13.8844 36.8655 13.6939 36.5858 13.4142C36.3061 13.1345 36.1156 12.7781 36.0384 12.3902C35.9613 12.0022 36.0009 11.6001 36.1522 11.2346C36.3036 10.8692 36.56 10.5568 36.8889 10.3371C37.2178 10.1173 37.6044 10 38 10C38.5302 10.0007 39.0386 10.2116 39.4135 10.5865C39.7884 10.9614 39.9993 11.4698 40 12Z" fill="url(#paint0_linear_1335_1725)" stroke="url(#paint1_linear_1335_1725)"/>
<defs>
<linearGradient id="paint0_linear_1335_1725" x1="1" y1="1" x2="52.6221" y2="6.07239" gradientUnits="userSpaceOnUse">
<stop stop-color="#FF00C7"/>
<stop offset="1" stop-color="#7000FF"/>
</linearGradient>
<linearGradient id="paint1_linear_1335_1725" x1="1" y1="1" x2="52.6221" y2="6.07239" gradientUnits="userSpaceOnUse">
<stop stop-color="#FF00C7"/>
<stop offset="1" stop-color="#7000FF"/>
</linearGradient>
</defs>
</svg>
