<svg width="18" height="21" viewBox="0 0 18 21" fill="none" xmlns="http://www.w3.org/2000/svg">
<path d="M12.2143 5.75H12.7143V5.25V4.59375C12.7143 3.59419 12.3254 2.63354 11.63 1.92367C10.9343 1.21344 9.98846 0.8125 9 0.8125C8.01154 0.8125 7.06571 1.21344 6.36998 1.92367C5.67459 2.63354 5.28571 3.59419 5.28571 4.59375V5.25V5.75H5.78571H12.2143ZM13 5.25V5.75H13.5H17.5V18.375C17.5 18.9419 17.2793 19.4835 16.8897 19.8813C16.5004 20.2787 15.9746 20.5 15.4286 20.5H2.57143C2.02542 20.5 1.49963 20.2787 1.11033 19.8813C0.720691 19.4835 0.5 18.9419 0.5 18.375V5.75H4.5H5V5.25V4.59375C5 3.50473 5.42388 2.46234 6.1752 1.69537C6.92618 0.928746 7.9425 0.5 9 0.5C10.0575 0.5 11.0738 0.928746 11.8248 1.69537C12.5761 2.46234 13 3.50473 13 4.59375V5.25ZM1.28571 6.0625H0.785714V6.5625V18.375C0.785714 18.8524 0.9714 19.3123 1.30511 19.653C1.63917 19.994 2.09446 20.1875 2.57143 20.1875H15.4286C15.9055 20.1875 16.3608 19.994 16.6949 19.653C17.0286 19.3123 17.2143 18.8524 17.2143 18.375V6.5625V6.0625H16.7143H1.28571Z" stroke="white"/>
</svg>
