<svg width="30" height="30" viewBox="0 0 30 30" fill="none" xmlns="http://www.w3.org/2000/svg">
<circle cx="15" cy="15" r="15" fill="url(#paint0_linear_1268_3833)"/>
<path d="M15.375 24C10.1912 24 6 19.8088 6 14.625C6 9.44118 10.1912 5.25 15.375 5.25C20.5588 5.25 24.75 9.44118 24.75 14.625C24.75 19.8088 20.5588 24 15.375 24ZM15.375 6.35294C10.7978 6.35294 7.10294 10.0478 7.10294 14.625C7.10294 19.2022 10.7978 22.8971 15.375 22.8971C19.9522 22.8971 23.6471 19.2022 23.6471 14.625C23.6471 10.0478 19.9522 6.35294 15.375 6.35294Z" fill="white"/>
<path d="M18.2975 19.4227L14.8232 15.9484V9.66162H15.9262V15.5072L19.0696 18.6506L18.2975 19.4227Z" fill="white"/>
<defs>
<linearGradient id="paint0_linear_1268_3833" x1="0" y1="0" x2="32.2638" y2="3.17024" gradientUnits="userSpaceOnUse">
<stop stop-color="#FF00C7"/>
<stop offset="1" stop-color="#7000FF"/>
</linearGradient>
</defs>
</svg>
