<svg width="30" height="30" viewBox="0 0 30 30" fill="none" xmlns="http://www.w3.org/2000/svg">
<circle cx="15" cy="15" r="15" fill="url(#paint0_linear_1268_3836)"/>
<path d="M16.4278 8.7128L16.3771 13.1972L19.9168 10.4436L17.2399 14.0417L21.7222 13.8946L17.4416 15.2321L21.1543 17.7477L16.9051 16.3137L18.4301 20.5311L15.8353 16.8733L14.5901 21.1817L14.6408 16.6973L11.101 19.4509L13.7779 15.8528L9.29569 15.9999L13.5763 14.6624L9.86358 12.1468L14.1128 13.5808L12.5878 9.36338L15.1826 13.0211L16.4278 8.7128Z" fill="white"/>
<path d="M15.1377 15.0002C16.8323 10.7638 19.4227 9.31168 23.6107 8.64551" stroke="white" stroke-width="0.3"/>
<path d="M15.5606 15.0007C13.3963 10.9838 13.018 9.06925 14.2894 5.25654" stroke="white" stroke-width="0.3"/>
<path d="M15.1382 15.0001C11.7667 15.552 7.0892 14.153 5.818 11.1875" stroke="white" stroke-width="0.3"/>
<path d="M15.5612 15.0005C13.731 17.8853 10.9012 19.6606 6.66519 19.6608" stroke="white" stroke-width="0.3"/>
<path d="M15.5613 15.0002C16.9123 18.1382 17.2557 20.0838 15.9846 24.7441" stroke="white" stroke-width="0.3"/>
<path d="M15.9855 15.0008C19.3739 15.0008 21.0686 15.4243 24.4578 18.8136" stroke="white" stroke-width="0.3"/>
<path d="M24.4579 16.2715L24.7014 18.064L25.952 16.7569L25.0954 18.3502L26.8754 18.0279L25.2459 18.8134L26.8754 19.5989L25.0954 19.2765L25.952 20.8698L24.7014 19.5628L24.4579 21.3553L24.2144 19.5628L22.9638 20.8698L23.8204 19.2765L22.0404 19.5989L23.6699 18.8134L22.0404 18.0279L23.8204 18.3502L22.9638 16.7569L24.2144 18.064L24.4579 16.2715Z" fill="white"/>
<path d="M23.6093 6.10352L23.8528 7.89599L25.1034 6.58897L24.2468 8.18224L26.0268 7.85992L24.3973 8.64541L26.0268 9.4309L24.2468 9.10858L25.1034 10.7018L23.8528 9.39483L23.6093 11.1873L23.3658 9.39483L22.1152 10.7018L22.9718 9.10858L21.1918 9.4309L22.8213 8.64541L21.1918 7.85992L22.9718 8.18224L22.1152 6.58897L23.3658 7.89599L23.6093 6.10352Z" fill="white"/>
<path d="M14.2899 2.71436L14.5334 4.50683L15.784 3.19981L14.9274 4.79308L16.7074 4.47076L15.0779 5.25625L16.7074 6.04173L14.9274 5.71941L15.784 7.31268L14.5334 6.00567L14.2899 7.79814L14.0464 6.00567L12.7959 7.31268L13.6524 5.71941L11.8725 6.04173L13.502 5.25625L11.8725 4.47076L13.6524 4.79308L12.7959 3.19981L14.0464 4.50683L14.2899 2.71436Z" fill="white"/>
<path d="M5.81728 8.64551L6.06078 10.438L7.31137 9.13097L6.45478 10.7242L8.23477 10.4019L6.60527 11.1874L8.23477 11.9729L6.45478 11.6506L7.31137 13.2438L6.06078 11.9368L5.81728 13.7293L5.57378 11.9368L4.3232 13.2438L5.17979 11.6506L3.3998 11.9729L5.0293 11.1874L3.3998 10.4019L5.17979 10.7242L4.3232 9.13097L5.57378 10.438L5.81728 8.64551Z" fill="white"/>
<path d="M6.66396 17.1187L6.90746 18.9111L8.15805 17.6041L7.30146 19.1974L9.08144 18.8751L7.45195 19.6605L9.08144 20.446L7.30146 20.1237L8.15805 21.717L6.90746 20.41L6.66396 22.2024L6.42046 20.41L5.16988 21.717L6.02647 20.1237L4.24648 20.446L5.87598 19.6605L4.24648 18.8751L6.02647 19.1974L5.16988 17.6041L6.42046 18.9111L6.66396 17.1187Z" fill="white"/>
<path d="M15.9862 22.2026L16.2297 23.9951L17.4803 22.6881L16.6237 24.2814L18.4037 23.959L16.7742 24.7445L18.4037 25.53L16.6237 25.2077L17.4803 26.801L16.2297 25.4939L15.9862 27.2864L15.7427 25.4939L14.4921 26.801L15.3487 25.2077L13.5687 25.53L15.1982 24.7445L13.5687 23.959L15.3487 24.2814L14.4921 22.6881L15.7427 23.9951L15.9862 22.2026Z" fill="white"/>
<defs>
<linearGradient id="paint0_linear_1268_3836" x1="0" y1="0" x2="32.2638" y2="3.17024" gradientUnits="userSpaceOnUse">
<stop stop-color="#FF00C7"/>
<stop offset="1" stop-color="#7000FF"/>
</linearGradient>
</defs>
</svg>
