<svg width="30" height="30" viewBox="0 0 30 30" fill="none" xmlns="http://www.w3.org/2000/svg">
<circle cx="15" cy="15" r="15" fill="url(#paint0_linear_1268_3835)"/>
<path d="M14.6464 23.6036C14.8417 23.7988 15.1583 23.7988 15.3536 23.6036L18.5355 20.4216C18.7308 20.2263 18.7308 19.9097 18.5355 19.7145C18.3403 19.5192 18.0237 19.5192 17.8284 19.7145L15 22.5429L12.1716 19.7145C11.9763 19.5192 11.6597 19.5192 11.4645 19.7145C11.2692 19.9097 11.2692 20.2263 11.4645 20.4216L14.6464 23.6036ZM15.3536 9.39644C15.1583 9.20118 14.8417 9.20118 14.6464 9.39644L11.4645 12.5784C11.2692 12.7737 11.2692 13.0903 11.4645 13.2855C11.6597 13.4808 11.9763 13.4808 12.1716 13.2855L15 10.4571L17.8284 13.2855C18.0237 13.4808 18.3403 13.4808 18.5355 13.2855C18.7308 13.0903 18.7308 12.7737 18.5355 12.5784L15.3536 9.39644ZM15.5 23.25L15.5 9.75L14.5 9.75L14.5 23.25L15.5 23.25Z" fill="white"/>
<line x1="6.75" y1="24" x2="23.25" y2="24" stroke="white" stroke-width="1.5"/>
<path d="M17.2803 7.125C17.2803 8.36764 16.2729 9.375 15.0303 9.375C13.7876 9.375 12.7803 8.36764 12.7803 7.125C12.7803 5.88236 13.7876 4.875 15.0303 4.875C16.2729 4.875 17.2803 5.88236 17.2803 7.125Z" fill="white"/>
<defs>
<linearGradient id="paint0_linear_1268_3835" x1="0" y1="0" x2="32.2638" y2="3.17024" gradientUnits="userSpaceOnUse">
<stop stop-color="#FF00C7"/>
<stop offset="1" stop-color="#7000FF"/>
</linearGradient>
</defs>
</svg>
