<svg width="55" height="55" viewBox="0 0 55 55" fill="none" xmlns="http://www.w3.org/2000/svg">
<circle cx="27.5" cy="27.5" r="27.5" fill="url(#paint0_linear_179_1227)"/>
<path d="M24.6913 14.0704C25.4837 13.3668 26.5107 12.9851 27.5703 13.0004C28.6033 13.0144 29.5513 13.4004 30.2843 14.0294C30.9658 14.6125 31.4459 15.3957 31.6563 16.2674C31.7323 16.5874 31.7723 16.9194 31.7703 17.2604C31.7703 19.1404 30.5603 20.7304 28.8803 21.3004C28.7665 21.3379 28.6436 21.3366 28.5306 21.2968C28.4176 21.257 28.321 21.1808 28.2559 21.0803C28.1908 20.9798 28.1608 20.8605 28.1707 20.7411C28.1805 20.6217 28.2296 20.509 28.3103 20.4204C28.8103 19.8504 29.1103 19.1104 29.1203 18.2904C29.1214 17.8654 29.0386 17.4443 28.8766 17.0514C28.7146 16.6584 28.4766 16.3013 28.1763 16.0004H25.8473C24.1481 16.0082 22.497 16.566 21.1413 17.5904C18.7883 19.3634 17.4993 22.3264 17.7913 25.3784L18.0393 27.6214C18.0632 27.8388 18.0153 28.058 17.9027 28.2454C17.7902 28.4329 17.6194 28.5783 17.4163 28.6594C16.9589 28.842 16.574 29.1696 16.3207 29.5919C16.0673 30.0142 15.9594 30.508 16.0135 30.9975C16.0677 31.487 16.2808 31.9452 16.6204 32.302C16.9599 32.6587 17.4071 32.8942 17.8933 32.9724C18.1054 33.0061 18.301 33.1071 18.4512 33.2606C18.6014 33.414 18.6982 33.6117 18.7273 33.8244C19.0243 36.0004 20.1853 37.5124 21.8033 38.5074C23.4503 39.5194 25.5873 40.0004 27.7503 40.0004C29.9133 40.0004 32.0503 39.5194 33.6973 38.5074C35.3153 37.5124 36.4763 36.0004 36.7733 33.8244C36.8024 33.6117 36.8993 33.414 37.0495 33.2606C37.1997 33.1071 37.3953 33.0061 37.6073 32.9724C38.0941 32.8949 38.5419 32.6597 38.882 32.303C39.2221 31.9462 39.4357 31.4877 39.4899 30.9978C39.5441 30.5079 39.4359 30.0137 39.1819 29.5913C38.928 29.1688 38.5424 28.8414 38.0843 28.6594C37.8813 28.5783 37.7104 28.4329 37.5979 28.2454C37.4854 28.058 37.4374 27.8388 37.4613 27.6214L37.7093 25.3784C38.0013 22.3264 36.7123 19.3634 34.3593 17.5904C33.8567 17.214 33.3121 16.8972 32.7363 16.6464C32.6368 15.7833 32.3225 14.9589 31.8223 14.2484C33.1751 14.5629 34.4475 15.1558 35.5583 15.9894L35.5613 15.9914C38.4913 18.1984 40.0583 21.8514 39.6993 25.5774L39.6983 25.5914L39.5243 27.1594C40.2004 27.5877 40.7418 28.1982 41.0863 28.9205C41.4308 29.6428 41.5644 30.4478 41.4717 31.2427C41.379 32.0376 41.0639 32.7902 40.5625 33.4139C40.061 34.0376 39.3937 34.5071 38.6373 34.7684C38.1133 37.2504 36.6473 39.0414 34.7453 40.2104C32.7033 41.4664 30.1753 42.0004 27.7503 42.0004C25.3243 42.0004 22.7973 41.4664 20.7553 40.2104C18.8533 39.0404 17.3883 37.2504 16.8623 34.7684C16.106 34.507 15.4388 34.0374 14.9375 33.4136C14.4361 32.7898 14.1211 32.0372 14.0285 31.2423C13.936 30.4474 14.0697 29.6426 14.4142 28.9203C14.7588 28.198 15.3003 27.5877 15.9763 27.1594L15.8023 25.5914L15.8013 25.5774C15.4413 21.8524 17.0093 18.1974 19.9393 15.9914L19.9423 15.9894C21.3302 14.9451 22.9677 14.2831 24.6913 14.0694V14.0704Z" fill="white"/>
<path d="M24.7354 34.2304C25.6629 34.7167 26.6953 34.9684 27.7424 34.9634C28.7957 34.9664 29.8342 34.715 30.7694 34.2304C31.0684 34.0804 31.3764 34.4214 31.1974 34.7024C30.8268 35.2799 30.3172 35.7552 29.7154 36.0848C29.1135 36.4145 28.4386 36.588 27.7524 36.5894C27.066 36.5893 26.3906 36.4163 25.7886 36.0866C25.1865 35.7568 24.6772 35.2808 24.3074 34.7024C24.1174 34.4124 24.4374 34.0704 24.7354 34.2304ZM27.7524 33.6504C28.2354 33.6504 28.6664 33.4054 28.9124 33.0374C28.964 32.9614 28.9938 32.8728 28.9987 32.7811C29.0036 32.6894 28.9833 32.5981 28.94 32.5171C28.8968 32.4361 28.8323 32.3685 28.7534 32.3214C28.6745 32.2744 28.5843 32.2499 28.4924 32.2504H27.0134C26.6034 32.2504 26.3564 32.7104 26.5924 33.0374C26.8384 33.4154 27.2704 33.6504 27.7524 33.6504ZM22.4604 28.0004C20.8504 28.0004 19.4904 29.1264 19.1204 30.6484C19.0104 31.0844 19.3404 31.5004 19.7804 31.5004H20.8504C20.7613 31.1742 20.7485 30.8318 20.8132 30.4998C20.8778 30.1679 21.0182 29.8553 21.2232 29.5864C21.4283 29.3174 21.6926 29.0994 21.9957 28.9492C22.2987 28.7991 22.6322 28.7208 22.9704 28.7204C24.1904 28.7204 25.1704 29.7104 25.1804 30.9204C25.1804 31.1204 25.1504 31.3104 25.1004 31.5004H25.2804C25.6304 31.5004 25.9104 31.1754 25.8404 30.8204C25.5304 29.2174 24.1304 28.0004 22.4604 28.0004V28.0004ZM32.4604 28.0004C34.0704 28.0004 35.4304 29.1264 35.8004 30.6484C35.8262 30.7491 35.8286 30.8544 35.8074 30.9561C35.7863 31.0579 35.7423 31.1535 35.6786 31.2357C35.615 31.3179 35.5334 31.3844 35.4401 31.4303C35.3469 31.4762 35.2444 31.5002 35.1404 31.5004H34.0704C34.1596 31.1742 34.1723 30.8318 34.1077 30.4998C34.043 30.1679 33.9027 29.8553 33.6976 29.5864C33.4926 29.3174 33.2282 29.0994 32.9252 28.9492C32.6222 28.7991 32.2886 28.7208 31.9504 28.7204C30.7304 28.7204 29.7404 29.7104 29.7404 30.9204C29.7404 31.1204 29.7704 31.3104 29.8204 31.5004H29.6404C29.5564 31.5 29.4734 31.4811 29.3975 31.445C29.3216 31.4089 29.2545 31.3566 29.201 31.2917C29.1476 31.2268 29.1091 31.1509 29.0882 31.0695C29.0674 30.988 29.0647 30.903 29.0804 30.8204C29.3904 29.2174 30.7804 28.0004 32.4604 28.0004V28.0004Z" fill="white"/>
<path d="M24.2305 30.9205C24.2305 30.2205 23.6705 29.6605 22.9705 29.6605C22.6975 29.6605 22.4465 29.7455 22.2415 29.8905C22.2735 29.9566 22.2862 30.0304 22.278 30.1035C22.2699 30.1765 22.2413 30.2457 22.1955 30.3032C22.1497 30.3607 22.0887 30.4041 22.0193 30.4284C21.95 30.4526 21.8752 30.4568 21.8035 30.4405C21.7344 30.6101 21.7028 30.7926 21.7109 30.9756C21.719 31.1586 21.7667 31.3376 21.8505 31.5005H24.0805C24.1705 31.3305 24.2305 31.1305 24.2305 30.9205V30.9205ZM31.4905 29.7465C31.6335 29.6915 31.7885 29.6605 31.9505 29.6605C32.6505 29.6605 33.2105 30.2205 33.2105 30.9205C33.2105 31.1305 33.1605 31.3305 33.0705 31.5005H30.8405C30.7405 31.3305 30.6905 31.1305 30.6905 30.9205C30.6905 30.6595 30.7685 30.4175 30.9025 30.2165C30.9264 30.2714 30.9626 30.3202 31.0083 30.3589C31.0541 30.3976 31.1081 30.4253 31.1663 30.4398C31.2244 30.4542 31.2851 30.4551 31.3437 30.4423C31.4022 30.4295 31.457 30.4033 31.5038 30.3659C31.5506 30.3285 31.5882 30.2808 31.6136 30.2265C31.639 30.1722 31.6515 30.1128 31.6502 30.0529C31.649 29.993 31.6339 29.9342 31.6062 29.881C31.5785 29.8279 31.5389 29.7818 31.4905 29.7465V29.7465ZM21.3985 26.5515C21.9195 26.3665 22.6665 26.2255 23.6535 26.3185C23.7201 26.327 23.7876 26.3221 23.8522 26.304C23.9168 26.2859 23.9771 26.255 24.0295 26.2131C24.0819 26.1712 24.1254 26.1192 24.1572 26.0602C24.1891 26.0012 24.2088 25.9364 24.2151 25.8696C24.2214 25.8028 24.2142 25.7354 24.194 25.6715C24.1737 25.6075 24.1408 25.5483 24.0971 25.4974C24.0535 25.4464 24.0001 25.4047 23.94 25.3749C23.88 25.345 23.8145 25.3275 23.7475 25.3235C22.6145 25.2165 21.7215 25.3755 21.0625 25.6095C20.9376 25.654 20.8355 25.7464 20.7787 25.8662C20.7219 25.986 20.715 26.1235 20.7595 26.2485C20.8041 26.3734 20.8964 26.4755 21.0163 26.5323C21.1361 26.5891 21.2736 26.596 21.3985 26.5515V26.5515ZM33.9685 25.6105C33.3095 25.3755 32.4165 25.2165 31.2835 25.3235C31.2166 25.3275 31.1511 25.345 31.0911 25.3749C31.031 25.4047 30.9776 25.4464 30.9339 25.4974C30.8903 25.5483 30.8574 25.6075 30.8371 25.6715C30.8168 25.7354 30.8096 25.8028 30.816 25.8696C30.8223 25.9364 30.8419 26.0012 30.8738 26.0602C30.9057 26.1192 30.9491 26.1712 31.0015 26.2131C31.0539 26.255 31.1142 26.2859 31.1788 26.304C31.2434 26.3221 31.311 26.327 31.3775 26.3185C32.3645 26.2255 33.1115 26.3665 33.6325 26.5515C33.7575 26.596 33.895 26.5891 34.0148 26.5323C34.1346 26.4755 34.227 26.3734 34.2715 26.2485C34.3161 26.1235 34.3092 25.986 34.2524 25.8662C34.1956 25.7464 34.0935 25.654 33.9685 25.6095V25.6105Z" fill="white"/>
<defs>
<linearGradient id="paint0_linear_179_1227" x1="0" y1="0" x2="59.1504" y2="5.81211" gradientUnits="userSpaceOnUse">
<stop stop-color="#FF00C7"/>
<stop offset="1" stop-color="#7000FF"/>
</linearGradient>
</defs>
</svg>
