<svg width="55" height="55" viewBox="0 0 55 55" fill="none" xmlns="http://www.w3.org/2000/svg">
<circle cx="27.5" cy="27.5" r="27.5" fill="url(#paint0_linear_179_1085)"/>
<path fill-rule="evenodd" clip-rule="evenodd" d="M27.5 33.4542C33.0269 32.3313 36.7 27.5719 36.7 21.7459C36.7 19.2537 35.7307 16.8636 34.0054 15.1014C32.28 13.3392 29.94 12.3492 27.5 12.3492C25.06 12.3492 22.72 13.3392 20.9946 15.1014C19.2693 16.8636 18.3 19.2537 18.3 21.7459C18.3 27.5719 21.9731 32.3313 27.5 33.4542ZM39 21.7459C39 28.4105 34.8853 34.0251 28.604 35.6084L29.1652 36.7525C29.2335 36.892 29.2448 37.0536 29.1965 37.2016C29.1481 37.3497 29.0442 37.472 28.9076 37.5418C28.771 37.6116 28.6128 37.6231 28.4678 37.5737C28.3229 37.5244 28.2031 37.4183 28.1348 37.2787L28.1164 37.2388C28.1348 37.4972 28.1624 37.7133 28.2015 37.92C28.3257 38.5543 28.5718 39.0664 29.1652 40.2762C29.8276 41.6341 29.7057 42.9778 29.34 44.1031C28.9789 45.2048 28.3694 46.1398 27.9876 46.7224L27.9784 46.7388C27.9364 46.803 27.8825 46.8581 27.8196 46.901C27.7568 46.9438 27.6863 46.9737 27.6122 46.9887C27.5381 47.0038 27.4618 47.0038 27.3877 46.9887C27.3136 46.9736 27.2431 46.9438 27.1803 46.9009C27.1175 46.8581 27.0635 46.803 27.0216 46.7388C26.9796 46.6746 26.9504 46.6026 26.9357 46.5269C26.9209 46.4512 26.9209 46.3733 26.9357 46.2976C26.9504 46.2219 26.9796 46.1499 27.0216 46.0858C27.408 45.4938 27.9416 44.6763 28.2475 43.7295C28.5534 42.7993 28.6224 41.7938 28.1348 40.8025L28.1049 40.7367C27.5529 39.6091 27.2309 38.956 27.0745 38.1479C27.0101 37.7989 26.9701 37.4456 26.9549 37.0908L26.8629 37.2787C26.8294 37.3483 26.7828 37.4104 26.7257 37.4614C26.6686 37.5125 26.6022 37.5515 26.5303 37.5763C26.4584 37.601 26.3824 37.6109 26.3067 37.6055C26.231 37.6001 26.1571 37.5794 26.0892 37.5447C26.0214 37.51 25.961 37.4619 25.9114 37.4032C25.8618 37.3445 25.8242 37.2764 25.8005 37.2027C25.7768 37.1291 25.7677 37.0514 25.7736 36.9741C25.7795 36.8968 25.8003 36.8215 25.8348 36.7525L26.396 35.6084C20.1147 34.0251 16 28.4105 16 21.7459C16 18.6307 17.2116 15.6431 19.3683 13.4403C21.5249 11.2375 24.45 10 27.5 10C30.55 10 33.4751 11.2375 35.6317 13.4403C37.7884 15.6431 39 18.6307 39 21.7459ZM23.0426 20.5831C23.2476 19.7661 23.6638 19.0204 24.2477 18.4241C24.8316 17.8277 25.5616 17.4026 26.3615 17.1932C26.9779 17.0334 27.5 16.5213 27.5 15.873C27.5 15.2246 26.9802 14.689 26.3546 14.7947C24.9406 15.0391 23.6361 15.727 22.6222 16.763C21.6083 17.799 20.9353 19.1316 20.6966 20.576C20.5908 21.215 21.1152 21.7459 21.75 21.7459C22.3848 21.7459 22.8862 21.2126 23.0426 20.5831Z" fill="white"/>
<defs>
<linearGradient id="paint0_linear_179_1085" x1="0" y1="0" x2="59.1504" y2="5.81211" gradientUnits="userSpaceOnUse">
<stop stop-color="#FF00C7"/>
<stop offset="1" stop-color="#7000FF"/>
</linearGradient>
</defs>
</svg>
