<svg width="54" height="54" viewBox="0 0 54 54" fill="none" xmlns="http://www.w3.org/2000/svg">
<circle cx="27" cy="27" r="27" fill="url(#paint0_linear_179_1256)"/>
<path d="M12 24.9527C12 23.3878 12.5109 21.9893 13.5156 20.7573C14.5203 19.5252 15.7974 18.7428 17.347 18.4098C17.7728 16.5451 18.7434 14.9968 20.276 13.7981C21.8086 12.5994 23.5455 12 25.5208 12C27.4281 12 29.148 12.5827 30.6635 13.7481C32.1791 14.9135 33.1497 16.4119 33.6095 18.2266H34.0693C35.9765 18.2266 37.6113 18.8759 38.9736 20.1912C40.3188 21.4898 41 23.0881 41 24.9361C41 25.935 40.7957 26.884 40.3699 27.7664C39.9442 28.6488 39.3652 29.4146 38.616 30.0473V30.0972C38.616 31.0795 38.2924 31.9619 37.6624 32.7444C37.0323 33.5269 36.2319 34.0097 35.2783 34.2261C35.0399 35.2583 34.512 36.1407 33.7287 36.8566C32.9454 37.5725 32.0088 38.022 30.953 38.1885C31.4469 38.7546 31.6853 39.3872 31.6853 40.0698C31.6853 40.869 31.3958 41.5516 30.8168 42.1343C30.2378 42.7003 29.5396 43 28.7223 43C27.9049 43 27.2067 42.717 26.6277 42.1343C26.0487 41.5682 25.7592 40.869 25.7592 40.0698C25.7592 39.7535 25.8103 39.4372 25.9295 39.1208H25.7592C24.7716 39.1208 23.9201 38.7712 23.2049 38.072C22.4897 37.3727 22.1321 36.5403 22.1321 35.5747C22.1321 34.9087 22.3024 34.3093 22.643 33.7932C21.7575 33.3104 21.1274 32.6278 20.7358 31.7121H18.5561V31.6955C16.734 31.579 15.1844 30.8797 13.9072 29.5811C12.6301 28.2825 12 26.7508 12 24.9527ZM14.384 24.5365C14.384 25.8684 14.8608 27.0005 15.8144 27.9329C16.7681 28.8652 17.926 29.3314 19.2713 29.3314C20.1057 29.3314 20.889 29.1482 21.6042 28.7653C21.8086 29.9973 22.4046 31.0295 23.3752 31.862C24.3459 32.6944 25.5038 33.094 26.815 33.094C28.2965 33.094 29.5567 32.5779 30.5954 31.5623C31.2936 32.3614 32.1621 32.7444 33.2178 32.7444C34.1885 32.7444 35.0059 32.4114 35.7041 31.7454C36.3852 31.0795 36.7258 30.2637 36.7258 29.3147C37.4069 28.8652 37.9518 28.2991 38.3435 27.5832C38.7352 26.884 38.9395 26.1182 38.9395 25.3024C38.9395 23.9871 38.4627 22.855 37.4921 21.9393C36.5214 21.0236 35.3635 20.5575 34.0012 20.5575C33.0476 20.5575 32.1791 20.8072 31.3958 21.29C31.4979 20.8904 31.532 20.4409 31.532 19.9748C31.532 18.3765 30.953 17.0113 29.778 15.8792C28.6031 14.747 27.1897 14.1976 25.5379 14.1976C23.9372 14.1976 22.5578 14.747 21.3999 15.8126C20.2419 16.8781 19.6289 18.21 19.5778 19.7583H19.2883C17.943 19.7583 16.8021 20.2245 15.8315 21.1568C14.8608 22.0892 14.384 23.2379 14.384 24.5365Z" fill="white"/>
<defs>
<linearGradient id="paint0_linear_179_1256" x1="0" y1="0" x2="58.0749" y2="5.70643" gradientUnits="userSpaceOnUse">
<stop stop-color="#FF00C7"/>
<stop offset="1" stop-color="#7000FF"/>
</linearGradient>
</defs>
</svg>
