<svg width="55" height="55" viewBox="0 0 55 55" fill="none" xmlns="http://www.w3.org/2000/svg">
<circle cx="27.5" cy="27.5" r="27.5" fill="url(#paint0_linear_179_436)"/>
<path d="M27.5002 9.70587L28.8068 21.7752L35.2207 11.468L31.1613 22.909L41.4122 16.4055L32.7907 24.9522L44.8482 23.5404L33.3722 27.5L44.8482 31.4596L32.7907 30.0478L41.4122 38.5944L31.1613 32.0909L35.2207 43.5319L28.8068 33.2248L27.5002 45.2941L26.1935 33.2248L19.7796 43.5319L23.839 32.0909L13.5882 38.5944L22.2096 30.0478L10.1522 31.4596L21.6281 27.5L10.1522 23.5404L22.2096 24.9522L13.5882 16.4055L23.839 22.909L19.7796 11.468L26.1935 21.7752L27.5002 9.70587Z" fill="white"/>
<path d="M35.5881 7.27942L35.786 10.4561L37.3427 7.67991L36.1428 10.6279L38.7499 8.80207L36.3897 10.9375L39.5308 10.4236L36.4778 11.3235L39.5308 12.2234L36.3897 11.7096L38.7499 13.845L36.1428 12.0191L37.3427 14.9672L35.786 12.1909L35.5881 15.3677L35.3901 12.1909L33.8334 14.9672L35.0333 12.0191L32.4262 13.845L34.7865 11.7096L31.6453 12.2234L34.6984 11.3235L31.6453 10.4236L34.7865 10.9375L32.4262 8.80207L35.0333 10.6279L33.8334 7.67991L35.3901 10.4561L35.5881 7.27942Z" fill="white"/>
<path d="M42.0588 12.1324L42.2567 15.3091L43.8134 12.5328L42.6135 15.4809L45.2206 13.655L42.8604 15.7904L46.0015 15.2766L42.9485 16.1765L46.0015 17.0764L42.8604 16.5625L45.2206 18.6979L42.6135 16.8721L43.8134 19.8201L42.2567 17.0439L42.0588 20.2206L41.8608 17.0439L40.3041 19.8201L41.504 16.8721L38.8969 18.6979L41.2572 16.5625L38.116 17.0764L41.1691 16.1765L38.116 15.2766L41.2572 15.7904L38.8969 13.655L41.504 15.4809L40.3041 12.5328L41.8608 15.3091L42.0588 12.1324Z" fill="white"/>
<path d="M44.4855 19.4118L44.6835 22.5885L46.2402 19.8123L45.0402 22.7603L47.6473 20.9344L45.2871 23.0699L48.4282 22.556L45.3752 23.4559L48.4282 24.3558L45.2871 23.8419L47.6473 25.9774L45.0402 24.1515L46.2402 27.0995L44.6835 24.3233L44.4855 27.5L44.2875 24.3233L42.7308 27.0995L43.9308 24.1515L41.3237 25.9774L43.6839 23.8419L40.5428 24.3558L43.5958 23.4559L40.5428 22.556L43.6839 23.0699L41.3237 20.9344L43.9308 22.7603L42.7308 19.8123L44.2875 22.5885L44.4855 19.4118Z" fill="white"/>
<path d="M45.2941 27.5L45.4921 30.6767L47.0488 27.9005L45.8488 30.8485L48.4559 29.0227L46.0957 31.1581L49.2368 30.6442L46.1838 31.5441L49.2368 32.444L46.0957 31.9301L48.4559 34.0656L45.8488 32.2397L47.0488 35.1877L45.4921 32.4115L45.2941 35.5882L45.0961 32.4115L43.5394 35.1877L44.7394 32.2397L42.1323 34.0656L44.4925 31.9301L41.3514 32.444L44.4044 31.5441L41.3514 30.6442L44.4925 31.1581L42.1323 29.0227L44.7394 30.8485L43.5394 27.9005L45.0961 30.6767L45.2941 27.5Z" fill="white"/>
<path d="M42.0588 34.7794L42.2567 37.9561L43.8134 35.1799L42.6135 38.1279L45.2206 36.3021L42.8604 38.4375L46.0015 37.9236L42.9485 38.8235L46.0015 39.7234L42.8604 39.2096L45.2206 41.345L42.6135 39.5191L43.8134 42.4672L42.2567 39.6909L42.0588 42.8677L41.8608 39.6909L40.3041 42.4672L41.504 39.5191L38.8969 41.345L41.2572 39.2096L38.116 39.7234L41.1691 38.8235L38.116 37.9236L41.2572 38.4375L38.8969 36.3021L41.504 38.1279L40.3041 35.1799L41.8608 37.9561L42.0588 34.7794Z" fill="white"/>
<path d="M35.5881 40.4412L35.786 43.6179L37.3427 40.8417L36.1428 43.7897L38.7499 41.9638L36.3897 44.0993L39.5308 43.5854L36.4778 44.4853L39.5308 45.3852L36.3897 44.8713L38.7499 47.0067L36.1428 45.1809L37.3427 48.1289L35.786 45.3527L35.5881 48.5294L35.3901 45.3527L33.8334 48.1289L35.0333 45.1809L32.4262 47.0067L34.7865 44.8713L31.6453 45.3852L34.6984 44.4853L31.6453 43.5854L34.7865 44.0993L32.4262 41.9638L35.0333 43.7897L33.8334 40.8417L35.3901 43.6179L35.5881 40.4412Z" fill="white"/>
<path d="M27.5002 41.25L27.6981 44.4267L29.2548 41.6505L28.0549 44.5985L30.662 42.7727L28.3018 44.9081L31.4429 44.3942L28.3899 45.2941L31.4429 46.194L28.3018 45.6801L30.662 47.8156L28.0549 45.9897L29.2548 48.9377L27.6981 46.1615L27.5002 49.3382L27.3022 46.1615L25.7455 48.9377L26.9454 45.9897L24.3384 47.8156L26.6986 45.6801L23.5574 46.194L26.6105 45.2941L23.5574 44.3942L26.6986 44.9081L24.3384 42.7727L26.9454 44.5985L25.7455 41.6505L27.3022 44.4267L27.5002 41.25Z" fill="white"/>
<path d="M20.2204 38.8235L20.4184 42.0002L21.9751 39.224L20.7751 42.172L23.3822 40.3462L21.022 42.4816L24.1631 41.9677L21.1101 42.8676L24.1631 43.7675L21.022 43.2537L23.3822 45.3891L20.7751 43.5632L21.9751 46.5113L20.4184 43.735L20.2204 46.9118L20.0224 43.735L18.4657 46.5113L19.6657 43.5632L17.0586 45.3891L19.4188 43.2537L16.2777 43.7675L19.3307 42.8676L16.2777 41.9677L19.4188 42.4816L17.0586 40.3462L19.6657 42.172L18.4657 39.224L20.0224 42.0002L20.2204 38.8235Z" fill="white"/>
<path d="M12.9411 34.7794L13.1391 37.9561L14.6958 35.1799L13.4958 38.1279L16.1029 36.3021L13.7427 38.4375L16.8838 37.9236L13.8308 38.8235L16.8838 39.7234L13.7427 39.2096L16.1029 41.345L13.4958 39.5191L14.6958 42.4672L13.1391 39.6909L12.9411 42.8677L12.7431 39.6909L11.1864 42.4672L12.3864 39.5191L9.77927 41.345L12.1395 39.2096L8.99837 39.7234L12.0514 38.8235L8.99837 37.9236L12.1395 38.4375L9.77927 36.3021L12.3864 38.1279L11.1864 35.1799L12.7431 37.9561L12.9411 34.7794Z" fill="white"/>
<path d="M9.70574 27.5L9.90372 30.6767L11.4604 27.9005L10.2605 30.8485L12.8676 29.0227L10.5073 31.1581L13.6485 30.6442L10.5954 31.5441L13.6485 32.444L10.5073 31.9301L12.8676 34.0656L10.2605 32.2397L11.4604 35.1877L9.90372 32.4115L9.70574 35.5882L9.50776 32.4115L7.95106 35.1877L9.15102 32.2397L6.54392 34.0656L8.90414 31.9301L5.76302 32.444L8.81603 31.5441L5.76302 30.6442L8.90414 31.1581L6.54392 29.0227L9.15102 30.8485L7.95106 27.9005L9.50776 30.6767L9.70574 27.5Z" fill="white"/>
<path d="M9.70574 19.4118L9.90372 22.5885L11.4604 19.8123L10.2605 22.7603L12.8676 20.9344L10.5073 23.0699L13.6485 22.556L10.5954 23.4559L13.6485 24.3558L10.5073 23.8419L12.8676 25.9774L10.2605 24.1515L11.4604 27.0995L9.90372 24.3233L9.70574 27.5L9.50776 24.3233L7.95106 27.0995L9.15102 24.1515L6.54392 25.9774L8.90414 23.8419L5.76302 24.3558L8.81603 23.4559L5.76302 22.556L8.90414 23.0699L6.54392 20.9344L9.15102 22.7603L7.95106 19.8123L9.50776 22.5885L9.70574 19.4118Z" fill="white"/>
<path d="M12.9411 12.1324L13.1391 15.3091L14.6958 12.5328L13.4958 15.4809L16.1029 13.655L13.7427 15.7904L16.8838 15.2766L13.8308 16.1765L16.8838 17.0764L13.7427 16.5625L16.1029 18.6979L13.4958 16.8721L14.6958 19.8201L13.1391 17.0439L12.9411 20.2206L12.7431 17.0439L11.1864 19.8201L12.3864 16.8721L9.77927 18.6979L12.1395 16.5625L8.99837 17.0764L12.0514 16.1765L8.99837 15.2766L12.1395 15.7904L9.77927 13.655L12.3864 15.4809L11.1864 12.5328L12.7431 15.3091L12.9411 12.1324Z" fill="white"/>
<path d="M19.4118 7.27942L19.6098 10.4561L21.1665 7.67991L19.9665 10.6279L22.5736 8.80207L20.2134 10.9375L23.3545 10.4236L20.3015 11.3235L23.3545 12.2234L20.2134 11.7096L22.5736 13.845L19.9665 12.0191L21.1665 14.9672L19.6098 12.1909L19.4118 15.3677L19.2138 12.1909L17.6571 14.9672L18.8571 12.0191L16.25 13.845L18.6102 11.7096L15.4691 12.2234L18.5221 11.3235L15.4691 10.4236L18.6102 10.9375L16.25 8.80207L18.8571 10.6279L17.6571 7.67991L19.2138 10.4561L19.4118 7.27942Z" fill="white"/>
<path d="M27.5002 4.85294L27.6981 8.02965L29.2548 5.25343L28.0549 8.20145L30.662 6.37559L28.3018 8.51102L31.4429 7.99715L28.3899 8.89705L31.4429 9.79695L28.3018 9.28308L30.662 11.4185L28.0549 9.59265L29.2548 12.5407L27.6981 9.76445L27.5002 12.9412L27.3022 9.76445L25.7455 12.5407L26.9454 9.59265L24.3384 11.4185L26.6986 9.28308L23.5574 9.79695L26.6105 8.89705L23.5574 7.99715L26.6986 8.51102L24.3384 6.37559L26.9454 8.20145L25.7455 5.25343L27.3022 8.02965L27.5002 4.85294Z" fill="white"/>
<path d="M27.4999 19.4118L28.0038 25.2921L31.0092 20.2128L28.9119 25.7294L33.8235 22.4571L29.5403 26.5174L35.3853 25.7002L29.7646 27.5L35.3853 29.2998L29.5403 28.4826L33.8235 32.5429L28.9119 29.2706L31.0092 34.7873L28.0038 29.7079L27.4999 35.5882L26.9959 29.7079L23.9905 34.7873L26.0878 29.2706L21.1762 32.5429L25.4594 28.4826L19.6144 29.2998L25.2352 27.5L19.6144 25.7002L25.4594 26.5174L21.1762 22.4571L26.0878 25.7294L23.9905 20.2128L26.9959 25.2921L27.4999 19.4118Z" fill="url(#paint1_linear_179_436)"/>
<defs>
<linearGradient id="paint0_linear_179_436" x1="0" y1="0" x2="59.1504" y2="5.81211" gradientUnits="userSpaceOnUse">
<stop stop-color="#FFE600"/>
<stop offset="1" stop-color="#FF0F00"/>
</linearGradient>
<linearGradient id="paint1_linear_179_436" x1="19.4116" y1="19.4118" x2="36.8088" y2="21.1212" gradientUnits="userSpaceOnUse">
<stop stop-color="#FF6200"/>
<stop offset="1" stop-color="#FF9A00"/>
</linearGradient>
</defs>
</svg>
