<svg width="55" height="55" viewBox="0 0 55 55" fill="none" xmlns="http://www.w3.org/2000/svg">
<circle cx="27.5" cy="27.5" r="27.5" fill="url(#paint0_linear_179_1343)"/>
<path d="M19 8L19.8078 15.461L23.7727 9.08934L21.2633 16.162L27.6001 12.1416L22.2705 17.425L29.7242 16.5523L22.63 19L29.7242 21.4477L22.2705 20.575L27.6001 25.8584L21.2633 21.838L23.7727 28.9107L19.8078 22.539L19 30L18.1922 22.539L14.2273 28.9107L16.7367 21.838L10.3999 25.8584L15.7295 20.575L8.27579 21.4477L15.37 19L8.27579 16.5523L15.7295 17.425L10.3999 12.1416L16.7367 16.162L14.2273 9.08934L18.1922 15.461L19 8Z" fill="white"/>
<path d="M42 21L42.6609 27.1045L45.905 21.8913L43.8518 27.678L49.0365 24.3886L44.6759 28.7114L50.7744 27.9973L44.97 30L50.7744 32.0027L44.6759 31.2886L49.0365 35.6114L43.8518 32.322L45.905 38.1087L42.6609 32.8955L42 39L41.3391 32.8955L38.095 38.1087L40.1482 32.322L34.9635 35.6114L39.3241 31.2886L33.2256 32.0027L39.03 30L33.2256 27.9973L39.3241 28.7114L34.9635 24.3886L40.1482 27.678L38.095 21.8913L41.3391 27.1045L42 21Z" fill="white"/>
<path d="M24 34L24.6609 40.1045L27.905 34.8913L25.8518 40.678L31.0365 37.3886L26.6759 41.7114L32.7744 40.9973L26.97 43L32.7744 45.0027L26.6759 44.2886L31.0365 48.6114L25.8518 45.322L27.905 51.1087L24.6609 45.8955L24 52L23.3391 45.8955L20.095 51.1087L22.1482 45.322L16.9635 48.6114L21.3241 44.2886L15.2256 45.0027L21.03 43L15.2256 40.9973L21.3241 41.7114L16.9635 37.3886L22.1482 40.678L20.095 34.8913L23.3391 40.1045L24 34Z" fill="white"/>
<path d="M19 14L19.3115 17.6351L21.1694 14.4952L19.8729 17.9054L22.9092 15.8826L20.2614 18.3926L23.8746 17.8874L20.4 19L23.8746 20.1126L20.2614 19.6074L22.9092 22.1174L19.8729 20.0946L21.1694 23.5048L19.3115 20.3649L19 24L18.6885 20.3649L16.8306 23.5048L18.1271 20.0946L15.0908 22.1174L17.7386 19.6074L14.1254 20.1126L17.6 19L14.1254 17.8874L17.7386 18.3926L15.0908 15.8826L18.1271 17.9054L16.8306 14.4952L18.6885 17.6351L19 14Z" fill="#FF7600"/>
<path d="M42 26L42.2492 28.9081L43.7355 26.3961L42.6983 29.1243L45.1273 27.506L43.0091 29.5141L45.8997 29.1099L43.12 30L45.8997 30.8901L43.0091 30.4859L45.1273 32.494L42.6983 30.8757L43.7355 33.6039L42.2492 31.0919L42 34L41.7508 31.0919L40.2645 33.6039L41.3017 30.8757L38.8727 32.494L40.9909 30.4859L38.1003 30.8901L40.88 30L38.1003 29.1099L40.9909 29.5141L38.8727 27.506L41.3017 29.1243L40.2645 26.3961L41.7508 28.9081L42 26Z" fill="#FF7600"/>
<path d="M24 39L24.2492 41.9081L25.7355 39.3961L24.6983 42.1243L27.1273 40.506L25.0091 42.5141L27.8997 42.1099L25.12 43L27.8997 43.8901L25.0091 43.4859L27.1273 45.494L24.6983 43.8757L25.7355 46.6039L24.2492 44.0919L24 47L23.7508 44.0919L22.2645 46.6039L23.3017 43.8757L20.8727 45.494L22.9909 43.4859L20.1003 43.8901L22.88 43L20.1003 42.1099L22.9909 42.5141L20.8727 40.506L23.3017 42.1243L22.2645 39.3961L23.7508 41.9081L24 39Z" fill="#FF7600"/>
<path d="M19.5 5L19.6224 6.96379L20.5847 5.24758L19.8429 7.06999L21.4546 5.94128L19.9955 7.26136L21.9373 6.9437L20.05 7.5L21.9373 8.0563L19.9955 7.73864L21.4546 9.05872L19.8429 7.93001L20.5847 9.75242L19.6224 8.03621L19.5 10L19.3776 8.03621L18.4153 9.75242L19.1571 7.93001L17.5454 9.05872L19.0045 7.73864L17.0627 8.0563L18.95 7.5L17.0627 6.9437L19.0045 7.26136L17.5454 5.94128L19.1571 7.06999L18.4153 5.24758L19.3776 6.96379L19.5 5Z" fill="white"/>
<path d="M42 18L42.0979 19.571L42.8678 18.1981L42.2743 19.656L43.5637 18.753L42.3964 19.8091L43.9499 19.555L42.44 20L43.9499 20.445L42.3964 20.1909L43.5637 21.247L42.2743 20.344L42.8678 21.8019L42.0979 20.429L42 22L41.9021 20.429L41.1322 21.8019L41.7257 20.344L40.4363 21.247L41.6036 20.1909L40.0501 20.445L41.56 20L40.0501 19.555L41.6036 19.8091L40.4363 18.753L41.7257 19.656L41.1322 18.1981L41.9021 19.571L42 18Z" fill="white"/>
<path d="M24 31L24.0979 32.571L24.8678 31.1981L24.2743 32.656L25.5637 31.753L24.3964 32.8091L25.9499 32.555L24.44 33L25.9499 33.445L24.3964 33.1909L25.5637 34.247L24.2743 33.344L24.8678 34.8019L24.0979 33.429L24 35L23.9021 33.429L23.1322 34.8019L23.7257 33.344L22.4363 34.247L23.6036 33.1909L22.0501 33.445L23.56 33L22.0501 32.555L23.6036 32.8091L22.4363 31.753L23.7257 32.656L23.1322 31.1981L23.9021 32.571L24 31Z" fill="white"/>
<path d="M14.5 6L14.6224 7.96379L15.5847 6.24758L14.8429 8.06999L16.4546 6.94128L14.9955 8.26136L16.9373 7.9437L15.05 8.5L16.9373 9.0563L14.9955 8.73864L16.4546 10.0587L14.8429 8.93001L15.5847 10.7524L14.6224 9.03621L14.5 11L14.3776 9.03621L13.4153 10.7524L14.1571 8.93001L12.5454 10.0587L14.0045 8.73864L12.0627 9.0563L13.95 8.5L12.0627 7.9437L14.0045 8.26136L12.5454 6.94128L14.1571 8.06999L13.4153 6.24758L14.3776 7.96379L14.5 6Z" fill="white"/>
<path d="M38 19L38.0979 20.571L38.8678 19.1981L38.2743 20.656L39.5637 19.753L38.3964 20.8091L39.9499 20.555L38.44 21L39.9499 21.445L38.3964 21.1909L39.5637 22.247L38.2743 21.344L38.8678 22.8019L38.0979 21.429L38 23L37.9021 21.429L37.1322 22.8019L37.7257 21.344L36.4363 22.247L37.6036 21.1909L36.0501 21.445L37.56 21L36.0501 20.555L37.6036 20.8091L36.4363 19.753L37.7257 20.656L37.1322 19.1981L37.9021 20.571L38 19Z" fill="white"/>
<path d="M20 32L20.0979 33.571L20.8678 32.1981L20.2743 33.656L21.5637 32.753L20.3964 33.8091L21.9499 33.555L20.44 34L21.9499 34.445L20.3964 34.1909L21.5637 35.247L20.2743 34.344L20.8678 35.8019L20.0979 34.429L20 36L19.9021 34.429L19.1322 35.8019L19.7257 34.344L18.4363 35.247L19.6036 34.1909L18.0501 34.445L19.56 34L18.0501 33.555L19.6036 33.8091L18.4363 32.753L19.7257 33.656L19.1322 32.1981L19.9021 33.571L20 32Z" fill="white"/>
<path d="M10.5 9L10.6224 10.9638L11.5847 9.24758L10.8429 11.07L12.4546 9.94128L10.9955 11.2614L12.9373 10.9437L11.05 11.5L12.9373 12.0563L10.9955 11.7386L12.4546 13.0587L10.8429 11.93L11.5847 13.7524L10.6224 12.0362L10.5 14L10.3776 12.0362L9.41529 13.7524L10.1571 11.93L8.54542 13.0587L10.0045 11.7386L8.06268 12.0563L9.95 11.5L8.06268 10.9437L10.0045 11.2614L8.54542 9.94128L10.1571 11.07L9.41529 9.24758L10.3776 10.9638L10.5 9Z" fill="white"/>
<path d="M35 21L35.0979 22.9638L35.8678 21.2476L35.2743 23.07L36.5637 21.9413L35.3964 23.2614L36.9499 22.9437L35.44 23.5L36.9499 24.0563L35.3964 23.7386L36.5637 25.0587L35.2743 23.93L35.8678 25.7524L35.0979 24.0362L35 26L34.9021 24.0362L34.1322 25.7524L34.7257 23.93L33.4363 25.0587L34.6036 23.7386L33.0501 24.0563L34.56 23.5L33.0501 22.9437L34.6036 23.2614L33.4363 21.9413L34.7257 23.07L34.1322 21.2476L34.9021 22.9638L35 21Z" fill="white"/>
<path d="M17 34L17.0979 35.9638L17.8678 34.2476L17.2743 36.07L18.5637 34.9413L17.3964 36.2614L18.9499 35.9437L17.44 36.5L18.9499 37.0563L17.3964 36.7386L18.5637 38.0587L17.2743 36.93L17.8678 38.7524L17.0979 37.0362L17 39L16.9021 37.0362L16.1322 38.7524L16.7257 36.93L15.4363 38.0587L16.6036 36.7386L15.0501 37.0563L16.56 36.5L15.0501 35.9437L16.6036 36.2614L15.4363 34.9413L16.7257 36.07L16.1322 34.2476L16.9021 35.9638L17 34Z" fill="white"/>
<path d="M8.5 14L8.62239 15.9638L9.58471 14.2476L8.84292 16.07L10.4546 14.9413L8.99553 16.2614L10.9373 15.9437L9.05 16.5L10.9373 17.0563L8.99553 16.7386L10.4546 18.0587L8.84292 16.93L9.58471 18.7524L8.62239 17.0362L8.5 19L8.37761 17.0362L7.41529 18.7524L8.15708 16.93L6.54542 18.0587L8.00447 16.7386L6.06268 17.0563L7.95 16.5L6.06268 15.9437L8.00447 16.2614L6.54542 14.9413L8.15708 16.07L7.41529 14.2476L8.37761 15.9638L8.5 14Z" fill="white"/>
<path d="M33 26L33.0979 27.571L33.8678 26.1981L33.2743 27.656L34.5637 26.753L33.3964 27.8091L34.9499 27.555L33.44 28L34.9499 28.445L33.3964 28.1909L34.5637 29.247L33.2743 28.344L33.8678 29.8019L33.0979 28.429L33 30L32.9021 28.429L32.1322 29.8019L32.7257 28.344L31.4363 29.247L32.6036 28.1909L31.0501 28.445L32.56 28L31.0501 27.555L32.6036 27.8091L31.4363 26.753L32.7257 27.656L32.1322 26.1981L32.9021 27.571L33 26Z" fill="white"/>
<path d="M15 39L15.0979 40.571L15.8678 39.1981L15.2743 40.656L16.5637 39.753L15.3964 40.8091L16.9499 40.555L15.44 41L16.9499 41.445L15.3964 41.1909L16.5637 42.247L15.2743 41.344L15.8678 42.8019L15.0979 41.429L15 43L14.9021 41.429L14.1322 42.8019L14.7257 41.344L13.4363 42.247L14.6036 41.1909L13.0501 41.445L14.56 41L13.0501 40.555L14.6036 40.8091L13.4363 39.753L14.7257 40.656L14.1322 39.1981L14.9021 40.571L15 39Z" fill="white"/>
<path d="M8.5 19L8.62239 20.9638L9.58471 19.2476L8.84292 21.07L10.4546 19.9413L8.99553 21.2614L10.9373 20.9437L9.05 21.5L10.9373 22.0563L8.99553 21.7386L10.4546 23.0587L8.84292 21.93L9.58471 23.7524L8.62239 22.0362L8.5 24L8.37761 22.0362L7.41529 23.7524L8.15708 21.93L6.54542 23.0587L8.00447 21.7386L6.06268 22.0563L7.95 21.5L6.06268 20.9437L8.00447 21.2614L6.54542 19.9413L8.15708 21.07L7.41529 19.2476L8.37761 20.9638L8.5 19Z" fill="white"/>
<path d="M33 30L33.0979 31.571L33.8678 30.1981L33.2743 31.656L34.5637 30.753L33.3964 31.8091L34.9499 31.555L33.44 32L34.9499 32.445L33.3964 32.1909L34.5637 33.247L33.2743 32.344L33.8678 33.8019L33.0979 32.429L33 34L32.9021 32.429L32.1322 33.8019L32.7257 32.344L31.4363 33.247L32.6036 32.1909L31.0501 32.445L32.56 32L31.0501 31.555L32.6036 31.8091L31.4363 30.753L32.7257 31.656L32.1322 30.1981L32.9021 31.571L33 30Z" fill="white"/>
<path d="M15 43L15.0979 44.571L15.8678 43.1981L15.2743 44.656L16.5637 43.753L15.3964 44.8091L16.9499 44.555L15.44 45L16.9499 45.445L15.3964 45.1909L16.5637 46.247L15.2743 45.344L15.8678 46.8019L15.0979 45.429L15 47L14.9021 45.429L14.1322 46.8019L14.7257 45.344L13.4363 46.247L14.6036 45.1909L13.0501 45.445L14.56 45L13.0501 44.555L14.6036 44.8091L13.4363 43.753L14.7257 44.656L14.1322 43.1981L14.9021 44.571L15 43Z" fill="white"/>
<path d="M10.5 24L10.6224 25.9638L11.5847 24.2476L10.8429 26.07L12.4546 24.9413L10.9955 26.2614L12.9373 25.9437L11.05 26.5L12.9373 27.0563L10.9955 26.7386L12.4546 28.0587L10.8429 26.93L11.5847 28.7524L10.6224 27.0362L10.5 29L10.3776 27.0362L9.41529 28.7524L10.1571 26.93L8.54542 28.0587L10.0045 26.7386L8.06268 27.0563L9.95 26.5L8.06268 25.9437L10.0045 26.2614L8.54542 24.9413L10.1571 26.07L9.41529 24.2476L10.3776 25.9638L10.5 24Z" fill="white"/>
<path d="M35 34L35.0979 35.571L35.8678 34.1981L35.2743 35.656L36.5637 34.753L35.3964 35.8091L36.9499 35.555L35.44 36L36.9499 36.445L35.3964 36.1909L36.5637 37.247L35.2743 36.344L35.8678 37.8019L35.0979 36.429L35 38L34.9021 36.429L34.1322 37.8019L34.7257 36.344L33.4363 37.247L34.6036 36.1909L33.0501 36.445L34.56 36L33.0501 35.555L34.6036 35.8091L33.4363 34.753L34.7257 35.656L34.1322 34.1981L34.9021 35.571L35 34Z" fill="white"/>
<path d="M17 47L17.0979 48.571L17.8678 47.1981L17.2743 48.656L18.5637 47.753L17.3964 48.8091L18.9499 48.555L17.44 49L18.9499 49.445L17.3964 49.1909L18.5637 50.247L17.2743 49.344L17.8678 50.8019L17.0979 49.429L17 51L16.9021 49.429L16.1322 50.8019L16.7257 49.344L15.4363 50.247L16.6036 49.1909L15.0501 49.445L16.56 49L15.0501 48.555L16.6036 48.8091L15.4363 47.753L16.7257 48.656L16.1322 47.1981L16.9021 48.571L17 47Z" fill="white"/>
<path d="M14.5 26L14.6224 27.9638L15.5847 26.2476L14.8429 28.07L16.4546 26.9413L14.9955 28.2614L16.9373 27.9437L15.05 28.5L16.9373 29.0563L14.9955 28.7386L16.4546 30.0587L14.8429 28.93L15.5847 30.7524L14.6224 29.0362L14.5 31L14.3776 29.0362L13.4153 30.7524L14.1571 28.93L12.5454 30.0587L14.0045 28.7386L12.0627 29.0563L13.95 28.5L12.0627 27.9437L14.0045 28.2614L12.5454 26.9413L14.1571 28.07L13.4153 26.2476L14.3776 27.9638L14.5 26Z" fill="white"/>
<path d="M38 35L38.0979 36.571L38.8678 35.1981L38.2743 36.656L39.5637 35.753L38.3964 36.8091L39.9499 36.555L38.44 37L39.9499 37.445L38.3964 37.1909L39.5637 38.247L38.2743 37.344L38.8678 38.8019L38.0979 37.429L38 39L37.9021 37.429L37.1322 38.8019L37.7257 37.344L36.4363 38.247L37.6036 37.1909L36.0501 37.445L37.56 37L36.0501 36.555L37.6036 36.8091L36.4363 35.753L37.7257 36.656L37.1322 35.1981L37.9021 36.571L38 35Z" fill="white"/>
<path d="M20 48L20.0979 49.571L20.8678 48.1981L20.2743 49.656L21.5637 48.753L20.3964 49.8091L21.9499 49.555L20.44 50L21.9499 50.445L20.3964 50.1909L21.5637 51.247L20.2743 50.344L20.8678 51.8019L20.0979 50.429L20 52L19.9021 50.429L19.1322 51.8019L19.7257 50.344L18.4363 51.247L19.6036 50.1909L18.0501 50.445L19.56 50L18.0501 49.555L19.6036 49.8091L18.4363 48.753L19.7257 49.656L19.1322 48.1981L19.9021 49.571L20 48Z" fill="white"/>
<path d="M19.5 28L19.6224 29.9638L20.5847 28.2476L19.8429 30.07L21.4546 28.9413L19.9955 30.2614L21.9373 29.9437L20.05 30.5L21.9373 31.0563L19.9955 30.7386L21.4546 32.0587L19.8429 30.93L20.5847 32.7524L19.6224 31.0362L19.5 33L19.3776 31.0362L18.4153 32.7524L19.1571 30.93L17.5454 32.0587L19.0045 30.7386L17.0627 31.0563L18.95 30.5L17.0627 29.9437L19.0045 30.2614L17.5454 28.9413L19.1571 30.07L18.4153 28.2476L19.3776 29.9638L19.5 28Z" fill="white"/>
<path d="M42 37L42.0979 38.571L42.8678 37.1981L42.2743 38.656L43.5637 37.753L42.3964 38.8091L43.9499 38.555L42.44 39L43.9499 39.445L42.3964 39.1909L43.5637 40.247L42.2743 39.344L42.8678 40.8019L42.0979 39.429L42 41L41.9021 39.429L41.1322 40.8019L41.7257 39.344L40.4363 40.247L41.6036 39.1909L40.0501 39.445L41.56 39L40.0501 38.555L41.6036 38.8091L40.4363 37.753L41.7257 38.656L41.1322 37.1981L41.9021 38.571L42 37Z" fill="white"/>
<path d="M24 50L24.0979 51.571L24.8678 50.1981L24.2743 51.656L25.5637 50.753L24.3964 51.8091L25.9499 51.555L24.44 52L25.9499 52.445L24.3964 52.1909L25.5637 53.247L24.2743 52.344L24.8678 53.8019L24.0979 52.429L24 54L23.9021 52.429L23.1322 53.8019L23.7257 52.344L22.4363 53.247L23.6036 52.1909L22.0501 52.445L23.56 52L22.0501 51.555L23.6036 51.8091L22.4363 50.753L23.7257 51.656L23.1322 50.1981L23.9021 51.571L24 50Z" fill="white"/>
<path d="M24.5 27L24.6224 28.9638L25.5847 27.2476L24.8429 29.07L26.4546 27.9413L24.9955 29.2614L26.9373 28.9437L25.05 29.5L26.9373 30.0563L24.9955 29.7386L26.4546 31.0587L24.8429 29.93L25.5847 31.7524L24.6224 30.0362L24.5 32L24.3776 30.0362L23.4153 31.7524L24.1571 29.93L22.5454 31.0587L24.0045 29.7386L22.0627 30.0563L23.95 29.5L22.0627 28.9437L24.0045 29.2614L22.5454 27.9413L24.1571 29.07L23.4153 27.2476L24.3776 28.9638L24.5 27Z" fill="white"/>
<path d="M46 36L46.0979 37.571L46.8678 36.1981L46.2743 37.656L47.5637 36.753L46.3964 37.8091L47.9499 37.555L46.44 38L47.9499 38.445L46.3964 38.1909L47.5637 39.247L46.2743 38.344L46.8678 39.8019L46.0979 38.429L46 40L45.9021 38.429L45.1322 39.8019L45.7257 38.344L44.4363 39.247L45.6036 38.1909L44.0501 38.445L45.56 38L44.0501 37.555L45.6036 37.8091L44.4363 36.753L45.7257 37.656L45.1322 36.1981L45.9021 37.571L46 36Z" fill="white"/>
<path d="M28 49L28.0979 50.571L28.8678 49.1981L28.2743 50.656L29.5637 49.753L28.3964 50.8091L29.9499 50.555L28.44 51L29.9499 51.445L28.3964 51.1909L29.5637 52.247L28.2743 51.344L28.8678 52.8019L28.0979 51.429L28 53L27.9021 51.429L27.1322 52.8019L27.7257 51.344L26.4363 52.247L27.6036 51.1909L26.0501 51.445L27.56 51L26.0501 50.555L27.6036 50.8091L26.4363 49.753L27.7257 50.656L27.1322 49.1981L27.9021 50.571L28 49Z" fill="white"/>
<path d="M28.5 24L28.6224 25.9638L29.5847 24.2476L28.8429 26.07L30.4546 24.9413L28.9955 26.2614L30.9373 25.9437L29.05 26.5L30.9373 27.0563L28.9955 26.7386L30.4546 28.0587L28.8429 26.93L29.5847 28.7524L28.6224 27.0362L28.5 29L28.3776 27.0362L27.4153 28.7524L28.1571 26.93L26.5454 28.0587L28.0045 26.7386L26.0627 27.0563L27.95 26.5L26.0627 25.9437L28.0045 26.2614L26.5454 24.9413L28.1571 26.07L27.4153 24.2476L28.3776 25.9638L28.5 24Z" fill="white"/>
<path d="M49 34L49.0979 35.571L49.8678 34.1981L49.2743 35.656L50.5637 34.753L49.3964 35.8091L50.9499 35.555L49.44 36L50.9499 36.445L49.3964 36.1909L50.5637 37.247L49.2743 36.344L49.8678 37.8019L49.0979 36.429L49 38L48.9021 36.429L48.1322 37.8019L48.7257 36.344L47.4363 37.247L48.6036 36.1909L47.0501 36.445L48.56 36L47.0501 35.555L48.6036 35.8091L47.4363 34.753L48.7257 35.656L48.1322 34.1981L48.9021 35.571L49 34Z" fill="white"/>
<path d="M31 47L31.0979 48.571L31.8678 47.1981L31.2743 48.656L32.5637 47.753L31.3964 48.8091L32.9499 48.555L31.44 49L32.9499 49.445L31.3964 49.1909L32.5637 50.247L31.2743 49.344L31.8678 50.8019L31.0979 49.429L31 51L30.9021 49.429L30.1322 50.8019L30.7257 49.344L29.4363 50.247L30.6036 49.1909L29.0501 49.445L30.56 49L29.0501 48.555L30.6036 48.8091L29.4363 47.753L30.7257 48.656L30.1322 47.1981L30.9021 48.571L31 47Z" fill="white"/>
<path d="M30.5 19L30.6224 20.9638L31.5847 19.2476L30.8429 21.07L32.4546 19.9413L30.9955 21.2614L32.9373 20.9437L31.05 21.5L32.9373 22.0563L30.9955 21.7386L32.4546 23.0587L30.8429 21.93L31.5847 23.7524L30.6224 22.0362L30.5 24L30.3776 22.0362L29.4153 23.7524L30.1571 21.93L28.5454 23.0587L30.0045 21.7386L28.0627 22.0563L29.95 21.5L28.0627 20.9437L30.0045 21.2614L28.5454 19.9413L30.1571 21.07L29.4153 19.2476L30.3776 20.9638L30.5 19Z" fill="white"/>
<path d="M51 30L51.0979 31.571L51.8678 30.1981L51.2743 31.656L52.5637 30.753L51.3964 31.8091L52.9499 31.555L51.44 32L52.9499 32.445L51.3964 32.1909L52.5637 33.247L51.2743 32.344L51.8678 33.8019L51.0979 32.429L51 34L50.9021 32.429L50.1322 33.8019L50.7257 32.344L49.4363 33.247L50.6036 32.1909L49.0501 32.445L50.56 32L49.0501 31.555L50.6036 31.8091L49.4363 30.753L50.7257 31.656L50.1322 30.1981L50.9021 31.571L51 30Z" fill="white"/>
<path d="M33 43L33.0979 44.571L33.8678 43.1981L33.2743 44.656L34.5637 43.753L33.3964 44.8091L34.9499 44.555L33.44 45L34.9499 45.445L33.3964 45.1909L34.5637 46.247L33.2743 45.344L33.8678 46.8019L33.0979 45.429L33 47L32.9021 45.429L32.1322 46.8019L32.7257 45.344L31.4363 46.247L32.6036 45.1909L31.0501 45.445L32.56 45L31.0501 44.555L32.6036 44.8091L31.4363 43.753L32.7257 44.656L32.1322 43.1981L32.9021 44.571L33 43Z" fill="white"/>
<path d="M29.5 14L29.6224 15.9638L30.5847 14.2476L29.8429 16.07L31.4546 14.9413L29.9955 16.2614L31.9373 15.9437L30.05 16.5L31.9373 17.0563L29.9955 16.7386L31.4546 18.0587L29.8429 16.93L30.5847 18.7524L29.6224 17.0362L29.5 19L29.3776 17.0362L28.4153 18.7524L29.1571 16.93L27.5454 18.0587L29.0045 16.7386L27.0627 17.0563L28.95 16.5L27.0627 15.9437L29.0045 16.2614L27.5454 14.9413L29.1571 16.07L28.4153 14.2476L29.3776 15.9638L29.5 14Z" fill="white"/>
<path d="M50 26L50.0979 27.571L50.8678 26.1981L50.2743 27.656L51.5637 26.753L50.3964 27.8091L51.9499 27.555L50.44 28L51.9499 28.445L50.3964 28.1909L51.5637 29.247L50.2743 28.344L50.8678 29.8019L50.0979 28.429L50 30L49.9021 28.429L49.1322 29.8019L49.7257 28.344L48.4363 29.247L49.6036 28.1909L48.0501 28.445L49.56 28L48.0501 27.555L49.6036 27.8091L48.4363 26.753L49.7257 27.656L49.1322 26.1981L49.9021 27.571L50 26Z" fill="white"/>
<path d="M32 39L32.0979 40.571L32.8678 39.1981L32.2743 40.656L33.5637 39.753L32.3964 40.8091L33.9499 40.555L32.44 41L33.9499 41.445L32.3964 41.1909L33.5637 42.247L32.2743 41.344L32.8678 42.8019L32.0979 41.429L32 43L31.9021 41.429L31.1322 42.8019L31.7257 41.344L30.4363 42.247L31.6036 41.1909L30.0501 41.445L31.56 41L30.0501 40.555L31.6036 40.8091L30.4363 39.753L31.7257 40.656L31.1322 39.1981L31.9021 40.571L32 39Z" fill="white"/>
<path d="M28.5 9L28.6224 10.9638L29.5847 9.24758L28.8429 11.07L30.4546 9.94128L28.9955 11.2614L30.9373 10.9437L29.05 11.5L30.9373 12.0563L28.9955 11.7386L30.4546 13.0587L28.8429 11.93L29.5847 13.7524L28.6224 12.0362L28.5 14L28.3776 12.0362L27.4153 13.7524L28.1571 11.93L26.5454 13.0587L28.0045 11.7386L26.0627 12.0563L27.95 11.5L26.0627 10.9437L28.0045 11.2614L26.5454 9.94128L28.1571 11.07L27.4153 9.24758L28.3776 10.9638L28.5 9Z" fill="white"/>
<path d="M49 21L49.0979 22.9638L49.8678 21.2476L49.2743 23.07L50.5637 21.9413L49.3964 23.2614L50.9499 22.9437L49.44 23.5L50.9499 24.0563L49.3964 23.7386L50.5637 25.0587L49.2743 23.93L49.8678 25.7524L49.0979 24.0362L49 26L48.9021 24.0362L48.1322 25.7524L48.7257 23.93L47.4363 25.0587L48.6036 23.7386L47.0501 24.0563L48.56 23.5L47.0501 22.9437L48.6036 23.2614L47.4363 21.9413L48.7257 23.07L48.1322 21.2476L48.9021 22.9638L49 21Z" fill="white"/>
<path d="M31 34L31.0979 35.9638L31.8678 34.2476L31.2743 36.07L32.5637 34.9413L31.3964 36.2614L32.9499 35.9437L31.44 36.5L32.9499 37.0563L31.3964 36.7386L32.5637 38.0587L31.2743 36.93L31.8678 38.7524L31.0979 37.0362L31 39L30.9021 37.0362L30.1322 38.7524L30.7257 36.93L29.4363 38.0587L30.6036 36.7386L29.0501 37.0563L30.56 36.5L29.0501 35.9437L30.6036 36.2614L29.4363 34.9413L30.7257 36.07L30.1322 34.2476L30.9021 35.9638L31 34Z" fill="white"/>
<path d="M24.5 6L24.6224 7.96379L25.5847 6.24758L24.8429 8.06999L26.4546 6.94128L24.9955 8.26136L26.9373 7.9437L25.05 8.5L26.9373 9.0563L24.9955 8.73864L26.4546 10.0587L24.8429 8.93001L25.5847 10.7524L24.6224 9.03621L24.5 11L24.3776 9.03621L23.4153 10.7524L24.1571 8.93001L22.5454 10.0587L24.0045 8.73864L22.0627 9.0563L23.95 8.5L22.0627 7.9437L24.0045 8.26136L22.5454 6.94128L24.1571 8.06999L23.4153 6.24758L24.3776 7.96379L24.5 6Z" fill="white"/>
<path d="M46 19L46.0979 20.571L46.8678 19.1981L46.2743 20.656L47.5637 19.753L46.3964 20.8091L47.9499 20.555L46.44 21L47.9499 21.445L46.3964 21.1909L47.5637 22.247L46.2743 21.344L46.8678 22.8019L46.0979 21.429L46 23L45.9021 21.429L45.1322 22.8019L45.7257 21.344L44.4363 22.247L45.6036 21.1909L44.0501 21.445L45.56 21L44.0501 20.555L45.6036 20.8091L44.4363 19.753L45.7257 20.656L45.1322 19.1981L45.9021 20.571L46 19Z" fill="white"/>
<path d="M28 32L28.0979 33.571L28.8678 32.1981L28.2743 33.656L29.5637 32.753L28.3964 33.8091L29.9499 33.555L28.44 34L29.9499 34.445L28.3964 34.1909L29.5637 35.247L28.2743 34.344L28.8678 35.8019L28.0979 34.429L28 36L27.9021 34.429L27.1322 35.8019L27.7257 34.344L26.4363 35.247L27.6036 34.1909L26.0501 34.445L27.56 34L26.0501 33.555L27.6036 33.8091L26.4363 32.753L27.7257 33.656L27.1322 32.1981L27.9021 33.571L28 32Z" fill="white"/>
<defs>
<linearGradient id="paint0_linear_179_1343" x1="0" y1="0" x2="59.1504" y2="5.81211" gradientUnits="userSpaceOnUse">
<stop stop-color="#FFE600"/>
<stop offset="1" stop-color="#FF0F00"/>
</linearGradient>
</defs>
</svg>
