<svg width="55" height="55" viewBox="0 0 55 55" fill="none" xmlns="http://www.w3.org/2000/svg">
<circle cx="27.5" cy="27.5" r="27.5" fill="url(#paint0_linear_179_1292)"/>
<path fill-rule="evenodd" clip-rule="evenodd" d="M21.2114 17.68C21.7837 17.1071 22.4259 16.6088 23.123 16.1968C24.6011 15.3271 26.2849 14.8685 27.9998 14.8685C29.7148 14.8685 31.3985 15.3271 32.8766 16.1968C33.5737 16.6088 34.216 17.1071 34.7882 17.68L27.9998 24.4684L21.2114 17.68ZM27.9998 21.0736L24.8954 17.9692C25.8652 17.5074 26.9257 17.2678 27.9998 17.2678C29.0739 17.2678 30.1345 17.5074 31.1042 17.9692L27.9998 21.0736Z" fill="white"/>
<path d="M16 28.4464C15.9982 26.6623 16.3951 24.9003 17.1616 23.2891C17.9281 21.678 19.0449 20.2586 20.4304 19.1344L22.138 20.8432C20.5511 22.0669 19.3868 23.7565 18.8085 25.6751C18.2301 27.5938 18.2667 29.6453 18.9131 31.5422C19.5595 33.439 20.7832 35.086 22.4128 36.2523C24.0424 37.4185 25.9961 38.0456 28 38.0456C30.0039 38.0456 31.9576 37.4185 33.5872 36.2523C35.2168 35.086 36.4405 33.439 37.0869 31.5422C37.7333 29.6453 37.7698 27.5938 37.1915 25.6751C36.6132 23.7565 35.4489 22.0669 33.862 20.8432L35.5696 19.1344C36.9551 20.2586 38.0719 21.678 38.8384 23.2891C39.6049 24.9003 40.0018 26.6623 40 28.4464C40 35.0728 34.6276 40.4464 28 40.4464C21.3724 40.4464 16 35.0728 16 28.4464Z" fill="white"/>
<defs>
<linearGradient id="paint0_linear_179_1292" x1="0" y1="0" x2="59.1504" y2="5.81211" gradientUnits="userSpaceOnUse">
<stop stop-color="#FFE600"/>
<stop offset="1" stop-color="#FF0F00"/>
</linearGradient>
</defs>
</svg>
