<svg width="55" height="55" viewBox="0 0 55 55" fill="none" xmlns="http://www.w3.org/2000/svg">
<circle cx="27.5" cy="27.5" r="27.5" fill="url(#paint0_linear_179_1277)"/>
<path d="M16.5485 29.8617L16.1027 35.6678L19.8457 31.2069L16.5565 36.0123L22.0286 34.0205L16.7774 36.5375L22.5122 37.5487L16.706 37.1028L21.1669 40.8459L16.3616 37.5567L18.3533 43.0288L15.8363 37.7775L14.8252 43.5124L15.271 37.7062L11.5279 42.1671L14.8172 37.3617L9.34509 39.3535L14.5963 36.8365L8.86149 35.8253L14.6677 36.2712L10.2067 32.5281L15.0121 35.8173L13.0204 30.3453L15.5374 35.5965L16.5485 29.8617Z" fill="white"/>
<path d="M23.1313 6.83212L25.9774 16.6995L29.4087 7.02005L26.9398 16.9885L34.7511 10.3215L27.6287 17.7199L37.727 15.8518L27.8596 18.6979L37.5391 22.1292L27.5706 19.6603L34.2376 27.4715L26.8392 20.3492L28.7073 30.4475L25.8612 20.5801L22.43 30.2595L24.8989 20.2911L17.0876 26.9581L24.2099 19.5596L14.1117 21.4278L23.979 18.5817L14.2996 15.1504L24.268 17.6193L17.601 9.80804L24.9995 16.9304L23.1313 6.83212Z" fill="white"/>
<path d="M36.6147 31.7283L37.463 36.4451L39.5197 32.1164L37.8959 36.6254L41.8414 33.9049L38.1806 36.998L42.9578 36.6147L38.2409 37.463L42.5697 39.5197L38.0607 37.8959L40.7811 41.8414L37.6881 38.1806L38.0713 42.9578L37.2231 38.2409L35.1664 42.5697L36.7902 38.0607L32.8447 40.7811L36.5054 37.6881L31.7283 38.0713L36.4451 37.2231L32.1164 35.1664L36.6254 36.7902L33.9049 32.8447L36.998 36.5054L36.6147 31.7283Z" fill="white"/>
<path d="M7.62714 19.684L8.39707 23.5677L10.0324 19.9619L8.75728 23.7103L11.9764 21.4052L8.99796 24.0138L12.9383 23.6271L9.05462 24.3971L12.6604 26.0324L8.91206 24.7573L11.2171 27.9764L8.6085 24.998L8.99521 28.9383L8.22528 25.0546L6.59 28.6604L7.86506 24.9121L4.64597 27.2171L7.62438 24.6085L3.68404 24.9952L7.56773 24.2253L3.96194 22.59L7.71028 23.8651L5.40521 20.646L8.01384 23.6244L7.62714 19.684Z" fill="white"/>
<path d="M42.6271 19.684L43.3971 23.5677L45.0324 19.9619L43.7573 23.7103L46.9764 21.4052L43.998 24.0138L47.9383 23.6271L44.0546 24.3971L47.6604 26.0324L43.9121 24.7573L46.2171 27.9764L43.6085 24.998L43.9952 28.9383L43.2253 25.0546L41.59 28.6604L42.8651 24.9121L39.646 27.2171L42.6244 24.6085L38.684 24.9952L42.5677 24.2253L38.9619 22.59L42.7103 23.8651L40.4052 20.646L43.0138 23.6244L42.6271 19.684Z" fill="white"/>
<path d="M25.9061 53.9989L16.2002 37.418M25.9061 53.9989L36.8252 37.418M25.9061 53.9989V18.0062" stroke="white" stroke-width="0.5"/>
<path d="M24.0728 44.7175C23.7032 46.7339 24.4096 48.7408 24.4319 48.8013L24.4319 48.8013C24.474 48.9128 24.4515 49.0393 24.3749 49.1285C24.2978 49.2171 24.181 49.255 24.0695 49.2279C24.0186 49.2151 22.7713 48.883 21.9635 47.5885C21.8199 47.3575 21.6889 47.0744 21.5767 46.7941L21.4356 46.4416L21.2976 46.7953C21.042 47.4511 20.7729 48.3364 20.7729 49.1647C20.7729 52.0877 22.923 54.2109 25.948 54.2109C28.9957 54.2109 31.2265 52.0912 31.2265 49.1647C31.2265 48.5467 31.1892 48.0835 31.0754 47.6483C30.9615 47.2123 30.7731 46.813 30.4822 46.3197L30.4822 46.3196C30.1074 45.6844 29.9234 45.1155 29.8358 44.6656L29.7616 44.285L29.5603 44.6164C29.4621 44.778 29.3716 44.9743 29.3057 45.2092C29.0221 46.2176 29.0873 47.385 29.0909 47.4416L29.0909 47.4416C29.1003 47.5856 29.0139 47.7169 28.8832 47.7639C28.7528 47.8109 28.6073 47.7651 28.5262 47.6484L28.5249 47.6465C28.4721 47.5703 27.6735 46.417 27.3221 45.644L27.3221 45.644C26.5864 44.027 26.597 42.2717 26.673 41.251L26.6944 40.9642L26.4469 41.1109C25.6585 41.578 24.4574 42.6178 24.0728 44.7175ZM24.0728 44.7175L24.2203 44.7445L24.0728 44.7175ZM29.5946 45.2903L29.5945 45.2904C29.4583 45.7747 29.4065 46.3042 29.3894 46.7177C29.3809 46.9237 29.381 47.0992 29.3833 47.2237C29.3855 47.3412 29.3896 47.4119 29.3901 47.4195L29.5946 45.2903ZM29.5946 45.2903C29.6092 45.2382 29.6251 45.1883 29.6422 45.1407C29.7559 45.5359 29.9374 45.9867 30.2238 46.4721C30.5076 46.9533 30.681 47.3257 30.7852 47.7241C30.8895 48.1234 30.9265 48.5573 30.9265 49.1647C30.9265 51.9125 28.8433 53.9109 25.948 53.9109C23.0827 53.9109 21.0729 51.916 21.0729 49.1647C21.0729 48.5259 21.246 47.8382 21.448 47.255C21.5277 47.4277 21.615 47.5962 21.7088 47.747L21.7089 47.7472C22.5804 49.1439 23.9254 49.5012 23.9972 49.5191L23.9981 49.5193C24.2219 49.5738 24.4529 49.4963 24.6018 49.3248L24.6022 49.3243C24.7508 49.1515 24.7933 48.9092 24.7126 48.6954L24.7122 48.6943L29.5946 45.2903ZM21.2345 45.4281L21.2348 45.4277C21.2963 45.3163 21.4168 45.2545 21.546 45.2685C21.6065 45.2767 21.6635 45.3029 21.7099 45.3443C21.7567 45.386 21.7905 45.4413 21.8067 45.5032C21.8127 45.5262 21.8851 45.7987 22.002 46.1415C22.1213 46.4915 22.2912 46.9272 22.489 47.2439C22.7491 47.6609 23.0186 47.9651 23.329 48.1792L23.6455 48.3976L23.5604 48.0226C23.3681 47.1752 23.2216 45.9019 23.4604 44.5993C24.1134 41.0366 26.8659 40.1915 26.9663 40.1623L26.9663 40.1623C27.0701 40.132 27.1807 40.1586 27.2612 40.233C27.3414 40.3078 27.3785 40.4205 27.3575 40.53L27.3572 40.5317L27.3571 40.5321C27.3487 40.5784 26.8807 43.1614 27.8866 45.3741C27.9795 45.5786 28.1078 45.8133 28.2437 46.0449L28.4684 46.428L28.522 45.9871C28.5596 45.6771 28.6179 45.3495 28.7067 45.0331C29.0525 43.8035 29.9445 43.3896 29.9645 43.3806L29.9645 43.3806L29.9661 43.3799C30.0696 43.3319 30.1916 43.3469 30.2836 43.4201C30.3283 43.456 30.3628 43.5038 30.3831 43.5586C30.4035 43.6135 30.4087 43.6731 30.3982 43.731L30.3981 43.7309L30.3975 43.7351C30.3887 43.7927 30.2594 44.7077 31.0157 45.9895C31.3434 46.545 31.5501 46.9952 31.6762 47.4749C31.8025 47.955 31.85 48.4726 31.85 49.1652C31.85 52.4582 29.3774 54.85 25.9483 54.85C22.549 54.85 20.15 52.4611 20.15 49.165C20.15 48.2936 20.4077 47.381 20.6752 46.6701C20.9421 45.9612 21.2143 45.4645 21.2345 45.4281ZM29.3903 47.4222L29.3901 47.4202L24.712 48.6936C24.7085 48.6838 24.6655 48.5621 24.6071 48.3541C24.5464 48.1373 24.4696 47.8291 24.4042 47.46C24.2733 46.7202 24.1897 45.7437 24.3679 44.7716L24.3679 44.7716C24.6946 42.9878 25.6358 42.0206 26.3551 41.5255C26.3002 42.5899 26.3505 44.233 27.049 45.7682C27.4126 46.5681 28.2248 47.7402 28.2779 47.8168L28.2783 47.8174L28.2783 47.8174L28.2797 47.8194L28.2798 47.8196C28.4378 48.0469 28.7257 48.1396 28.9849 48.0462C29.2438 47.9529 29.4081 47.6969 29.3903 47.4222Z" fill="#FF7100" stroke="white" stroke-width="0.3"/>
<defs>
<linearGradient id="paint0_linear_179_1277" x1="0" y1="0" x2="59.1504" y2="5.81211" gradientUnits="userSpaceOnUse">
<stop stop-color="#FFE600"/>
<stop offset="1" stop-color="#FF0F00"/>
</linearGradient>
</defs>
</svg>
