<svg width="55" height="55" viewBox="0 0 55 55" fill="none" xmlns="http://www.w3.org/2000/svg">
<circle cx="27.5" cy="27.5" r="27.5" fill="url(#paint0_linear_179_1263)"/>
<path d="M13 24.9527C13 23.3878 13.5109 21.9893 14.5156 20.7573C15.5203 19.5252 16.7974 18.7428 18.347 18.4098C18.7728 16.5451 19.7434 14.9968 21.276 13.7981C22.8086 12.5994 24.5455 12 26.5208 12C28.4281 12 30.148 12.5827 31.6635 13.7481C33.1791 14.9135 34.1497 16.4119 34.6095 18.2266H35.0693C36.9765 18.2266 38.6113 18.8759 39.9736 20.1912C41.3188 21.4898 42 23.0881 42 24.9361C42 25.935 41.7957 26.884 41.3699 27.7664C40.9442 28.6488 40.3652 29.4146 39.616 30.0473V30.0972C39.616 31.0795 39.2924 31.9619 38.6624 32.7444C38.0323 33.5269 37.2319 34.0097 36.2783 34.2261C36.0399 35.2583 35.512 36.1407 34.7287 36.8566C33.9454 37.5725 33.0088 38.022 31.953 38.1885C32.4469 38.7546 32.6853 39.3872 32.6853 40.0698C32.6853 40.869 32.3958 41.5516 31.8168 42.1343C31.2378 42.7003 30.5396 43 29.7223 43C28.9049 43 28.2067 42.717 27.6277 42.1343C27.0487 41.5682 26.7592 40.869 26.7592 40.0698C26.7592 39.7535 26.8103 39.4372 26.9295 39.1208H26.7592C25.7716 39.1208 24.9201 38.7712 24.2049 38.072C23.4897 37.3727 23.1321 36.5403 23.1321 35.5747C23.1321 34.9087 23.3024 34.3093 23.643 33.7932C22.7575 33.3104 22.1274 32.6278 21.7358 31.7121H19.5561V31.6955C17.734 31.579 16.1844 30.8797 14.9072 29.5811C13.6301 28.2825 13 26.7508 13 24.9527ZM15.384 24.5365C15.384 25.8684 15.8608 27.0005 16.8144 27.9329C17.7681 28.8652 18.926 29.3314 20.2713 29.3314C21.1057 29.3314 21.889 29.1482 22.6042 28.7653C22.8086 29.9973 23.4046 31.0295 24.3752 31.862C25.3459 32.6944 26.5038 33.094 27.815 33.094C29.2965 33.094 30.5567 32.5779 31.5954 31.5623C32.2936 32.3614 33.1621 32.7444 34.2178 32.7444C35.1885 32.7444 36.0059 32.4114 36.7041 31.7454C37.3852 31.0795 37.7258 30.2637 37.7258 29.3147C38.4069 28.8652 38.9518 28.2991 39.3435 27.5832C39.7352 26.884 39.9395 26.1182 39.9395 25.3024C39.9395 23.9871 39.4627 22.855 38.4921 21.9393C37.5214 21.0236 36.3635 20.5575 35.0012 20.5575C34.0476 20.5575 33.1791 20.8072 32.3958 21.29C32.4979 20.8904 32.532 20.4409 32.532 19.9748C32.532 18.3765 31.953 17.0113 30.778 15.8792C29.6031 14.747 28.1897 14.1976 26.5379 14.1976C24.9372 14.1976 23.5578 14.747 22.3999 15.8126C21.2419 16.8781 20.6289 18.21 20.5778 19.7583H20.2883C18.943 19.7583 17.8021 20.2245 16.8315 21.1568C15.8608 22.0892 15.384 23.2379 15.384 24.5365Z" fill="white"/>
<defs>
<linearGradient id="paint0_linear_179_1263" x1="0" y1="0" x2="59.1504" y2="5.81211" gradientUnits="userSpaceOnUse">
<stop stop-color="#FFE600"/>
<stop offset="1" stop-color="#FF0F00"/>
</linearGradient>
</defs>
</svg>
