<svg width="55" height="55" viewBox="0 0 55 55" fill="none" xmlns="http://www.w3.org/2000/svg">
<circle cx="27.5" cy="27.5" r="27.5" fill="url(#paint0_linear_179_433)"/>
<path d="M38.0147 5.66176L38.9056 13.8908L43.2787 6.86325L40.5109 14.6639L47.5001 10.2297L41.6219 16.057L49.8428 15.0944L42.0184 17.7941L49.8428 20.4938L41.6219 19.5312L47.5001 25.3585L40.5109 20.9243L43.2787 28.725L38.9056 21.6974L38.0147 29.9265L37.1238 21.6974L32.7506 28.725L35.5184 20.9243L28.5292 25.3585L34.4075 19.5312L26.1865 20.4938L34.011 17.7941L26.1865 15.0944L34.4075 16.057L28.5292 10.2297L35.5184 14.6639L32.7506 6.86325L37.1238 13.8908L38.0147 5.66176Z" fill="white"/>
<path d="M25.0738 28.3088L25.9647 36.5379L30.3378 29.5103L27.57 37.311L34.5592 32.8768L28.6809 38.704L36.9019 37.7415L29.0774 40.4412L36.9019 43.1409L28.6809 42.1783L34.5592 48.0056L27.57 43.5714L30.3378 51.372L25.9647 44.3445L25.0738 52.5735L24.1829 44.3445L19.8097 51.372L22.5775 43.5714L15.5883 48.0056L21.4666 42.1783L13.2456 43.1409L21.0701 40.4412L13.2456 37.7415L21.4666 38.704L15.5883 32.8768L22.5775 37.311L19.8097 29.5103L24.1829 36.5379L25.0738 28.3088Z" fill="white"/>
<path d="M14.9633 12.1324L15.7057 18.9899L19.35 13.1336L17.0435 19.6341L22.8679 15.939L17.9693 20.795L24.8201 19.9929L18.2997 22.2426L24.8201 24.4924L17.9693 23.6903L22.8679 28.5463L17.0435 24.8511L19.35 31.3517L15.7057 25.4954L14.9633 32.3529L14.2209 25.4954L10.5766 31.3517L12.8831 24.8511L7.05878 28.5463L11.9573 23.6903L5.10651 24.4924L11.6269 22.2426L5.10651 19.9929L11.9573 20.795L7.05878 15.939L12.8831 19.6341L10.5766 13.1336L14.2209 18.9899L14.9633 12.1324Z" fill="white"/>
<path d="M38.0148 12.1324L38.5061 15.6414L40.4713 12.693L39.3915 16.0678L42.4413 14.2641L40.0042 16.8361L43.5346 16.5343L40.2229 17.7941L43.5346 19.054L40.0042 18.7522L42.4413 21.3242L39.3915 19.5205L40.4713 22.8952L38.5061 19.9468L38.0148 23.4559L37.5234 19.9468L35.5582 22.8952L36.6381 19.5205L33.5882 21.3242L36.0254 18.7522L32.495 19.054L35.8067 17.7941L32.495 16.5343L36.0254 16.8361L33.5882 14.2641L36.6381 16.0678L35.5582 12.693L37.5234 15.6414L38.0148 12.1324Z" fill="url(#paint1_linear_179_433)"/>
<path d="M25.0734 34.7794L25.5647 38.2884L27.5299 35.3401L26.4501 38.7148L29.4999 36.9111L27.0628 39.4831L30.5932 39.1813L27.2815 40.4412L30.5932 41.701L27.0628 41.3992L29.4999 43.9712L26.4501 42.1675L27.5299 45.5422L25.5647 42.5939L25.0734 46.1029L24.582 42.5939L22.6168 45.5422L23.6967 42.1675L20.6468 43.9712L23.084 41.3992L19.5536 41.701L22.8653 40.4412L19.5536 39.1813L23.084 39.4831L20.6468 36.9111L23.6967 38.7148L22.6168 35.3401L24.582 38.2884L25.0734 34.7794Z" fill="url(#paint2_linear_179_433)"/>
<path d="M14.9632 17.7941L15.3492 20.5512L16.8933 18.2347L16.0449 20.8862L18.4412 19.469L16.5263 21.4899L19.3002 21.2528L16.6981 22.2426L19.3002 23.2325L16.5263 22.9954L18.4412 25.0163L16.0449 23.5991L16.8933 26.2506L15.3492 23.9341L14.9632 26.6912L14.5771 23.9341L13.033 26.2506L13.8815 23.5991L11.4852 25.0163L13.4001 22.9954L10.6262 23.2325L13.2283 22.2426L10.6262 21.2528L13.4001 21.4899L11.4852 19.469L13.8815 20.8862L13.033 18.2347L14.5771 20.5512L14.9632 17.7941Z" fill="url(#paint3_linear_179_433)"/>
<defs>
<linearGradient id="paint0_linear_179_433" x1="0" y1="0" x2="59.1504" y2="5.81211" gradientUnits="userSpaceOnUse">
<stop stop-color="#FF00C7"/>
<stop offset="1" stop-color="#7000FF"/>
</linearGradient>
<linearGradient id="paint1_linear_179_433" x1="32.353" y1="12.1324" x2="44.531" y2="13.329" gradientUnits="userSpaceOnUse">
<stop stop-color="#FF00C7"/>
<stop offset="1" stop-color="#7000FF"/>
</linearGradient>
<linearGradient id="paint2_linear_179_433" x1="19.4116" y1="34.7794" x2="31.5896" y2="35.976" gradientUnits="userSpaceOnUse">
<stop stop-color="#FF00C7"/>
<stop offset="1" stop-color="#7000FF"/>
</linearGradient>
<linearGradient id="paint3_linear_179_433" x1="10.5146" y1="17.7941" x2="20.0831" y2="18.7343" gradientUnits="userSpaceOnUse">
<stop stop-color="#FF00C7"/>
<stop offset="1" stop-color="#7000FF"/>
</linearGradient>
</defs>
</svg>
