<svg width="55" height="55" viewBox="0 0 55 55" fill="none" xmlns="http://www.w3.org/2000/svg">
<circle cx="27.5" cy="27.5" r="27.5" fill="url(#paint0_linear_179_445)"/>
<rect x="24.0254" y="27.5" width="8.89706" height="17.2455" rx="2" transform="rotate(27.0719 24.0254 27.5)" fill="white"/>
<path d="M29.4357 21.2817C31.1803 26.018 30.9505 28.1908 26.2949 33.6218C22.2232 38.823 22.294 40.8111 23.1541 45.962" stroke="white"/>
<path d="M30.6602 8.41808L30.606 15.1354L34.7909 9.88069L31.8276 15.9093L37.878 12.9907L32.5924 17.1366L39.31 17.1322L32.749 18.5741L38.8032 21.4848L32.2663 19.9373L36.4581 25.1866L31.24 20.956L32.7391 27.5042L29.8734 21.4286L28.3828 27.9787L28.437 21.2613L24.2521 26.5161L27.2154 20.4875L21.165 23.4061L26.4506 19.2602L19.733 19.2646L26.294 17.8226L20.2398 14.9119L26.7767 16.4595L22.5849 11.2102L27.803 15.4407L26.3039 8.89259L29.1697 14.9682L30.6602 8.41808Z" fill="white"/>
<path d="M45.2939 21.8382L45.4811 24.2534L46.6976 22.1586L45.8184 24.4159L47.8233 23.0564L46.0518 24.7086L48.4481 24.3536L46.1351 25.0735L48.4481 25.7934L46.0518 25.4385L47.8233 27.0907L45.8184 25.7312L46.6976 27.9884L45.4811 25.8936L45.2939 28.3088L45.1067 25.8936L43.8901 27.9884L44.7694 25.7312L42.7644 27.0907L44.536 25.4385L42.1397 25.7934L44.4527 25.0735L42.1397 24.3536L44.536 24.7086L42.7644 23.0564L44.7694 24.4159L43.8901 22.1586L45.1067 24.2534L45.2939 21.8382Z" fill="white"/>
<path d="M16.9853 23.4559L17.266 27.0787L19.0909 23.9365L17.772 27.3223L20.7794 25.2831L18.1221 27.7614L21.7165 27.2289L18.247 28.3088L21.7165 29.3887L18.1221 28.8563L20.7794 31.3346L17.772 29.2953L19.0909 32.6812L17.266 29.539L16.9853 33.1618L16.7045 29.539L14.8797 32.6812L16.1986 29.2953L13.1911 31.3346L15.8485 28.8563L12.254 29.3887L15.7235 28.3088L12.254 27.2289L15.8485 27.7614L13.1911 25.2831L16.1986 27.3223L14.8797 23.9365L16.7045 27.0787L16.9853 23.4559Z" fill="white"/>
<path d="M13.7499 8.89706L13.9371 11.3123L15.1537 9.21745L14.2744 11.4747L16.2794 10.1152L14.5078 11.7674L16.9041 11.4124L14.5911 12.1324L16.9041 12.8523L14.5078 12.4973L16.2794 14.1495L14.2744 12.79L15.1537 15.0473L13.9371 12.9524L13.7499 15.3676L13.5628 12.9524L12.3462 15.0473L13.2255 12.79L11.2205 14.1495L12.9921 12.4973L10.5958 12.8523L12.9088 12.1324L10.5958 11.4124L12.9921 11.7674L11.2205 10.1152L13.2255 11.4747L12.3462 9.21745L13.5628 11.3123L13.7499 8.89706Z" fill="white"/>
<path d="M30.1647 12.6701L30.0412 16.7292L32.4995 13.4968L30.6271 17.1003L34.2443 15.2546L30.9939 17.6889L35.0537 17.5955L31.069 18.3783L34.7673 20.0557L30.8375 19.032L33.4418 22.1479L30.3453 19.5206L31.3398 23.4579L29.6899 19.7472L28.8775 23.7261L29.001 19.667L26.5427 22.8994L28.4152 19.2959L24.7979 21.1416L28.0484 18.7073L23.9885 18.8007L27.9733 18.0179L24.2749 16.3405L28.2047 17.3642L25.6004 14.2483L28.6969 16.8756L27.7025 12.9383L29.3524 16.649L30.1647 12.6701Z" fill="url(#paint1_linear_179_445)"/>
<defs>
<linearGradient id="paint0_linear_179_445" x1="0" y1="0" x2="59.1504" y2="5.81211" gradientUnits="userSpaceOnUse">
<stop stop-color="#FF00C7"/>
<stop offset="1" stop-color="#7000FF"/>
</linearGradient>
<linearGradient id="paint1_linear_179_445" x1="24.6367" y1="12.0265" x2="36.391" y2="14.5792" gradientUnits="userSpaceOnUse">
<stop stop-color="#FF00C7"/>
<stop offset="1" stop-color="#7000FF"/>
</linearGradient>
</defs>
</svg>
