<svg width="55" height="55" viewBox="0 0 55 55" fill="none" xmlns="http://www.w3.org/2000/svg">
<circle cx="27.5" cy="27.5" r="27.5" fill="url(#paint0_linear_179_448)"/>
<path d="M29.0287 26.6524C27.9046 18.1985 29.9266 17.7941 27.0958 14.1545" stroke="white" stroke-width="0.5"/>
<path d="M29.1185 26.9775C34.3747 26.9775 35.588 24.6691 38.419 29.5222" stroke="white" stroke-width="0.5"/>
<path d="M29.1177 26.2458C33.5659 24.2647 34.7792 19.8162 38.4189 19.0074" stroke="white" stroke-width="0.5"/>
<path d="M27.5001 7.27941L27.8016 13.4338L31.1398 8.25467L28.3237 13.7353L33.8043 10.9191L28.6251 14.2574L34.7795 14.5588L28.6251 14.8603L33.8043 18.1985L28.3237 15.3824L31.1398 20.863L27.8016 15.6838L27.5001 21.8382L27.1987 15.6838L23.8604 20.863L26.6765 15.3824L21.196 18.1985L26.3751 14.8603L20.2207 14.5588L26.3751 14.2574L21.196 10.9191L26.6765 13.7353L23.8604 8.25467L27.1987 13.4338L27.5001 7.27941Z" fill="white"/>
<path d="M38.419 24.2647L38.6367 28.7095L41.0476 24.9691L39.0138 28.9273L42.972 26.8934L39.2315 29.3043L43.6763 29.5221L39.2315 29.7398L42.972 32.1507L39.0138 30.1169L41.0476 34.0751L38.6367 30.3346L38.419 34.7794L38.2013 30.3346L35.7903 34.0751L37.8242 30.1169L33.866 32.1507L37.6065 29.7398L33.1616 29.5221L37.6065 29.3043L33.866 26.8934L37.8242 28.9273L35.7903 24.9691L38.2013 28.7095L38.419 24.2647Z" fill="white"/>
<path d="M38.4192 12.9412L38.6704 18.0698L41.4523 13.7539L39.1055 18.321L43.6727 15.9743L39.3567 18.7561L44.4854 19.0074L39.3567 19.2586L43.6727 22.0404L39.1055 19.6937L41.4523 24.2608L38.6704 19.9449L38.4192 25.0735L38.168 19.9449L35.3861 24.2608L37.7329 19.6937L33.1657 22.0404L37.4817 19.2586L32.353 19.0074L37.4817 18.7561L33.1657 15.9743L37.7329 18.321L35.3861 13.7539L38.168 18.0698L38.4192 12.9412Z" fill="white"/>
<path d="M44.8895 21.8382L45.0067 24.2316L46.3049 22.2175L45.2098 24.3488L47.3411 23.2537L45.327 24.5519L47.7204 24.6691L45.327 24.7863L47.3411 26.0846L45.2098 24.9894L46.3049 27.1207L45.0067 25.1066L44.8895 27.5L44.7722 25.1066L43.474 27.1207L44.5692 24.9894L42.4379 26.0846L44.452 24.7863L42.0586 24.6691L44.452 24.5519L42.4379 23.2537L44.5692 24.3488L43.474 22.2175L44.7722 24.2316L44.8895 21.8382Z" fill="white"/>
<path d="M34.3748 7.27941L34.4921 9.67279L35.7903 7.65868L34.6951 9.79002L36.8264 8.69485L34.8123 9.99306L37.2057 10.1103L34.8123 10.2275L36.8264 11.5257L34.6951 10.4306L35.7903 12.5619L34.4921 10.5478L34.3748 12.9412L34.2576 10.5478L32.9594 12.5619L34.0545 10.4306L31.9232 11.5257L33.9373 10.2275L31.5439 10.1103L33.9373 9.99306L31.9232 8.69485L34.0545 9.79002L32.9594 7.65868L34.2576 9.67279L34.3748 7.27941Z" fill="white"/>
<path d="M28.019 24.2647L31.4506 27.6963L8.99521 46.7201L28.019 24.2647Z" fill="white"/>
<defs>
<linearGradient id="paint0_linear_179_448" x1="0" y1="0" x2="59.1504" y2="5.81211" gradientUnits="userSpaceOnUse">
<stop stop-color="#FF00C7"/>
<stop offset="1" stop-color="#7000FF"/>
</linearGradient>
</defs>
</svg>
