<svg width="55" height="55" viewBox="0 0 55 55" fill="none" xmlns="http://www.w3.org/2000/svg">
<circle cx="27.5" cy="27.5" r="27.5" fill="url(#paint0_linear_179_1047)"/>
<path d="M5.66176 25.0735L5.89622 29.8603L8.49265 25.8321L6.30232 30.0947L10.565 27.9044L6.53678 30.5008L11.3235 30.7353L6.53678 30.9698L10.565 33.5662L6.30232 31.3759L8.49265 35.6385L5.89622 31.6103L5.66176 36.3971L5.42731 31.6103L2.83088 35.6385L5.02121 31.3759L0.758532 33.5662L4.78675 30.9698L0 30.7353L4.78675 30.5008L0.758532 27.9044L5.02121 30.0947L2.83088 25.8321L5.42731 29.8603L5.66176 25.0735Z" fill="white"/>
<path d="M37.2057 6.47059L37.4402 11.2573L40.0366 7.22912L37.8463 11.4918L42.1089 9.30147L38.0807 11.8979L42.8675 12.1324L38.0807 12.3668L42.1089 14.9632L37.8463 12.7729L40.0366 17.0356L37.4402 13.0074L37.2057 17.7941L36.9713 13.0074L34.3748 17.0356L36.5652 12.7729L32.3025 14.9632L36.3307 12.3668L31.5439 12.1324L36.3307 11.8979L32.3025 9.30147L36.5652 11.4918L34.3748 7.22912L36.9713 11.2573L37.2057 6.47059Z" fill="white"/>
<path d="M47.7204 23.4559L47.8879 26.875L49.7424 23.9977L48.1779 27.0425L51.2227 25.4779L48.3454 27.3325L51.7645 27.5L48.3454 27.6675L51.2227 29.5221L48.1779 27.9575L49.7424 31.0023L47.8879 28.125L47.7204 31.5441L47.5529 28.125L45.6983 31.0023L47.2628 27.9575L44.2181 29.5221L47.0954 27.6675L43.6763 27.5L47.0954 27.3325L44.2181 25.4779L47.2628 27.0425L45.6983 23.9977L47.5529 26.875L47.7204 23.4559Z" fill="white"/>
<path d="M16.1764 6.47059L16.4109 11.2573L19.0073 7.22912L16.817 11.4918L21.0796 9.30147L17.0514 11.8979L21.8382 12.1324L17.0514 12.3668L21.0796 14.9632L16.817 12.7729L19.0073 17.0356L16.4109 13.0074L16.1764 17.7941L15.942 13.0074L13.3455 17.0356L15.5359 12.7729L11.2732 14.9632L15.3014 12.3668L10.5146 12.1324L15.3014 11.8979L11.2732 9.30147L15.5359 11.4918L13.3455 7.22912L15.942 11.2573L16.1764 6.47059Z" fill="white"/>
<path d="M27.5 54.2143C27.5 41.3915 27.5 33.1572 27.5 30.6429" stroke="white" stroke-width="1.5"/>
<path d="M31.9864 13.9899L28.9 28.2702L39.7239 18.4571L29.9108 29.281L44.1911 26.1946L30.2808 30.6618L44.1911 35.1291L29.9108 32.0426L39.7239 42.8666L28.9 33.0535L31.9864 47.3338L27.5192 33.4234L23.0519 47.3338L26.1384 33.0535L15.3145 42.8666L25.1275 32.0426L10.8472 35.1291L24.7576 30.6618L10.8472 26.1946L25.1275 29.281L15.3145 18.4571L26.1384 28.2702L23.0519 13.9899L27.5192 27.9002L31.9864 13.9899Z" fill="white"/>
<defs>
<linearGradient id="paint0_linear_179_1047" x1="0" y1="0" x2="59.1504" y2="5.81211" gradientUnits="userSpaceOnUse">
<stop stop-color="#FF00C7"/>
<stop offset="1" stop-color="#7000FF"/>
</linearGradient>
</defs>
</svg>
