<svg width="55" height="55" viewBox="0 0 55 55" fill="none" xmlns="http://www.w3.org/2000/svg">
<ellipse cx="27.8987" cy="27.5" rx="27.1014" ry="27.5" fill="url(#paint0_linear_179_439)"/>
<path d="M40.9656 26.9437C42.685 31.6799 42.4585 33.8527 37.8704 39.2838C33.8578 44.4849 33.9275 46.473 34.7752 51.6239" stroke="white"/>
<path d="M12.2343 27.0905C10.8221 31.9302 11.1873 34.0835 16.1137 39.2003C20.4511 44.1257 20.5089 46.1142 19.9931 51.3101" stroke="white"/>
<path d="M28.6478 16.1765C26.5865 21.0294 26.5863 24.2648 28.6478 30.3931C30.5314 35.9926 28.1501 38.0147 28.6478 44.6097" stroke="white"/>
<path d="M41.0504 14.5588L41.8406 21.965L45.7193 15.6402L43.2644 22.6608L49.4635 18.67L44.2498 23.9145L51.5414 23.0482L44.6015 25.4779L51.5414 27.9077L44.2498 27.0414L49.4635 32.2859L43.2644 28.2951L45.7193 35.3157L41.8406 28.9909L41.0504 36.3971L40.2602 28.9909L36.3814 35.3157L38.8363 28.2951L32.6372 32.2859L37.851 27.0414L30.5593 27.9077L37.4993 25.4779L30.5593 23.0482L37.851 23.9145L32.6372 18.67L38.8363 22.6608L36.3814 15.6402L40.2602 21.965L41.0504 14.5588Z" fill="white"/>
<path d="M41.0508 20.2206L41.3736 24.0428L43.2988 20.7412L41.9553 24.327L45.1015 22.2L42.3578 24.8392L46.102 24.3081L42.5015 25.4779L46.102 26.6478L42.3578 26.1166L45.1015 28.7558L41.9553 26.6288L43.2988 30.2147L41.3736 26.9131L41.0508 30.7353L40.728 26.9131L38.8028 30.2147L40.1463 26.6288L37 28.7558L39.7437 26.1166L35.9995 26.6478L39.6001 25.4779L35.9995 24.3081L39.7437 24.8392L37 22.2L40.1463 24.327L38.8028 20.7412L40.728 24.0428L41.0508 20.2206Z" fill="url(#paint1_linear_179_439)"/>
<path d="M10.6053 13.9825L12.6206 21.1457L15.3873 14.2455L14.1401 21.5866L19.5832 16.5878L15.3206 22.6529L22.3621 20.5455L15.9282 24.1332L23.1735 25.3347L15.8427 25.7345L21.8567 30.0068L15.0809 27.1395L18.6725 33.6366L13.7938 28.07L14.2517 35.505L12.2363 28.3417L9.46965 35.242L10.7168 27.9008L5.27368 32.8997L9.53635 26.8346L2.49479 28.942L8.92872 25.3542L1.68339 24.1527L9.01425 23.753L3.00019 19.4806L9.77601 22.3479L6.18436 15.8509L11.0631 21.4174L10.6053 13.9825Z" fill="white"/>
<path d="M11.5506 19.5625L12.5069 23.2739L13.853 19.6891L13.1277 23.454L15.8733 20.8169L13.6099 23.8896L17.2113 22.7224L13.8582 24.4944L17.602 25.0283L13.8232 25.1486L16.9679 27.2779L13.512 25.7226L15.4348 29.0255L12.9862 26.1027L13.3062 29.9251L12.3499 26.2137L11.0038 29.7985L11.7291 26.0336L8.98351 28.6707L11.2469 25.598L7.64553 26.7652L10.9987 24.9932L7.25486 24.4593L11.0336 24.339L7.88887 22.2097L11.3448 23.765L9.42199 20.462L11.8706 23.3849L11.5506 19.5625Z" fill="url(#paint2_linear_179_439)"/>
<path d="M29.8912 2.42647L30.6814 9.83262L34.5602 3.5078L32.1053 10.5284L38.3044 6.53763L33.0906 11.7822L40.3822 10.9159L33.4423 13.3456L40.3822 15.7753L33.0906 14.909L38.3044 20.1535L32.1053 16.1628L34.5602 23.1834L30.6814 16.8586L29.8912 24.2647L29.101 16.8586L25.2223 23.1834L27.6771 16.1628L21.478 20.1535L26.6918 14.909L19.4002 15.7753L26.3401 13.3456L19.4002 10.9159L26.6918 11.7822L21.478 6.53763L27.6771 10.5284L25.2223 3.5078L29.101 9.83262L29.8912 2.42647Z" fill="white"/>
<path d="M29.8916 8.08823L30.2144 11.9104L32.1396 8.60888L30.7961 12.1947L33.9424 10.0677L31.1986 12.7069L34.9428 12.1757L31.3423 13.3456L34.9428 14.5155L31.1986 13.9843L33.9424 16.6235L30.7961 14.4965L32.1396 18.0823L30.2144 14.7807L29.8916 18.6029L29.5688 14.7807L27.6436 18.0823L28.9871 14.4965L25.8408 16.6235L28.5845 13.9843L24.8404 14.5155L28.4409 13.3456L24.8404 12.1757L28.5845 12.7069L25.8408 10.0677L28.9871 12.1947L27.6436 8.60888L29.5688 11.9104L29.8916 8.08823Z" fill="url(#paint3_linear_179_439)"/>
<defs>
<linearGradient id="paint0_linear_179_439" x1="0.797363" y1="0" x2="59.1063" y2="5.64638" gradientUnits="userSpaceOnUse">
<stop stop-color="#FF00C7"/>
<stop offset="1" stop-color="#7000FF"/>
</linearGradient>
<linearGradient id="paint1_linear_179_439" x1="35.8696" y1="20.2206" x2="47.0169" y2="21.3" gradientUnits="userSpaceOnUse">
<stop stop-color="#FF00C7"/>
<stop offset="1" stop-color="#7000FF"/>
</linearGradient>
<linearGradient id="paint2_linear_179_439" x1="6.44434" y1="20.4532" x2="17.6147" y2="19.6558" gradientUnits="userSpaceOnUse">
<stop stop-color="#FF00C7"/>
<stop offset="1" stop-color="#7000FF"/>
</linearGradient>
<linearGradient id="paint3_linear_179_439" x1="24.7104" y1="8.08823" x2="35.8577" y2="9.16769" gradientUnits="userSpaceOnUse">
<stop stop-color="#FF00C7"/>
<stop offset="1" stop-color="#7000FF"/>
</linearGradient>
</defs>
</svg>
