<svg width="55" height="55" viewBox="0 0 55 55" fill="none" xmlns="http://www.w3.org/2000/svg">
<circle cx="27.5" cy="27.5" r="27.5" fill="url(#paint0_linear_179_1240)"/>
<path d="M23 30H32L27.725 54L23 30Z" fill="white"/>
<path d="M31.7985 11.6975L29.5602 24.0049L39.3708 16.2439L31.2787 25.7833L43.6555 23.9674L31.8778 28.1827L43.5044 32.7985L31.197 30.5602L38.958 40.3708L29.4186 32.2787L31.2345 44.6555L27.0192 32.8778L22.4034 44.5044L24.6417 32.197L14.8311 39.958L22.9232 30.4186L10.5464 32.2345L22.3241 28.0192L10.6975 23.4034L23.0049 25.6417L15.2439 15.8311L24.7833 23.9232L22.9674 11.5464L27.1827 23.3241L31.7985 11.6975Z" fill="white"/>
<path d="M17.1764 5L17.4109 9.78675L20.0073 5.75853L17.817 10.0212L22.0796 7.83088L18.0514 10.4273L22.8382 10.6618L18.0514 10.8962L22.0796 13.4926L17.817 11.3023L20.0073 15.565L17.4109 11.5368L17.1764 16.3235L16.942 11.5368L14.3455 15.565L16.5359 11.3023L12.2732 13.4926L16.3014 10.8962L11.5146 10.6618L16.3014 10.4273L12.2732 7.83088L16.5359 10.0212L14.3455 5.75853L16.942 9.78675L17.1764 5Z" fill="white"/>
<path d="M48.7204 21.9853L48.8879 25.4044L50.7424 22.5271L49.1779 25.5719L52.2227 24.0074L49.3454 25.862L52.7645 26.0294L49.3454 26.1969L52.2227 28.0515L49.1779 26.487L50.7424 29.5317L48.8879 26.6544L48.7204 30.0735L48.5529 26.6544L46.6983 29.5317L48.2628 26.487L45.2181 28.0515L48.0954 26.1969L44.6763 26.0294L48.0954 25.862L45.2181 24.0074L48.2628 25.5719L46.6983 22.5271L48.5529 25.4044L48.7204 21.9853Z" fill="white"/>
<path d="M38.2057 5L38.4402 9.78675L41.0366 5.75853L38.8463 10.0212L43.1089 7.83088L39.0807 10.4273L43.8675 10.6618L39.0807 10.8962L43.1089 13.4926L38.8463 11.3023L41.0366 15.565L38.4402 11.5368L38.2057 16.3235L37.9713 11.5368L35.3748 15.565L37.5652 11.3023L33.3025 13.4926L37.3307 10.8962L32.5439 10.6618L37.3307 10.4273L33.3025 7.83088L37.5652 10.0212L35.3748 5.75853L37.9713 9.78675L38.2057 5Z" fill="white"/>
<path d="M6.66176 23.603L6.89622 28.3897L9.49265 24.3615L7.30232 28.6242L11.565 26.4338L7.53678 29.0303L12.3235 29.2647L7.53678 29.4992L11.565 32.0956L7.30232 29.9053L9.49265 34.1679L6.89622 30.1397L6.66176 34.9265L6.42731 30.1397L3.83088 34.1679L6.02121 29.9053L1.75853 32.0956L5.78675 29.4992L1 29.2647L5.78675 29.0303L1.75853 26.4338L6.02121 28.6242L3.83088 24.3615L6.42731 28.3897L6.66176 23.603Z" fill="white"/>
<path d="M29.6327 19.4204L28.4482 25.9334L33.64 21.8263L29.3577 26.8745L35.9074 25.9135L29.6747 28.1442L35.8274 30.5868L29.3144 29.4024L33.4215 34.5941L28.3733 30.3118L29.3343 36.8615L27.1036 30.6288L24.6609 36.7815L25.8454 30.2685L20.6537 34.3756L24.936 29.3274L18.3863 30.2884L24.6189 28.0577L18.4663 25.6151L24.9792 26.7996L20.8722 21.6078L25.9203 25.8901L24.9594 19.3404L27.1901 25.5731L29.6327 19.4204Z" fill="#A800E9"/>
<defs>
<linearGradient id="paint0_linear_179_1240" x1="0" y1="0" x2="59.1504" y2="5.81211" gradientUnits="userSpaceOnUse">
<stop stop-color="#FF00C7"/>
<stop offset="1" stop-color="#7000FF"/>
</linearGradient>
</defs>
</svg>
