<svg width="55" height="55" viewBox="0 0 55 55" fill="none" xmlns="http://www.w3.org/2000/svg">
<circle cx="27.5" cy="27.5" r="27.5" fill="url(#paint0_linear_179_1059)"/>
<path d="M27.5001 6.47059L29.0443 20.7343L36.6244 8.55316L31.827 22.0743L43.9416 14.3884L33.7526 24.489L48.0023 22.8205L34.4398 27.5L48.0023 32.1795L33.7526 30.511L43.9416 40.6116L31.827 32.9257L36.6244 46.4468L29.0443 34.2657L27.5001 48.5294L25.9559 34.2657L18.3758 46.4468L23.1733 32.9257L11.0587 40.6116L21.2477 30.511L6.99796 32.1795L20.5604 27.5L6.99796 22.8205L21.2477 24.489L11.0587 14.3884L23.1733 22.0743L18.3758 8.55316L25.9559 20.7343L27.5001 6.47059Z" fill="white"/>
<path d="M27.5001 18.6029L28.2722 24.1171L31.3604 19.484L29.6635 24.7872L34.4561 21.9528L30.6263 25.9945L36.1741 25.5202L30.9699 27.5L36.1741 29.4798L30.6263 29.0055L34.4561 33.0472L29.6635 30.2128L31.3604 35.516L28.2722 30.8829L27.5001 36.3971L26.728 30.8829L23.6398 35.516L25.3367 30.2128L20.5441 33.0472L24.3739 29.0055L18.8261 29.4798L24.0302 27.5L18.8261 25.5202L24.3739 25.9945L20.5441 21.9528L25.3367 24.7872L23.6398 19.484L26.728 24.1171L27.5001 18.6029Z" fill="url(#paint1_linear_179_1059)"/>
<defs>
<linearGradient id="paint0_linear_179_1059" x1="0" y1="0" x2="59.1504" y2="5.81211" gradientUnits="userSpaceOnUse">
<stop stop-color="#FF00C7"/>
<stop offset="1" stop-color="#7000FF"/>
</linearGradient>
<linearGradient id="paint1_linear_179_1059" x1="18.603" y1="18.6029" x2="37.7399" y2="20.4833" gradientUnits="userSpaceOnUse">
<stop stop-color="#FF00C7"/>
<stop offset="1" stop-color="#7000FF"/>
</linearGradient>
</defs>
</svg>
