<svg width="55" height="55" viewBox="0 0 55 55" fill="none" xmlns="http://www.w3.org/2000/svg">
<circle cx="27.5" cy="27.5" r="27.5" fill="url(#paint0_linear_179_1245)"/>
<path d="M37.6339 26.0662H31.25V20.3994H29.1607C29.8074 19.5213 30.1549 18.4526 30.1505 17.3555C30.1505 15.7239 29.3914 14.1909 28.1695 13.3548L27.6511 13L27.1328 13.3548C25.9107 14.191 25.1519 15.724 25.1519 17.3555C25.1475 18.4527 25.4951 19.5213 26.1419 20.3994H23.8214V26.0661H18.3661C17.4736 26.0672 16.6181 26.4282 15.987 27.07C15.356 27.7119 15.001 28.5821 15 29.4898V40.1111C15.0006 40.6119 15.1964 41.092 15.5446 41.4461C15.8927 41.8002 16.3648 41.9994 16.8571 42H39.1429C39.6352 41.9994 40.1073 41.8002 40.4554 41.4461C40.8036 41.092 40.9994 40.6119 41 40.1111V29.4899C40.999 28.5822 40.644 27.7119 40.013 27.0701C39.3819 26.4283 38.5264 26.0672 37.6339 26.0662ZM27.6511 15.41C28.0568 15.9226 28.2933 16.6181 28.2933 17.3556C28.2933 18.093 28.0568 18.7885 27.6511 19.3011C27.2455 18.7885 27.009 18.093 27.009 17.3555C27.009 16.618 27.2455 15.9226 27.6511 15.41ZM25.6786 22.2884H29.3929V26.0662H25.6786V22.2884ZM16.8571 29.4899C16.8576 29.083 17.0167 28.6929 17.2996 28.4051C17.5825 28.1174 17.966 27.9556 18.3661 27.9551H37.6339C38.034 27.9556 38.4175 28.1174 38.7004 28.4051C38.9833 28.6929 39.1424 29.083 39.1429 29.4899V31.3538L37.8893 31.9164C37.6441 32.0261 37.3792 32.0828 37.1113 32.0828C36.8435 32.0828 36.5786 32.0261 36.3334 31.9164L34.1518 30.9373L31.9696 31.9164C31.7245 32.0261 31.4595 32.0827 31.1917 32.0827C30.9238 32.0827 30.6589 32.0261 30.4137 31.9164L28.2321 30.9372L26.05 31.9163C25.8048 32.026 25.5399 32.0827 25.272 32.0827C25.0042 32.0827 24.7392 32.026 24.4941 31.9163L22.3125 30.9373L20.1308 31.9163C19.8856 32.026 19.6207 32.0827 19.3528 32.0827C19.0849 32.0827 18.82 32.026 18.5748 31.9163L16.8571 31.1456V29.4899ZM39.1429 40.1111H16.8571V33.2102L17.8251 33.6445C18.3065 33.86 18.8267 33.9713 19.3527 33.9713C19.8786 33.9713 20.3989 33.86 20.8803 33.6445L22.3125 33.0018L23.7448 33.6445C24.2262 33.86 24.7464 33.9713 25.2724 33.9713C25.7983 33.9713 26.3185 33.86 26.7999 33.6445L28.2321 33.0018L29.6643 33.6445C30.1457 33.86 30.6659 33.9713 31.1918 33.9713C31.7178 33.9713 32.238 33.86 32.7194 33.6445L34.1518 33.0018L35.584 33.6446C36.0654 33.86 36.5856 33.9713 37.1115 33.9713C37.6375 33.9713 38.1576 33.86 38.639 33.6446L39.1436 33.4182L39.144 40.1111H39.1429Z" fill="white"/>
<defs>
<linearGradient id="paint0_linear_179_1245" x1="0" y1="0" x2="59.1504" y2="5.81211" gradientUnits="userSpaceOnUse">
<stop stop-color="#FF00C7"/>
<stop offset="1" stop-color="#7000FF"/>
</linearGradient>
</defs>
</svg>
