<svg width="55" height="55" viewBox="0 0 55 55" fill="none" xmlns="http://www.w3.org/2000/svg">
<circle cx="27.5" cy="27.5" r="27.5" fill="url(#paint0_linear_282_848)"/>
<path d="M17.4665 31.0002L17.0206 36.8064L20.7637 32.3455L17.4745 37.1509L22.9466 35.1591L17.6953 37.6761L23.4302 38.6872L17.624 38.2414L22.0849 41.9845L17.2795 38.6953L19.2713 44.1673L16.7543 38.9161L15.7432 44.6509L16.189 38.8447L12.4459 43.3057L15.7351 38.5003L10.2631 40.492L15.5143 37.9751L9.77946 36.9639L15.5856 37.4098L11.1247 33.6667L15.9301 36.9559L13.9383 31.4838L16.4553 36.7351L17.4665 31.0002Z" fill="white"/>
<path d="M23.1309 6.83209L25.9769 16.6995L29.4082 7.02002L26.9393 16.9885L34.7506 10.3215L27.6282 17.7199L37.7265 15.8518L27.8592 18.6979L37.5386 22.1291L27.5702 19.6602L34.2372 27.4715L26.8387 20.3492L28.7068 30.4474L25.8608 20.5801L22.4295 30.2595L24.8984 20.2911L17.0871 26.9581L24.2094 19.5596L14.1112 21.4278L23.9785 18.5817L14.2991 15.1504L24.2675 17.6193L17.6005 9.80801L24.999 16.9304L23.1309 6.83209Z" fill="white"/>
<path d="M35.9531 32.0638L36.8014 36.7806L38.858 32.4519L37.2342 36.9609L41.1798 34.2405L37.519 37.3335L42.2961 36.9503L37.5793 37.7985L41.9081 39.8552L37.399 38.2314L40.1195 42.1769L37.0265 38.5161L37.4097 43.2933L36.5615 38.5765L34.5048 42.9052L36.1286 38.3962L32.1831 41.1166L35.8438 38.0236L31.0667 38.4069L35.7835 37.5586L31.4548 35.5019L35.9638 37.1257L33.2433 33.1802L36.3363 36.841L35.9531 32.0638Z" fill="white"/>
<path d="M8.17077 20.4964L9.03863 25.3222L11.1429 20.8934L9.48152 25.5067L13.5182 22.7233L9.77285 25.8878L14.6604 25.4957L9.83457 26.3636L14.2634 28.4678L9.65013 26.8065L12.4335 30.8432L9.26895 27.0978L9.66104 31.9854L8.79318 27.1595L6.68896 31.5883L8.35029 26.9751L4.31359 29.7584L8.05896 26.5939L3.17141 26.986L7.99725 26.1182L3.56845 24.0139L8.18169 25.6753L5.39835 21.6386L8.56286 25.3839L8.17077 20.4964Z" fill="white"/>
<path d="M44.8766 20.4594L45.7875 25.5246L47.9961 20.8762L46.2524 25.7182L50.4893 22.7968L46.5582 26.1183L51.6882 25.7068L46.6229 26.6177L51.2714 28.8263L46.4294 27.0825L49.3508 31.3195L46.0293 27.3883L46.4408 32.5183L45.5299 27.4531L43.3213 32.1016L45.065 27.2595L40.8281 30.1809L44.7593 26.8594L39.6293 27.271L44.6945 26.3601L40.046 24.1515L44.8881 25.8952L41.9667 21.6583L45.2882 25.5894L44.8766 20.4594Z" fill="white"/>
<path d="M25.1075 37.4181L26.0439 42.1418L28.0329 37.7561L26.482 42.3152L30.3974 39.5116L26.7748 42.6844L31.5674 42.2141L26.8437 43.1506L31.2294 45.1395L26.6703 43.5887L29.4739 47.504L26.3011 43.8814L26.7714 48.674L25.835 43.9503L23.846 48.336L25.3968 43.7769L21.4815 46.5806L25.1041 43.4077L20.3115 43.8781L25.0352 42.9416L20.6495 40.9526L25.2086 42.5035L22.4049 38.5881L25.5778 42.2107L25.1075 37.4181Z" fill="white"/>
<path d="M25.2111 27.589L25.9811 31.4727L27.6163 27.8669L26.3413 31.6153L29.5604 29.3102L26.5819 31.9188L30.5223 31.5321L26.6386 32.3021L30.2444 33.9373L26.496 32.6623L28.8011 35.8814L26.1925 32.903L26.5792 36.8433L25.8093 32.9596L24.174 36.5654L25.449 32.8171L22.23 35.1221L25.2084 32.5135L21.268 32.9002L25.1517 32.1303L21.5459 30.495L25.2943 31.7701L22.9892 28.551L25.5978 31.5294L25.2111 27.589Z" fill="white"/>
<path d="M25.9061 53.9989L16.2002 37.418M25.9061 53.9989L36.8252 37.418M25.9061 53.9989V18.0062" stroke="white"/>
<defs>
<linearGradient id="paint0_linear_282_848" x1="0" y1="0" x2="59.1504" y2="5.81211" gradientUnits="userSpaceOnUse">
<stop stop-color="#FF00C7"/>
<stop offset="1" stop-color="#7000FF"/>
</linearGradient>
</defs>
</svg>
